<mxfile host="65bd71144e">
    <diagram id="t9n-2kFZU3j_-_H4Nhqd" name="Page-1">
        <mxGraphModel dx="1865" dy="770" grid="1" gridSize="10" guides="1" tooltips="1" connect="1" arrows="1" fold="1" page="1" pageScale="1" pageWidth="850" pageHeight="1100" math="0" shadow="0">
            <root>
                <mxCell id="0"/>
                <mxCell id="1" parent="0"/>
                <mxCell id="2" value="" style="shape=image;verticalLabelPosition=bottom;labelBackgroundColor=default;verticalAlign=top;aspect=fixed;imageAspect=0;image=data:image/jpeg,/9j/4AAQSkZJRgABAQAAAQABAAD/2wCEAAYGBgYHBgcICAcKCwoLCg8ODAwODxYQERAREBYiFRkVFRkVIh4kHhweJB42KiYmKjY+NDI0PkxERExfWl98fKcBBgYGBgcGBwgIBwoLCgsKDw4MDA4PFhAREBEQFiIVGRUVGRUiHiQeHB4kHjYqJiYqNj40MjQ+TERETF9aX3x8p//CABEIAnEGQAMBIgACEQEDEQH/xAAtAAADAQEBAAAAAAAAAAAAAAAAAQMCBAUBAQEBAAAAAAAAAAAAAAAAAAABAv/aAAwDAQACEAMQAAAC9MTzQAGmMTCdJobnSmBK8vIqTpQBBjeLHrOoAFJ0lVQIAAlSVlxOUAM51lKAlACdJ0sAJRNVik9o01KTpKyjTlABTpOyoEoCqes6TTQrQEqyqjAVSrM21oQwzOskqtC5Ww56zukygTxeYnrZEsLDN8IiwRdUc9CpIqEsdExOgTKBDZswUDCoiejZg2jGLYGbDBsIUVDBsJ4vMDYTKCyVcoigsygkdqhMoLLHRJAoyRUWKrlEVFkVRDZRJlRZzvNFrYYNhJtiNoyt5M7zoABZeSplG8oFuehpI3gCwEoAABkAYAwBgBOmElvNKTzoEuauncLQa4Ouq41ON6lo2YI3N4qzkFDAakeees+Cp1E2aykVMC7JgqQolDAu8pBuWk2YF1NzLObShhyue52VMi6MhnU2lTLViCdY2RiFJ0mb1nQAClSaWAlAVRvGqMBSdJm9Z1AAZxvFlQJRNE6yrYASk6TKAwTVY3jaDTlM6yLeN0ACxvCbGKJonTGwGgnSaUAABc50k2AomidJVQGlJVmlAFADKeSgAJonWVUAFJVklGmoAZE00BKZ0qxTGwAhTpiygEomqnSdEAJVK0asDhDQAGQBgDAGJhjczKctTOuiFdXF24y5uzzvRrPP1cZ3TpOM0xSAEpOkzY1TAifF2cVeoBAgMpysuJyiasnSdAGSrOlZPedmXolnis6xz9wnB0gtM2miKBMoLA20wVRgolhXNUwbmaxWRvSYAgxrBZ4DayGKw2VcWVmYK6jooTF3MwnQSZUk1VYUTZgl3PWLKmRdpEZ3PdjES6y82G57GIDGsFRAzIYpKgxCudJJUQMSUMiUMi6SRiktpoyLqeppYwGzArSRYmG1gFXnqlDAup6mlzDXRkE8NKGRdJIVI0TRlqY1hKmRdIRik9owUrlSVlmiUAAAyJjEwaYNMMbyTpOtka6Bz0ji9CVKXJ1cx243iFudIExczrGrIcABDmv59e2cPbAAZ8z082S6QlE0SrOljBSmWqnaVQTUKdZVR5cRQHRKsrKApWATYWbTFUbchTXOk7/O9BKueuTo1OgACnSaVAlaFUqxsjAlJ0ma1jYCQ8aylAaoaJ0xSxLRLnFZ2aNEuVtEt5omTYuFvKLRqsGxcYrlB6FwbCO1RMPQucVmjehcG0TbaI0LlaCVM0TBpKs0wjNNcGgwtCC2lytInSdUB6XGKzTRprg2EjTTJQlmq5qLe0np7J4vECmiRUIaeyZUJZtIs0SgAAGGmDTBpgACaOeivZF1CLqEdPZyutaxmuInp7MG1GZ2nTbBMDOKYKgDMgZaKGUbMAty0bMBtZQUjooTDctTLE2vL1DKSc0uTFoTEbmyphrqNAlSdU2Za4VJpx+jydYxCk9zSwmomiF4WTQnKTpM0NCYzOdZssBKIRisq2AEpOsrKgSmWEbSqiGKsbwPeNoAKs6zZsCVMCVZVoACdJlAATDDzpGmKhoxSdBDAlWRRphnSies6s0MlzneSVpWsTCVypOygCgiMtOzYiUTRjeKJnSFcLRsprGl0BE9zpYwJSNo2WedSoYIAw0waYNMAAWsk7RtY0EoCTNJVoAlM6yi3OgAKp1iU1nQACxudlQJQAymWaAlEwnudLGAqTRik6IAKp0mmtZ0oMFKskoMXJoJGhBUFmqohTNkwUCWOiZl70SVhY46MJkqySsjmorEyguMWwg2zLBc43lKmXDMoVY7rbwG5vBYxkqpkKkd1QmRTCyU1JlSYbzkqpgNmAVI7NmA3J4LOYUWANTZQwimcgqw2UWA3HWCzmFDAJ4ZUmFMJCrChQmG5vBYm12YSNzZUmFFMCkGWIuKTWatqLLEgdIbKqYUk8HQ05QAEBkTBoG0wAGmiVuetmzJLpJWKsKmjLleXlFSNaYiVypJKvLtYiHGsrLCJWJmU1ZsFK0BOkq0AAnkzSVEYhSdJJvWdKACnSSWAUAMCEoJqJ5JdHP0IAKTpM1rOgAFOk0qAomiVZWQaJXKsq3pOAAU95soBKAGNzrQBBOkqqBAmjG50AAMbmbaY0AZ1lNgKJoxSdLABVOk0oAoAT3jaMCVDzZik6AAqnSZUCAAnrO7GBKZ1msUnVACVTpKymk5QEYedWaAlMvFLc9pppyqVJWVa0oBE94pYDUqlaVlXlyjQABhoGANoGANNHPTNrMFCJFFbCqqkyhLNVVkdlCToRPHROslGSdESnrnOw3omUCKrkRQJlER2qGDYYVMkqZoZNJVOsk058x3Pz+01h4LGA25gLKLuIVU0HRy1LKaKzzgvqGipMKTWDpJi0WQnbnsmzLXUtzKaxqGIFjeLKiJWCMVlSmIgnSaVE1EBKk6IwFU6TKPOhghJqzYEogJ0nSwAlJ0lZUBQRGNz3ZoQry8i3OgABKkyoiGIMbnuzQiV5eaxWVUYiUlSdlXlytCMay7KCJTG8E7c97NAS5jeFld50oCMUlRNIJSVY2V0iUBiGjAAwBgDAGmiVY2sYiUAJ1lSxgSmdZFSVLGIlc94rTTBNRyalezpAlADOdZsoBKgCVIQs7zG1E0TpOiNApOk0bWl4O7m0dE6ySjBQAwmk2CUXJpK2jA71z9K83P04Kb4+4a0GMVmmjQuDQQ2VSboE8XmJ0ZIqiWLYGVCToEKFCToRLF501UJFUQ06Entk8dExFGSKhFVQlVEyhENlKmUCWOiYKoSVkQ2UJlQkq5Ja1skVCWLzE6BMoENPZMqElbJHZUkVCWLzAoyJYOfWtEywRV8nPR0JlAli+BPbJlER2bMmgU6zK6y5WIAAwAMAYAwATRG3PSypFlSaCvPQoTZtZQ6QobMJaTeEpqWjRlLxHblK6yLoyCRlLLLViROsLJoQry0YpGqMQrlSaaedEObsoupUilxNQEZy0lEC8XXmaLl7dGOoFUL8gqb85PVedqp0klkxcmkStGyMCVTpOqNOQzpLnG8WWacomidZVoAhTpOyoEoASrKqJgpKs0201AKwAmwJRNGN4pYgJSVZWVAUAJUnRGApjeBUntGgVSrMowgTROk6WMFKZ1ms0nUE1BKkrLCagIxrFDQELOlZik6ABKp0nZVpyiaslSdBgKSrJKay5WgAAnrOgAGADAACFo3sRolytqyVMVEMVZoiNMVTJtS5xXFi0aMG2uJ3kmjYuFQSObZEUCZQOaiqTKhIqiG3siWCOOiZPe9kSwRn0xGUZIqEM0BFAwURC2KiGCxvA2tGiaKYMFzAUWAzbnoVJBWTmdBJlCYaykXJMoTB059lSQUmYOgmiqmBXnoUJkUm51ZzCiwDMBUwGzCHuOzZgNy1MuTChMM1hQoTDeFgpuGyhMNzMHQTCiwCpDZVTCmFk3uGyhMNyeC5NlFhBuOypgXeUkNx2UJs1N4LmHGjKMUluqGRdRpNKvOpQAACes6GADTAAACF4XsYnKJolaNbGBKAidY2sAJTFMWG86UAglSdlQFAQsvKVTSgIlWVUYCieTFJVQAUnvCPeNgAqlWSVaFaAxnWUqAoNErRsjAUnSaPWdmRirG5JdCViZOsbIwFJ0mbYSACrOs2bWlKmmY3jaACk6Ys2mpWCSdZWEMVTrJKDBDLZsaNaIyt5MbzSsjDOKzNZojLYSpOgDa4leSG1syt5XC1lKGhcmgjvNEyaFzis0W1oyNmZ2kbNMwbCO80Eaa4zTCT0UJKuTK2gKBJVCG3sw6BKfRErrOpQAACes6GAMAAAAOe/PWzbmFFgM1hQoTCiwGbQ2Ucha4yJvcmUU0UkoHcSZQkG85ydBIKqYZrz7LEwopoK81ShMWk1lKbhsoTZuO5HQTa7MAZMpcyG0kuLc900ZFeNYHSe0YhSNZJR50uhBK8LIxOVStGqsIABZ1myialTAnSdETTUnSdlAUrTRK8a2MCUnSSVAUAJ6zqzQEpnWUzSe6YnKp0nZQCUTRGk62aE5czpOzes6UzrJhaSVAlMvJisK001Dw82bFpU86hTrKywEomie57s2JymNzsVJ0gzpKsUnZVNKkxMVlUYhSNopV5cDzpWATaZoAYmAAAqheHQgNSgFSrGyMCUTVYpKqAEpnWaN42GdZIc27JSg1QBnFMJQBRNEqYogMXK0kjWdRDFzK80493yb3x95Od5GlQJlBZYtlErcxRy6Dnr5vqCVUcu+HsNU5u4krBDHRIHvRMqHNQqSdAljpmNUJZlCyWbYE6BhURCuaGTQZxXBpaQhkStKlMQOVJlRBoyGN40aMhpIFSWjZgNTeSpkNGAzSWzawG5awU1Nm1kHh5LGA1lBOsdFTAusPKb1PRowLuZlLOYbWQxSeijmG8GA3jQxKNYFVHgNGQe5MqTCkdYLazpQZAATaaaAUaYAABXP0c900gUTSStC4wFE0TrKqAEpjeKe5UQTyvn9fF0p1vG1QBnG8JUBRNEqSqmhCieSdJ1Tht0Ck6TEAnP3cHeKVYlmmoCM43hKgLwVOo83pXWCajPJ2efXZXHAeoJijWSV0hdICVZWRJkqnWdVAgaZlNWbEStCMUlVBpqp0nZRpyoAnWNrACUlWVlQJQAnudLGBKZeUN42IBSdJpQBQAlWVUAFJVjZUHKgDOdZsoBKJqpbxUTAJVkUaYARnG8WVAlFpVKk6IwJSdJ2G86AQLLRtPIAzFJ1AAI2iV1nUoAABjQAAAMAAAqGs0RGgyaCFcVE2CWglTFTJpCxTAt52JaRPm7ZmbiGhBjWSpljMhPeNGzKNrIZrChswG5mR819E+qYUhuR0E0WUg3hYOlxZUkBbmoVU0Uk0ONKFSQUk5HQ5hUmhX5qlCbjctTq7m5dmABKzYsy7EJOsa03lyue52VEQwROsqU2iVypKywiViCdJUs0IgzrIbxoaAJ7mVEKwSTrGtMRK41lZV5coAZy1ZQTUTyTtGqNApKkkq8tWIFjWEsIVoCVZUTQhTG5prWNAgFnWTeWg0mYrKgwAjWRYWpQAEwQAAAwAAAKjSdE0AABG0qjAUGklWVRgKsbyi3OgAKSrFLCagAsbwlAFACO87RgKZ0iVZVRgSrFJ0qTojAVTpJKgKJhjG8JZgomEqxsgApjeRUnRAZLmdZ2UGKhiSpOojRLmdZWUNEuTQk1ooVCJPaJ6VKwbcs8WnZpbcTKIhRUrBtxOfRKmUImqquehQwUCeLzMvWyaqiebYEUCaqHNQqSKhKfTEZRklZESiEqhNVRDZUiWRKfTECrJKyIqqMujJKqI6dCRUJY6JmHRknUI5tkyVCRVENuhJ0CeLTK6zpQCAEAAADEDABMqO8iVEDEErQqbeWNCJWjYYgMvIqRqMQpKkks8aGICW5lxAwRLeNGxCtCSVo1NCFMawKsqIwFI1ilxCsQZxuaXaaiaI3hZGArnuY6TojE5VKsrLASgBG8a2MRKSrKywEomjJnVm01AmidZ0AGqnSdlROUTROsqogFJ0lZYCUAJUlWxgSk94TWs6AEE94qgyVAEqyrYAQRtGqsIAFmBZsCUTVTrGyACqVZJRgoAYzrKVAlE1UqyqjAVTpJN6zoAa4zvKbGKk0k6yqAApWiWedKAQACAAAABgCGqnOmEWpdZJ1Dn2UMFQkWRz0KEioSVsktlCJVE59EgKMkaDGbzGY6SJZHOb0YKhEtk56JGnLrIZ6JktuhIqEp9EhqqJm9Es1iUc+gwURzVVSb0Gc0yY0QOobXM6xSwMACVZUNGXDlrFXMqNmGZ1h1UmFM5QVhsoSZuZkuTCiwQqw3VCZFJPFXJhQmCrz0KE0VmYLOTKEw3MyXJhRYQV59lSQUk5nQ5BUixk2WJBXOEFeahUkFJGDocQspo0ph0OIVUwVufZUmFJGC2o6KE2NZRYmFMpGax2UMBqW5lxaUAgAEADTAQMAEypYplJ7zM6tHMbtx9RUAE0SrKoALOOuZOm/N0HN0S0QWmLpnU819MTtlWBjq4keigWTTSiBTOsHPidE6aHKvXjWTNZVQAVSrFK83Sl5urm6jHD3cBXp5u4YBGsrJlayuIY2dE64Tpy/Nl9COuazt1wWl6sz5Tqry4s7NQvLDUKWV35/fKt83QY1nVjQ4E8maToIaVz3OyrCUTROk6WJolcqxsuhSsBJVjYAAnSZvWdAAZzrNUAlSaMUlSxgocaxq5nUABNrVMalWdYrNZWQTDM6xKjBDS4QkoJygFk6ToA0pOk00xiNBPO8GmbMKuSO1QmbZjFpFmmoBAAIAAAaYAABU86klkgrMDFJh0E0VJhm3NUoTDeEjPRzUKLCKReCzkjcOfpOrltMw7MoTBOYXJornAcvRmhTKCmFkLc1jZgXUKRTohQWVkGp6mnS5s2YRi3PY0IWVHhGlU1CwpydUkVmzK2ELRuAyWcumFk+tOWdZUJ7hewBRrOsmaSqACqdJ2VaJWhGKSpYASuNZWWAgAIWlUaeR41iqvLhiBZ1mqIIMtE6TrSbIzK0qpoIACesbp43mXLZUrxsgBKpVjZYEqBklpJtacuRqpUnRGMFikzaANJmM6Q6Z0PLRGs6DBhG0SzTUBwgBDQAA0DAACsyrNKNsyaCRpGxsyaRGsrCNIzmmSdMVMraXE7yR6NmHoMStIoaZhbFgbSaWxcKiSNMWMmxZ4vgjRVSb2LOXRFNG2Te2SxbA3tk1VHPadyZUJ4vgnsoTKhLF5jKBMoHPRWJFQljoiaKETVSuWjoTVgiVRLToSKhHF8AVCaqjnoqkioSx0SGUZIqjn26EioQXRIHQiZUI5qVkqRJVVc9ShMoE59EhqpEnsqGnswURhUyRrmhltCnTBsAARkA2IGhGKT0bMg8PJsSNk2NJFjAUWEFI7NuYblrJdpqDIQ0IAAAaYAAAZnWNl2hWAmM6yVaBoCFo2GAonlMVlQYJSdJprWNgAKNolxNQEYzrKVAUTyk7QsaAUxrJisaoxCkbRSwmrAMzpJLsFEwheF0YEpjc6KTojAVTpJLAAASrGwwJSNZWWAlARKsqWaEQJ5FSdKAJVOk7KgSiaJWjaxAQSrKqsIE0SrKoNMU6yqjTgAXA1ZsCUTSYpKoAClWVVAgAJ7xumBBnWTFJWpDUpG0bKtMQ0YANg1SaSVZVGAKVZFGmABgA2MEtZMUnUQwUbxKsFYEAAk0AANMAAAFC/PZcnM6HHRrDwdBhFFlE7w2VJornKFSOzZNFcYDe47NrAbluZZzChMHnKLmEUWAxeGypMKZyhUjsoSCksMtqYUJi6w8pdyFqsCZrDZUwlpnKTVIbKOLKS1g6CYbMBm3PsqSCsso6CZFCapV56FDAbysmqQ2UJhSZg6CaKLBCrDdUJMpJyOkmRQkCtzVqhMKSczoJuKEwZh1UmoqsAqwpWzBGpblVzJGjIZ3LdbEQ8iMWhWtJKHKkquZYCRl5CogaSMVjU0ZBypIq8M0IMgipkNZEYtGoxA41iW1nQASgAkwQANMAAApRtJN8PdwHT0QuGDJcxQSYsaTomgFSeUxSNgm4rzd/JtOnfL1ACUlWSVAEZDM85OwhtaKVDFeSyWEK8x2ZrHSUnOq4dPNT0tcXarAMzpBOh8Gl7SEitObmT1cxjL2Lm3VWuRO7U+ZezPB3pYBVnWYleGLOoyRHYVUMy6ULk6c9bNvm6YeHApWLKgKp0xZQCUWZG6S3ZoxSFKsioCoEmKw6BDDOKTqg4RYnMKcffQtqMjCNeL0KwbInO8a2bImUKhooYVQkrZIUWzKrkgTuMoySsiBsMqyJG0T2bJm0Zx0TMOqJ61oiURLU+kwVRDeLk3UJYvIrrOgAlABJoAAYAAAFEbQSvH2TK83TE5n15KUQAIlSezXNea15eqScXfDoOWXVpcw7cJx98rDQKSpJLCDOo1OKyoTrtHB34oefjuCm014unSOTrnROR2ZqVpGbqS9DnsUazSeugVSuER1SeOgWebYIK9Eyt6XlqxKoIM6ysI3rYKmY1G0qrnWYh0Y0TlWhwejy9S8b6pJLVKjAVTpOyoEvJum0lz9NCHRjYpViWAVLQcN3VJu01lquE2ls4l0Im7wM9nP0HBDr2R7+e4AlUazso1COlcXQOk6UAoedZXiU+2yvPbll6CsrLAKJomnzIkWNY6JnD6HP0HD242Q1O5nGbnPi2ykOjnJdm5kOri6hW5OsfOc56EqTKazoAJQASaAAYmAAAxc3Tz2aVWRdQjPpkaKskrI53vRN1CRVHPt0JqwRz0YI71QirojjpkBRkSyIK2RFQkVDmo9mCoSVskNOpEsiWOiRnHTokWCM+jAFgi6hzVKEyoSzbJKjoSKhLNsmSoTVQ5qFSZQMTvMHQJqoc0euhyXqieL4Ma2yZQJYvgChE1VENvdTewnPomDbEaCVM0MmiMzrOtsQxEZeWbMobm6KS2aMA5bwV46AdOAW5MrnIaWAVJUDGkUlqZ0Ewopgua4WckWUgKQ0UJMplIqTZty0aykXzhktnCW7eToJ2xgvPk6S2sbACUBAmCaBgAAMQELwsuAoAKdYpcAAFmwTYCiaJVlVGCUzrKZpKoAKo2ilnlqAGcawlhNQAlSVUbQpnWSdo2QTFUbRSus6UAMzpNLiagBKsqowFMbwFJ0QAlWKTsoBKAEqyrYwIJUnVQFACdJ0QGlMbmm9ZYASrG8WUAlE0mKTpQBCnSdUYSsAnWVbACVTpOzYAAGXnQwIQmYpKtAAsbmUAgAJ7xumBCWksqytYhqCVZVRgIYTWkbAUzpJKmNDBixTA2aJ7TFneTYwzmgQpnYjQYxaZrWNjEKADQQgBgAAAAc/Rz2Xc2bMM1LUzoMBswAsouYDRlGLQobMBvKyFIbKOQUjqRdyCpINzJnS4sqSApz7LkQrnCC3LUqSCkdROlwC5EKYUzrfHUuQYW5qFiGiuM5KU59lSTKTWDoJBZTQW5qlCeS0lk6CYUcgK89ChMKTJl3MKEw1lIsTcbWUFI7rZkhz3OrPJGhFuKxqjEKSpNKCBiIy86rQiEPJi0ajEBOkqq0QAE941WgUPOs1O0ajEQSpKqtA0C5y0mmkugEm86NPOhz3g1rOjLQCSLAACJ7xo0AGN4FSVQAUBDAkTBQAAAAFDohY4dcjNZdJOfRE2t4Ofp4vRIqmTSoEyiIbzQRLoXGa4Se81Mmwni0TTNGCcDqxWZQ0GTSJbyxbxsE0uKyuiWkKNomnjB0Oe1XJTlS3dDC9LzMe54TXTGyrG5G9xqaGQpVxZo0pSeuQl6fF22HP0ckWKyqrTgTyYryXqg5m57gXJkUCJQTqVJ3gzsJbzSsmgxi0ShsMmgjTNTCoE53mCpkyFCSezJQJ5siGyhMqEp9EhmtkigQetGCoRKo59lSZUJT6JDNhg2ieaZGkxtMnTGhgBnWR7xoE0JawVeQ0khPDNvKN5QKsbDElZlFAIAAAAAAA5+iFleTr5Td3Mjrm6ScrM3Ls5h01ksAqAI7xlM9E+c6nxdpisqGhCkbRTCkyfZLqISNleW+jl6AXDmJ2cl4r1AErwsjTS5jaSYx0ixXRkhPo0md0a8eurJNaom5VyuCsjhrrrTYBmdZFeXqnHNi9iWLWrE6ONxtGrCYRsHFdXFHoDnz0zJW04xzdkyVsupbWo5+zFCdJVoAlOTr5bOvnupcPbObplawAlU6SspzdKiVkHH1c3QU59QHaNiFObVWpJRZb56rY5i7hoEg6AJTOspPcuWvRRxL0qGk6mmCaXGKcqLr4w7SdDlUuwo+OxXCgdFeDsNpA57iXedAmibEbABPJOsKGlnK6WVHUAAAAAAAARtKxrGiriFY6idOpBUkFJrJcmipMMoZuegNYQUhQoTDeDIw0N5BZ1gq8g0BhjHigACyrOiCYKdZGjTMmwni2DT2yZQOapUmVCWbzMb1omVRLF8DKBMoHPXNTBsMyvM0bDDYSpnYhgp1kUBBAsGNaDWVG1NirLVbMEaluddJgNmGZpHZswGpvBYwjZMGs5MdU2UWAzueiiwG8GDokwztBz1GWMBvKRjWKG1kMKkyryGjIpz3mkd9AA0c3TPZzY7QjHsyc98UOXrzsjydcDqrjQxBhPJUSHgyT3HZrKzLrOcnpCYAAAAAABKs7Ck6iGKpVklNJqAGZ0mlQFACes6TQCpaySrKyACk6TR7xsAFzK0ksAomibTKCYlpErRsgAqlWKU1nSgBmdMJcBQAlaNkAakqzTWs6AAWN4KgAmidZVAAJ0kWAABZVlVABVKskqBDELlp2MTlS1hFSVQaaqVZJZpqJhGs6WAgc94NgAAYEFEyEASrOhnSYSrKqA4yNVhjGaRnNERpmphURjFpiKBJ7ZLNsAVCRUOfZQmUCaqiOnsm9slm8wN6JFURzbAlVEVXJz7wxZJyvOUeywAAAAAAAJ0xZm0LDEKRtFK6xoZlqp7klxNQEYaabEK8vJK/PZNCFJ7mmtyoaMg40mWeA0kGHkLPAu8iJ2hVNrIrluaV1LRswDnqZ0uTKEwzbmqVMBubmW1LRswGsGDoMBoyGa89TZkNS3IuINJBO0KmjIOVJFhEMQZ1jVDRGstE642MBSVZJZ5atBWN42iTAxuZQAADABsRAATpKtJpwo2jVmnBloxrLrSaXSaSVoWBaypnU0oAo8sU6SSzzpRNJKsqgtZGmE6Y2JphOkimssYgzjcyiaM4eIiIMzphcJ5j3AKEAwAAAAMbzXPWd0wbZOd5ietkioSl0yG9smUCJRGSoRV0ctSpIsEc9EyW3UiWCM+mQiwRKhAoGXUJFUc9FYmVFjjokie9EyoRzbBp7DBREK5qZNi4neSPRoyaDGaZGbDCoiW81MGwxi0xlAmURCmbEzYTxeQygTKBDToTzYiRRVPToTKBOXRIb2zBsI7VCZQJ4tMCgTNhJUQGgy2iVMbAQOe8FHgNrIBlFjAbWUYvz7KqYUmZKuOjTmFI6mX1FlVhD3JlSYUWEOkNlCYbmZK6joosBqbwVWchN4iTwwy8y4Tye6BSGAAAAABnWalfnujAUnSaPcqgAqlWKWaagBhPJUCECqNo2RgKY1lFWNRoFUqxSwCiYTASgNUmiN4WTQmqjaSa3jYwFzjeEs0K0BK0bIwFI1klWmAAsayVEAmido1GAEqTLCAAJWhYAAlWJYCABZVlWwAlM6yi3jdAEpKs7KPLlYFTpOiACkqySgAAGADQECaMUlWgFBOk6oAAC5zrKUAUBE6TogAqxSaPedKhhnFJJUGCYTaZoYLO0T3igjQYxXBnS2JbRidojTyYxvEQTwPIpRAe6BQAAAAAACaqF4UTbmLSZhHXmqVJM1CkTqcQqSDeM4OoiFlIFTn2XIhXOEary1KkkVhqR1EQspBowi7kFc4Qrc9CpNFJPBXcdFCYaw8HQYZpJGL89ShNm46wWeA2YBrKLkwosILc+ypMKR1g6CTKE0K3NUoSCknM6CYUcmKnPQqTCmFgpuLKkmbwslybKGAVI7NmQc9zKmQ0IMiDYiGIJ1hagFDlSVVeRdJAsvKVeRdJIxWNE0ZauesJrcqDEKSrJKtAwRhpmxMEBOkqDADG8GaT2MQKNYjxrELDkuJvBoFACPfE6QAwAAAAE1XNTN0kVCebYI2xYwbDE7wNt6MPQuMUmlBi5NBCsqo2xVimDFZWQTFUbRSrTVDRhNJRgomiN42QYKRtJNbxsAa5xuaWaaiaJWjZBoVxrJKtNQAwAmwIE0YrKtAAsbmVAGgJVnQAIJUlVWEACypOtgApnWEes6AAWN4KAxDCW87MmgzO0xqgTNhJURl0CebI59lSRUJT6JmTeiRUI46MGSwSKo59lDCoE1tGdGhNMJ7wUeWaMghIo8M0kjNJsoYDWTIblo2s5NS1I3jOIciSrKDYKAEe+06QAxAxMAATVc/Rz3RgK8aySvC6ACkLRSm8aGCVSrJLNErQqlSekqIleXmsW57oxEpGsbLPLVoRnOspYQrQErRqmhCuNJpvc9GnkUnrCXeRdJBO0LIxCuNoJd4a6Moy8NKvDl0kkVY1piIJ0lVgATROsbACglWVVaIaAlaNaYEE6TNazqgAU6SKtOACsbnQAIU6yqoEIAymq2BAmiNZWoBKSpNN6TUQBOk0qJqZ1klSVE2AqzrKG8bBgqnSaUaYIDKaNtMQBPc6DAFnWTO5VDOsmZViLGsxOdJSznSVUEQAj39BSAGAJgJgCAhYLABXkEjcAAVSBN7AECkQSwCiAmwSgCmQJXBEArgCVYCAXOQSgCtASqCDAWAHoBgLmYJZgoASuCJgpEEowVMEmwKAAgMVAYEKYVYAACVQACFIKqBAASsFAEGAHoBgCiFWYQAE6BQBBIKqBCAMgVoCDIE6hQgXOASjBUALAJUBTIEtgmwFMgi2AwFUwSjAQBlAbAAAlQBgGcgTqA8hGYgZyBOQSzkFbQQ0B/8QAAv/aAAwDAQACAAMAAAAhK++KDVWOQ+9X+s+6dKCXG6heQtWFS+5SEVsI9A8IwBQwJNdJg5hl5R1hBpxRx11hBpBxN8pMJJM1Rw1wgdwJldpx1lBpVZRVZ2+K2SSCTbhIaWVdzhF5195VwA5AQBEMVGh0sNYo5M8oAdOMl8sCCpCWdCS6UBqWIApwU00pBA5AUd0ZU4Ew8h8V88d+IE6dOIV+8a2uWWGKG40PXHV7Gy0+Mqe52BFiJlisxQppcBVsjdFF99hxRtB5wd5M5uB0WB+VJBpBN981RENAA9wlZgQA4989QwJwg5o5sEV2tG++ae+qSH3ZFvhLC8SuMOO9+GlGYgS0KK5uClYshc4cs5eMpWueuLKGhW9++3y7F8NogBgFgkp4o1sB48xUMNYtYAZ+s9t9R995NG++KqqWupJxd5FxXFFttRNdVpV9tVp1gsBMFJ4c985V8F4wla6eq1Ga9WlCajyaDK9qikMoAQJ88UoUISty+p+ZQ+5O6T+VcyVKBKy+qqqW21evJ+/LCmqCpiC5KSFAoJANswVEshQwVNFFYB5BRcJ5o5b791hFT17DTPZBJJBdhRF1ZhRZth5dZ5NxIV51tlrJ5tZRhCCeKGqeC1ylpKztKHEeROKpGeowkFMhwwtQgJIEh8gQAFQ0RuUmCJ+uYCECWS+iWeDCWBA5AABCl98oCupeQRClquJuctGJQO9m5Ou+mWGWG1jstuJ9/V9l91Bt91xtFBUFdFpZl9N9lRtRxdAQ54IqGx+2sO/KOX+yeGpCa9+lAOFMMYwIO+t+AxKZ+2lCmpC1AkNalm62yWWSSdOqF22FOY0C9e+1CuF0o1cpQQhkM5M5hEwIQhosh9dxBV9Npj9x1ptBZx9V7ttzRVtBd15RttttZJhNJxp5xtN5tFR9ZuO+WCWW+ZBBl5hR0Rtkpco5YsJQ4d8RRANQ0ZcR74sxcFQQBCInS1qWoCpCCriTqA9CCR+dsI1AQtc4ieFO4YWdIEYC55+pKB58JGe+qee2q9y1RMQd2JtoVwBR9JpBxFx9xxnN5bdVBxpB9n5RXdxRxx59NNpNdFLBldV9tV9RJN9N9NtNJZNZRZxJRVdw5xJdbj9UZe++qGqWq5KWt+u5+xk+dAENUsBAkZAJBAtscfc0ZAVxQtQ8NAI3uFSiTGp+Pz2/Xo1Tn5N1RttIVN8tAA9oFp5VZhJIN9lJp91hRGy+qWCeqphJB9t1kZhdvRNJBR35tZwZB9Xcs7VUpI0hMJYMtK02+dGGjq9qulSHCC1CXtKRueZK508pWao6VYq1SWRe1TWRwxJMBPKC2WaqEx2oV6Ul+4gUTY8xMEpAp9sZxB7d8Z1h5JlhZ5tN5thCVVhBdR1N7NN9dBAd5pJJxNBddtdZB5BkJBUNl5lll53ppxVx4UyCfWqCgtQ1ZgAV+0Nk5o4hwUxI0R84xRtoE5oQ8+QQ0NQcxa82qhOG7q9q6JCVqCVCPL+T+qjCFS+5u4QMUEKtWwVuV1pJd959AKCCm+6CIZBRdtZ5lRV1HFVJZpx1pNpZfRVVdGp1lVJ5NVN1hPJqOhuTh2N/n1mFOK1DzHbf+jFOZuy94khQRUMlU4xIhBJxdhhxoaCS++iCoBdt18h1A5d8Fc8B8sxsY1Og1ApEY9AYJEYtS1wJdy9iDdzvNKdLHtLFDV8BV5VhNZ89VJ1FdJB1VRVxpNRtR1hR99wtYoCG2+OCQ0RxOpBRBtdopZxR1h18J1Mo1wJEIkgQlwUxKxCilOpCWdX/AN+kSlg/rQgnQmwx3cqtb1YwofuAQIdKNVgNRLXeMcPQfYSAgtvvgtFtYSjVRbaQTU1TemdWrdbSZXzf0eSrRY6fdXJUWZW4V+/DXZCbTX5QyPQSBVHbfecRBZISXfXX6bbVWYeZcSUfabUdcZWAgvqjgkEodRQVdfHYaYUefffPXPKXOKaLTMKCKAwPIXkUgpfgdhlU692hYlvRhXr8++6w7Qsnd1Sx3cpFWbUYBerVdHfcYcZQVXAErvvqggH/AGmTX3zmk3Fm3VrFm7V2V22kD1RxkGXuCWFA2kW1JU4Ln8NuJWZ50Jmeude089F9u2f1ONVbiG6UTCVqj3UEmVWkmVlFTq7b64IQ6kFkmEkX1kTVGErljZz1kDDOA32mml2PUV/H501nHUdFBGlCFlEEw0QkVS2RfNgM222BOkhWXiUg0WAFHTGgVHZ0Vy3jzLb76oJbaQH20nXiWUQFnFBiTVTUUAg0zFwAWRBVIT0D3310IkIaw+8kJUJKn/2Nf+uGtLEJcsP3/wDgDXZ2Qp1QYp9BZFNBxhB1y0CCW+qG+S1pWFVlFVT1vLdihJOxx3dlZJuhszkVX0tBFyJxEJIfxMhNd9BF/wAOUO74fdOw8A35T9d/wA06X6AdZEbfTRUccTXYXRKQgkvqlvGXXVeeMQOWfKSRCXceeECXNJbJeHKUOCVpLQMQNpawRimXy5zoQjne/wDZdv8At3jZPb5rkH9YZxgV1ZBEVd91xlhoQo0t8pWCW+iW8CVhBFlJIhxUpJYFpNzBRlg8lF58IdwglAAZ45TWd/dvffO3XqVCr/bDe+ruT7nbjrPmZTvozWZyRUU9JxtpVhlR51ZJIpCCe+Ke6G9J+JBrttVVV5VxJ1rNdmlRZ1ttVDxplBdpVY9J9dIBdZVdtd1DTUtgVd970lD/AI/QIfDdVOcQRVEUeNbdeeWTfWdIPQCUhurgtjgVPJfaIYFPRLSRPTLCXICbMIeFaENXPNQCIUsfutQyVPNdLbflfv1Q6bgiQqffSayyQbX/AOkuLnc2XHEx2VWnmUEXHW310zwr4Lb5A3kB2F022H2FGEXX1720o33j3VmW033VWmnnjUHTWRGGn2zH3Fs8UOGcCkDW0/m+OcOGPPWdWgM2VxmBF3l3EGXWVXEHnASOIL76ClWn3F1HF3AVVGX32lHWV3zlV2mDVTzmQxzpHb5Xv2MfnEH/APtLb9NBFJxZd9BQBRcROIJMBpeR1F18l9gd7hlNhU+lJ5M8CCGS6Rhl9JpVAoBpVVMVl5ZVo9I8tQRI4RUchcsZhhfLpLF951xZjD9Pbd+Vae5itrPrfDlbldVdCXNw9pUllhop9ldtpRltFJEmCCCyyRAlmldI1FnttZNp1ppt9hlotdt1hTtJzxllV8d5+dKBtkB0FxJ3fk7lFJUp4B9EU4g1IFhVBVRdd18dxVNZRZlB194VZJWUKCCS+5RwJgA98oBAkR8VBsxUAwIwhIlo85UoB4RttRBVqdMBAhA9/OR6jzq/CS9pB9JZTrrjRz5FlZFRp9to15o15atwKE0Ahpg5iCCCSxhMxpINQk5AEtw15FZtR9EQJc5JR2tNfR9tdFBhO9E1dkN9f/l/L3y3OYV9s1hBPrJDJDLB8tFktkMp4hp15t9llNtpP3wHCeCCOQaJN9pUptBNRhBFJJRxJxllRApRRrll1wx9dVhxK1UhFINkld4bFZBV9JN5ux9UAh09opxFBxtNBJxV1FAtN5JoBRRl7DinCyCCCAOQVJARoAsCs5wJtcBUQpw4tI51UxEY1AZRxdN9t1cN9t9RX+p+71+BOoV4U9pg/wD3R8feAfLBYJZKBWXXcUfYedVVad6+04gggjhNJDVydBfXyQVRaWZQjTYZXahb275mdciS1dXtPCjViRajeNYWBXZSYHRZQcLQaP66NxbGKbHISDaRFZZeTSXfcZaUXxFJ5+vggggMvTbDRafDTOPYFCXDRJOZDBbEaeBaFBbHQAId/wCkG30nXM2MLHy023nmGl1Sk1SVlCkk139kG1m33mzkHClHbnUQSQ4CCedL44oIS/RiHhGXTGYQ0YQnb0BTFTiHB2WxmRhXzUwy2IckPTHXkfG9u1NPn2X9EX/QP80MNmwHxxUhRkQ12D2l3imnnHkkUUsdUveL4KKJ4HwHyCGFx1wD0ByHx0GCHxyGGGEALzyGAHyF12EEP0EEAOH/APh/D/DdjD8/cD/BDff89889AcBch9Ahh9g9hhB9dfD/AH3X3//EAAL/2gAMAwEAAgADAAAAEGhqnv8AvIazLHvJTaY0gKua5WKS1aWaK/6xcxy0xpACdxCPF/vCdHE82l20oEE8+4MPMvOcL+D2ejc/yODRdZOEM/ftFF8H0GEl66Z64ZYNh933mYEN2WHPXlGCgXRTejjVrUxhuQgECCTgvKTcDwoIUJYn6pJRWoIACjBTTQX0jXTj/DUDSwzRsiOjxErjAZHKS06TLbIL5J4Zt36Z+l875zrQJLU4Flp2GqgMiUWActIHVdNffducNfODDEi1a1hoXZG03Yk33yCGAshBfxGXQZzysStSzcQg1h1zSPYW76oqqqJbQo1xAVfLR5I0bI1Ir2YhS+A6NmZ5MRS8KazhfIxkLpIIsK4Vrm5K9bfHBGxiEguxDcjznDvjh+hiPj8ACDIT3lXkt8Wib/6IYLbr7WsqS32enkXdEGG10n1nH3P6quosuwK9wsOxtiSs66oKnr6m6EJouJa/a0qKjBzwA2gARQCxYMbokY2QbX6ae7my5XbUjLqoYoqJV48zJNObao4l77nbJkBRWz1xAPjBexgs/wDbUT/XLQzFsz/XAhM5r5Hr/wD/AHGVP/4N9MdO8nNlFMnVu0cj2wl1jshFmHGsIJ4qaK4Y45mD4ugYsgJlbqWZrgBxmy9jzuRgdyQOBgTzuxxM4TL5lbpAZQJK6ZpZ5c56kB3hSEKH2jx5rGIjkI/Y60owErlAJNb06744q6pZ5O7M40w+Hu8Yk0ekllFOuIZqqYOs6uepUdPMYQC9wD6rUaKQ6MpptJZIaHKrnJ3g50xTAxQI4E4zEbso4UZpnJWBTdYybrYYLa7ZIKoVLoU4jj7PYLkLo1QwdwOgbXDA8BF9i6oAsjDaHOj14XkWu1FUlVXHHIVvunA/cLOOseuV3e+dpPYvP7XGLlJk0JmYY75bZK74omXLnEkydGylQzVzTmRQsBsPYcgTLB2VSYuiujT8LhsI0o7z736oe7v6jHILm7dDRUBQUzTLbGYDgYtixgJm2LmJUYTGZ76obbaopKXgQCcbGdy+zlo2ELeuN86LGQvOg/PJm8tmTUcD8JzHJmEUXJEEDeCVFLGloGLsHIG/tssWXc2dvmLFXsxFEGju/RDHr74pKr7o4771KIlbXBrsAS5QT9wynw2NBKRhzTS9xV0Q9Dz9SCdJm77d7m5O7qcsAQPeH36lHSh02CPyANRe/lD2kHgUIiDFi4PdqIIKIaIKL3XQ1MOrtudCP+7csxPcLTdJFi5AzURkTbeAexANrDIbX5o+rWZL26ta5QLMQq5qZkL1jyOpIzIlgrUbIlK2vbTjGEyn976J45axoZjwahlYygRiCxEBzDDHPTft9RXwJOkc+fqcfcP5XVpWbV2Y3gXOjBDWz+iC4FYGFZ3Yf0c1l8Y+vppnFbu+BJyQRL4MxpLf6r4gpwm1TwH7g0xKCxwzx4wx3wzs0sCTLiB67QAhuxxmpB742pROZGK4kIFaIwJsP7f4Yd5lq61ISxRxzZE5SFImB2DVmE1MqIILbp6C502IE3fPfNfxc9Yst4e898+ydbuMUmksNdecae+pvGobTadnqD/fSInSYwOOJcb4fj7Ur4khQVi3DB0hC/SVwVrG0bFNo5L77LZBIXkITXUAkkDMiTnyjpxB3JA/g9hR6RA8himJlzVTI1KNROdTrRuORuT+W+GRoQJyjPG5EXJVdKf71kq00NtxTAb7yOzuiIYpY4LCcEX0FXImvty6EF4lU4yXdCzfDNCRfjTsRwEpPJqE6mpZhdOfqkoYP6D4rwI4ocDKIhOmMKxbB3gnSgupAkgWVjLDkL34goI474rQkpI3zKK0I6cQ74nrDV+ZZtcTsxPe1s/QeeJgYjFItB+e9hg3hbH/AAbJd8N85GaaMQXw/IMSJBc96XzutdGp8q5od8qEoYGuOKOiQtRJCBV28nth451ipU+YQ5kE30LIUogcRks/aDWSRyNamg7THmNiW1Cwejm3yrD4CitDQPLVispV01kSOB1kOqWeOCiybIuSqyqCM4NVn9lPn7m/eKuZrHhPDeldKAecwO5Bkk77UWJJYKFC24TzWqBuqV6EfDOvYOPkbTpTsHfAukVSPMs+aMwFSUxK1J+VIgKS2OuW4BL725FGlXuwmrBV50JcP/8AANft+fcr9zK2xNzTqik5g2UQKCcPtTTcG6AEcH5suQnFkP0pMoHN5O8Dl0rrzq8srXip5PyMpvvqlqhYMcpWVtJbhA1+Q/DFsNZ4HJzB1MI8OA5vFQAvafAjVtpQ4+avPrqPwI1wq5CrpLizgzP7za0+NlzZR6DVIdvKflZcuVdAgnnqmggUptRitpR/OjLFtboqTwgPW1o6e0qPv2Mqyp9SKByM6yb/ACSTwYXOUzXL4zTPp63M/AJyo5nIsYecmm+EkAmby0wUg7U+kIbLaqrQrgGrlAcy0uQoczO227SgKwCKD4gCcQyOKg2TsBqRdgQSW86/J24Kj9Yier8QdeUN7DN3rB9TTc+b9Yvo6YzqKR+MWOIu2qqZaIpAFznIkGdglZjOPQxF8jUlIDhombzBYwweSDdB7tbAdBcOpK8fJXJdZ86bL9a79vMPsM4jMv3vaD68ShIEnq2G8i7SW6RPX7pYY7bpVqaGJZB8f8vbKeYY7zesUu/b+bvvhfeKMuIOfgl4yudOaWzQkw/5ew2VUDP0hI46xEjkBAdADb7ejz+VDBiCJiJBNL5f245oZZ44bQy5VTNzi0TnXjwzh4BhOyj9A5CBNijvSCEaT6rwMygwHS8X5XJcj/yY6mpf3lj9t7GifvSdrgdKGlbRVBHpaRIgzTLLQyA74Z7peFGulW7mWYkFKXLMeW5+E3U/2K8kJ+uLn+5t/VUPgGiT6BcwFA/ZSbAPQKBpzNhsMo+Qe+xfGc+zXh7S1LEACEoF06mQoiROJIIKOoTJoKZ2UIAW+m0qD72EL1xp3V0TGDgoQ5bZH65Gdhc+inhvuDNoy3jkW6WLSwv7I+LnnTMBhWI546NaqP6wYYLId2YI4Qx4Zq4Zfa26l1LDg7XEcgX8nYGQGCj+Q1iBPhxIiYV0+9vofhmlEGSsujPMjbHZZ174+MaMfBOoXXT4fsjrUTAHXv2qRFZgUJ00KBrJL444+sYF65+6vjt4q+bp/wC2C6doz9mffErXkXvO2bCAJuFQcLIjYEcO+xe0B1XU/gkP57XKvwQCAaW921suNp+lPO8C4tng5MY7KCmOCDrQvsM6EcP8oz8p1UAAEAc4L0PUgTY8j4TZRq9RFhjBAto+XOAqmCqDq6q9YBlUTv2nCqMeM6qTGzfzJUrAOJynBzj/APPJ1Ygsvrm5oOgSIqFNyDAwP2uXhabqMM0Aw7UW6/J6kJHvOLQJ8UZyRN/zH1olmonEvTyWQDw/A1Cy5NPf8DUCF7GQPcJMeBafkW4idxnnhsoLc7ks193x4f6jxjl0s8yi+ZoI598F08kI6pFkkFTk8duyY2LS45MAXISdtrfiumZE2M9Hrv4pm2u07hggcNrsn0tPqE4a1/stkthLbKU/K1OHqqEzMSWE9GE2LE2E66LrHEgHxTRjfbmSzeZvbO6krn/flMtKhJwVWY1yJykRM0LOWJYFLmwVBGAEAOtDJC8Rq3gglsuBzE6CYw87Hwwi6jv9f37o36V1JHby+rR3GuoQy5cnSjoDgmID41nPC3JdoR3ZeQyffytFE5DJSHWfIjVRmWbsaXgJIxic0TvhnvqIT3o/RjTKxILwFOUEiFD8OItG7wDzDA7D+GACwwkXvWaDyN6kQAXXTHeMtExMP4EMwUk4UMRnm8mnv8kD+phQqk5WS5gTwZPjigkPODEoDqaHyiLyrDiijFD+PEkK34KmPC8F6BIDu4D56UTJ7I1/I9xYWI7Xq0Yw4P6wjMYHFxFOdHdQCjXR6bXjYknQP7nLzYPnoovovAf/AB6HwOBwNxwLx4GD+ACL16OD0AAAAMCEB3z58L2F+MJ6PwP579x6N/8AhDD8j/8APIYPPXHAHAXQIwfQ/XfwX4v344nH3f/EACgRAAICAgEEAwADAQEBAQAAAAEQABExQSECIDBRYXGBAzJCEkBiIv/aAAgBAgEBPwDsGRDksoZEKGWNvXce61p+kMsYLOBLMs2JctXLhMv4gM4nE1OJxNmcLjw8LiCW+OweXXgEOSuj+M9V1OrpokGdf8Y6ekdQ6rCKGWNypXiMrs14Bgs4CGRNlaLPacM5K9soZD0zr67ddo8vvwCdIB/lA0TB1E9XUCOKM6Ov/nqBq5/OP69Y/wBT+Pno/l6f/mx+IoZDGD/5Cg+GcBbEOZSqVCg9IQrXbsPTPdXYFSp12HxCH+xh6+o5K/k6z1kfAn8XA/lP/wAUjlDIenplnL5QYw9BB+2dIZhytFlDvuaMuX4d91y1cCtXL7LlseHqyZYf/YH8f/IGTZR8Gu+uwB6ekIUMFnAWxDlaLOvpDL0GVosoPTOe3SELPkHh6sss5Qz3a8eu7QdoHLOAhViGcTRlD3OIZxBOFoP9n7P2VKhygHpnKD0zns4XHgqAeHqyyhChlh67igxt6eh2+2cBDIm1osoP14Ch3HJQ7ih5R4epXCZzLhyhLlwPXccoSpQnD1K+RKh0hCDcqVwWcBDIhytFlB6HbpnPboM5QQ7Ch3HtKHh6tfTLOUIcnt13FDu0zplDBZ1LgPIlmWZZqXLhKD9dnHqaxOPU49QkXiceoNqxPXhtE891j1BXpWFYfEFX4Tr6lIs5Q7KXuV2lDIhz267RChtnAQyIVos5Q39PQQy9MobfplBnDOUO0Q9pQ8J19K3cOey4HfHZbuA8iE8oThcUZxOIa4ZzlCqKr5npAciVKlcSpUIlGVn6lGVCDQlGC7lGUZqUZRhBlGDcoyj6lcSjAIZRg2qlSvhVKg7K8I8PVr6Z0zlCFDL0XplnKG/p6LOvpnKGCzgIZD0WUNvQQyrl8Mob8GjL7BDLnuXLVomXLdy5fhOA9BmUtrpHPbRmgzqczmHKD0WdfSEOUMFnAQzCtFnKG2dfSGXr9ZQ2zpDT0fAO0Q948JwGcBllA8PR7ihDlCWZZnNFnTOVeZfwJY9TjjicepsTj1OJxRZqzOINyxOJxxLEFXDUFTipxOJxOIK5nE4nHE4nE4nE0ZxOPIVXm0GcBlnPbovTLKD0X1IMbZ0hkPTOShgs6QyHoM5Wizr6Qeu0ZHhPePDoPQ8AXE4p6nHeJ+ypXBZlIg3KgB5lSocCVBkPTOShgs6+l05egzlaLOvpDL0yhkdx14Chma8GmcDwB6L0yzlB6LOkIclDbOBLMGQrMs0zlDBVmGXAeVcvgS5cJV8S5cJPH1L+IDyJfxL+JqXLly/iA8y/iX8S/iX2/nb+IZ8OmcD7Z0hChnu0zpnJQeizpCHJQwWdIZD1+s5QwWdfSGWcBDIhWizpDL0zlDL14yhnwjH7Llw4/VcOpaJly5cuW9S/hFA/EJFniWPUBHqWPUsepYoziWPUNccThGrM4gqjOJxDXEoe4KsShOPc4/5/ZxKENWgM8sjH0hKlSuBzKgHIlSpXEqUYRKMAlSpXEqUYQZRgBuUZU0yGe8Z8Oj9vTOB4A/8AP6yzlDL0WcBDMOShgs6Qy9M5K0WdIPQQyHpnKDOGcoZepfguXOZZl+H/ACft6ZwJRlQiUYAbEINyjBKMoyjUqVDgMjkoZeizgIQjkoYLOvpDL0zkrRZXS9BDIev1nKGWcBnKD14z4x/UvRegyhDlB/5/VcOAyTcswZYwZZlmEmhLRPJlwE0ZZlmEnj6lwHkS5Zl8CWUcmXL4MtFAy5YmhLHqAixxOPU4gqsTj1OPUNTiAi5csTih9zicQkXOIKucLS/Ya9yh7lD3OPc49z9nHucSkBD4BgvRegyhkQ5Qf+SzgM5QyHos4CEOShgs6+l05D/yGclDBZyht6CGQ9M5QZwH1IPXg0yunf14RgylovQZlQQuvlaK/YcBnMqDLGDKR1OEclDBX7DrnUr5E6c5lfM4mgzkypXBlSoRzKgGZUqaEqAc4f8AmUZRhBuUYGcD7Zyhn8L1+sodxXTv68IwWMF6HgGXovQZQyGMFk8CXAYcmXBgs6+kMvSGYclaLOUNvQQz3GWYCZZlwk0PuWZcJlwS5ZlmpZlmEq4VpXCh4Rv6ei9MoQ9unoMoZDGCzgM5K0WdfSGXp7WmcoPSGe4oM4D6soPTPgKHh6d/TvLvjuJl/DuaegzlDK/IDweJfxLexDky5oy5fxCZfxBmfk/Jqcep+T8nE4qcI1c4nHM4nE4nEFXOJxOKnE49w1c49wUv2VwOZXzKhCCqalGUVRlGcyjKNSjKMKrwjLG/p6fplBjBegzlDIYwWcBCHJQwWcj6Qz2iHMM0zlDbKGXplDLOAzlB6/8AN05Y39OuH6ZBVSpSqUZpnKGQxgypRh0hkQ5MoyuDKMqESjAJSrCA5EqVNSjCIcobZQy9frKGWcPqyhl68ohyfAMiWh4ShD23wyg/b0EIUMFlB+lt6VmHJln3ATzLKuXBlWZfCuEy4Mr8mpY9S/iE8ziA8zicTicTicTicdnHucLhHwdORChnu12jPdplDPccBB6LOfxB+kMh6fVkobZQemUHplDuOB4z4BkQ5Qz4KXHuADt4nFMziCrC4gqjOPU4hqhOIMw1OPUBFGcepxDn8QnE4hricQVc4lCalD3KhyZx77ChKlSuJUowiUYA9KjCgxg9oh7T233DIhyUO44ZQhyg9MoZDGCzgIZen1ZQegunIev1nK9s9umUHpmXAeRLMsyzRlq+6/iX8L8Rh7xmdX9ihCgGcMs5QemUMhgcGVKh1Kgy9F9WfxB6H0hl6/Wc9pQy/wDP6yg9MoZD0fGGdQ+Dq/sUJtDtBEJlonl3LgMso6QyISZZgJoyzLMOkHZqWUSblmc8qzDgfUswHmXLMs1+y5c2tFmcQZXE4qWJxDU4gnE49zS/ZXyhlVKlLXZRlSu0+ATqyzkoZ8JygxtnSGRDkoYLOvpDIemcob+mdfS6cwLQ+1uFaLKGX/n9ZQej2jLD12iF2jjw9WfwPqyUMyjKMo0ZRlHsI5XTmVKmpUqHUqCrHMNXKEFUeZx7M4nFD6nEFWOZxOJxWZx7nHuGrzP2DcqV8iEY5GJXyIBzkSvmVK//ACJUqESpXBlIoPX6yhl6PaMseEswma8PVr6lmWYcoZllDB7jlBjDOkMibQwX6+kMs4fVlaLKD/yFubQwZbuBXL4lmXCZcBei+Jx2CnrxGa8J19M5QyxgvTKD0WdIZEOUMFnX0hl6H2+r+xWiyunP4XoLc2h/UsoPX6z26PgDHhK0WO46+mcoZY29M6QemUMiHKGD+M6+kMs4H2tw/wBihgs6+l05P0XoIZhyh/UsoZev1nt14AxjuMMEK0X/AP/EACURAAICAgEEAwEBAQEAAAAAAAABEBExQSECIDBRQmFxgTIiQP/aAAgBAwEBPwDseGLC7Xhih4l6nfgcudyu31KyykNKhJUUhrBRQj+jv3HJuVZzHJyKzns9HMI5HcclSjkZycnJyci87wLChuE3Ch925Xj3K7fUrLjTFiNqVvt3KxG14Nyoc7lQ5efAvH8YatHTscKH/wCCuPDzO12WPBqNouFDncrEb7X3LwKHN+BQ/CsKUPUKHh9ydPuXZrvWP727U7cMWI3KhzuVG12ud+NQyl4a+yihqNd6wuyuYRyPu33LsvvUMUepWXKjcrcOd9u1KhzuVDxO5UOdysdqh48PThSoYoeJc7XcocvXd7mo2p2zkd0cnJzZycis5HcX2WX9dzLjcqHc7lYh9lllzZcvwrEqGJ8Q8Goc7U7lQ5epWZW+3alZcPDFiNyofg2pUOdysKHO5WIc78Ch+FRSFFHSuChoSh9ylHJzFv0OP4bLLFlljwJll8qVlw8MWI2pUOdvt2pWIc7lY7dysQ+5Q5UPw9MqVDxLnfcsf1w53O4YopVLypSVspFZKRSKVlFCUOdw8Rz7ObzKOfY1gp+zn2blY8CxNP3PPs59iRT99vI14Vv9LLFKhzxO5WYYoeBYhztQxSoepWXDwxRuViHr9nbh4c7lQ9TtysQ525WIc77XDFDx4enf7KlYhy+ypooooa4EuEUM5OTm0cwr5OTkVjb9Fvgv6LFlljfDLLRfKLRZaotDa4LRaE1bLQ2i0WXyWWJlobwWi0Xyy0NoTVFoeVFovllostUWhstFlwxFxcKHjwrf7K3KxDlztSsuVDFhQ52pW/2GLEPUrLh4c7lYh5UrLh4muSoU0UhZcPBSja7WLBSGopSxIqKUUUNeFZ6pUqVHVidossWXFiZaGxPhQ52pWXKwoeVKy4eHO5WIeVK3DxO5UepUPEvK7WLt9wxd7F4FnqlZcrtc7lZlQxYhopFIrlFFCWShoSKKwV9lP2JP2cjwc+zk5tHJyK6RyPRycnPJycxybOZt+jaOTkVlv0M5OR5Rycis5Hgt+jkZb9HPqXF9tjfhWeqVlypXgWZUrEPE7UrcqHqVlw52pWFDypW4eJ3Kh5UqHidrteGKNqfcMXf1eH5OVuVKx2cnMciuzn0ciuHLLj5ItFovJZYnwWN4LLQnksbncWLCh5RcLcPE7fbtStw8TtSoeHO5W4fco6sf3w/JwxZcrcrEPuWZUrEOdqVuVhQ9SsuHiKR8ikUKHlFFISRQ0UUVyyhoSKK5KKEslfY1wV9lfZXJRX2JFfY8ZP6VFfZQkVNOOYVnI8eHc7/krcqH3LLlblYUOdqVuVhQ9SsuHhz8pUPKlR1Y/srLh4Yo2pW4eJ3KhzuVvwKH4fkUUb/kqUUUUVFFHyKlFP2JOslP2NOin7Kfs2jn2c+xXbOTkV0cju0cnJzbLfod0X9HPo+Uq/Rb9HrgssTyWNlzY3w+yyxMtDaLRZastFoTLQ2i0Wi1ZaLQmWoTLN9lj8L/ANTuVl9yhij5fyVKwoeJ2pWXDwLCh5UrLh4ncMUPKlR1Y/srLh4Yhm1KxDlZlYhqdyuylFIpRRWPC/8ASncrLlYLQ2XwWOLRf/X8LLQsuLOnCh4cvKLULLlYhvBcLcPE7lYUPKlR1SsuHhijcrEOfl/JWIc7ldu5Xjf+umdlQsuVDEihz8v5DFuViHgpFIpWil6KQkrZSKQkqRSGlaKRSEslIaVFIpGyihLhFFcoooRQ5o59jujko5s59wr9nI7o5ORXZyciujkdnJybOTn0c+jn0O/Ufw3F/Qm4evD1f66Z+SlZcMUMUPX7PzX5Ky5WIeJeVKy5WIeVK3HVhztyo2p6Yep9w8T8pUOd/wAhCxDxPyleBQ9fvh6sossd2pWWXPM8jOS2bRyciyyyxYLHiXdqLFlysIs9St/pf0PGGX9F/TNlliZZfKLLEyxvH6XF5LQ8RZsuFDLjf8lYh4n5Soc7lQ9fvheV+y8qVl9rFDnanblQ8S8qVlwxYUPKlQ8dyxDypUPX7PuHhzXJUJFIaRSKK5f4UUhLgoa4KQ0iuSl2UVFCK+xQ/D1Z6f2XlTuVDFDnancrEOXnplZcrCh5UqHidwxRtSsQ+14c7lOHO/5KxDncrwLcdWPD1a/SmUx6nZQ5YkV9xRQ8oqFllFCXBQyihrlclfZX3FFCXCKNor7KEslDwUUVyUNCRT9m1Kup5KYrOR3Rycm5UMuNl/RYnDZZZsTLiy4tFostCOC7Xh6pep33KH3bcrEOXlStysKNqVDxO4YsRtQxYhytw9zuVDnbhCxDnffSikUopDF4OrEWPX7Fm5RZYnwWhlljeCyxPllx0vgsb4ZZY3z0lli2WWJ8ItFq0WixOGWXFjfAmWXyXCx2rcPDncqHO3+T04hzvyvAsLwdf+XLnfYoRSHFTRsUIoeJeVKy4eGLCja7X2vE7lFDRSKQkikNRRRRQkUMp+yinZT9wk6KfsdnJyc3HMcnPZyc9ix4OrDlzvuUPEudyoeJ2pWXKjalb/YcqHidwzpwocqHO5UOdwxYhy8ysvxrwPDFgsfhRz6LYp5OTcciOR3TFZyO7RzCy4d0xXWTk5tcyrOR2cnJycjujk5ObOTkV0c+otwtljwWWXyWWJljnZZYmX2bXcn4FFdzwxYUOX3KVDncqHhy8qVlw8Cjanph6/RQsuOrAu1YUOVuHidyoc7lIpDSopeikbRRRRUJRRX2V9sor7hC73hnT/lQ5cqVuUXFxuVDw4seUWWLZaHO1PTiHnp/ZT5f7Dx3LEbUqHiflKhzuVDwxQ52+19yyxLwdH+UUxoRT9jRTOZoSKKKKiiiuSkUhKGlTKRSGlaKRSFuGlRRRsopCSopD0UikdKXJQ1wJIpFKykUJFFcor7KEih4OTk5s5+jkVnI457Ey/oeGWXFxfMXLZZfYsi8HR/mGLCjqxO5WXDFiHO1K3+w8MWFDypWXDxO5WIeVPTuHifk/wAhiwo2pUdWJ+UqHO1Kh4Fjt349iXg6cQzpfCLHgtFotWi0WhPllliZY3wWWXyiy/oWzkbdMV1gtnNrg5ORXzwcjumcnJzeNHJb9CusHI74LL+mJ/TL+mN8YZf0yy/+ixsT4RZfKLLEWPE/KViHidqVlw8CxDFG5Xekb8KWf0oo6cFIeJeVO5WIc7UrLh4YsKHlSt/sPE/KViNqVDlf6cMUbEoUOqKRRXJRQkUNS1yin7ORWcnMuOTfcr7FYs+Hp3+z04jqwxQ9TuenEdWJ2pW4eGLCh56ZW4eJ3DFiHlSoeP6hRtwxQ/8ASlQ8Ssz07h4l5U7cMWIYo33KUI34en5fs9OI6sMUPU/L+T04jqwKNrteGLCh/wCumVuHiHLFG1Kh4/qnb7XlT04h4lZnpw4eJeVO3DwLEMUbF2rsRtT/AP/EADUQAAIBAwIEBQQDAAICAgMBAAABAhESIAMxISIyURBBQmFxBBNSgTNAQyMwFGJywQVTkYL/2gAIAQEAAT8C/wCmexDpWLNPbGezIdKxlkuvF7ENsXvlHzxmLGPU8Z7Edlj6/wBYz2FtgyG8ihRFqLUSSuiWo+2j7aLCUeAocCz3LH3LZdy2XcinxKSOc5zmFdec3YrLsVfYufYbdVwLn2LvYvLyb4FxcXIuRciMuBei9F6LkRlxZci9F6LkV50XFxcXEnwLi4uLi4i+Bd7F/sXexcV4lfYu9i59i59iTZc+xc+xc+xc+w2yLZc+xc+xcyrE3Uu9i4uLiT4ikXF5cOQpFxcXIbIsqVKobIlcFvjp+f8AQnsafTiyG2MtmQ6VjPJdeLIbYy3WUcZCxj1PGexHZYrrxnsLGG8sZdcPnGfSyOywZDz+cfX+sXusZ7C8KFBkOkoUKFCO8vGnh6sZZQ2x9WM8WQxXVjLfwoUKEkJFEWotQ0iKLUWIsQ4iiWFnuWe5a+5Qoy2RSRzEPP8AoT2IPgXFxcXFxBlxeipUk+BF8F418JPL14shtjLJYyFiurGexHZYrrxnsLbHT3ljLqjjqdLI7LBmn5/OK/k/WMt44z2xZDpxh6sfXjPFkNsV1Yz8sZENsV1Yy3WMhYMhjHBi3xj1P+hLYhsUOUVGSXAul2NGko1HElBxbkadJRTLSUSK4FpaWsoxoozicTiO4jLXnJuPcj/5PmKWqvIrLsVY6kSpcXFw2XFxcXFwpblyLipUkxSLi4qVE+JXCexF8EVwXXjPYW2DNPeWMuqPzjqdLI7LBmn5/OK6/wBYy6o4z2xZDpxh54+v9Yz8vnFkNsV1vGXljIhtiurGW6xlsR2wZHGO+K3xXU/6EtjT6TVnZGotKUlVsi7NRR8Ne6tIn08lHlfhJViz6V9Ue3hLYh0rGeM9mfQbP5eLI4vfwoUKDRFFEWotRahoa4H3l7n3vZmnzxqWlvEtfcoyjOJKorqHMVkXPsXPsXcxcXl5eiUlQjLgXFxUqQfF+FfF9UcdTpYtlgzT8/nFdb+MZdUcZ7Ysh0rGHnj6/wBYz8vnFkdsV1PGXliyO2K6ni98ZCwZHFb4+rFdX9CWxp7H1KbjH5FJUGq60X4M1fJ/+whkOH1Ml38JbEOlYzxnsz/8fs/nFkNSPcTTwe6yj54y8LV2Nf8Ail8H0v8ADHwXVjPYjssfX+vCg5wTo2iiJ0SIpURaixFiLERjxZZ7lvuWvuWvuNOqKSOc5jmJXUFdQrLsVfYufYuIy3Ly9F6LkXK4uRcXIqhvii5FyKoqaj4FSpUqPYhssYefjUqV5ypXxk+KKlSpUbRF8CpVFSonxZUqipUZVFSpUbEy5FyLkXClxLkXIuRUb4lxcVKkmJlSpUbEypXxW5Ur4+rH1f0JbGlsONT7PuRgo+EtjTg5z47eMeP1f68JbGn0rGeOs6Qk/Y+g6FjLY/8ADc5N3Gj9P9v1YPdYshu8ZC8Nf+OXwfS/wx8F1Yz2I7LBTrqOI3Sf6NPWjPbwha75PfyIJqPE1Xe3HtuR2WMN5Yy6o46nSyO2DIefz4UKIoLqZRFEWotQ0qotRai1FqJJFqLEWIsQ4ojHgWosRai0hHcsRaWIsRarixFiLUWocVwLUWosRahxQoqhai1FqLURSqy1Fq7FqLUURai1FqLUNIUVQtXYtXYtRRCSqWotRai1DiqlqLUWIsQ4oUUWIsRYWCiWlC33Lfcp7lH3KS7lsu5SXcpKpzHOc/YrLsLr/oPY0tn85Q8/Bn0/HU1JeEjT6VjPH6mDnpSS3NN6+nSKiaerr3JOODIbYvfFkPPGYvDVacJfB9J/DHwXW8ZbEdsNL+bVZ9TWj+CTi9KNnVTgRXBChFPgjWnbHhu9iOnZp8d/MUlwxhvLGXVHGfSxbY6ez+cV1v4xfVHGWMtiOyxh54rreMt1i9iO2Md3i91jLYjtit3i98ZEcGRx88fPH1/0GQrxOY5jmOJxI14lWa02oSNDlhsXDZB8peXlxcSZcXFyLionzFUVKlSWxB8CpUr4PFkd3jPYWwz/AMTek3xNHT+3GlfBdWMtiOywhC1z92ev9EdOEdl4y01KcZdjV6WRd0HNv4I7LCG8sZdUPnHU6GLZY6W37xj1v4xfXHGf/wB4y6WR2WMNsV1vGXVHGWxHZYx3eL6ljLYhtjHd4vfGRHBkcfVj54vr/oM0vP5yj5+EtO4p4SIbFCiKIoiSKFqLUWotRbzFqLUWotHEUS0sLS0cS0tZayjKMSZSRzHOcxKorir7FX2KsuK8xcXl6L0OXAjLgXIuRUqesqV8dTpZp/TwVMYdUsZdcMdXoYtsdLb94x65YvrjjP8A+8Z9LI7LGG2Met4vqWMtiOyxh54vqWM9iOyxju8XvjIjgyGPqx9WL6v6DNLzyj54shtjIWPqxZHF4sju8ZCx9XhQoi1DSFFULUWIsRYW8xYWe5a+5a+5JOgk6FJlJnOcxG6rKy7FZdi59i59hvjEuLy9F6JyVrFJURci5FUVRpvh+ypUr4R65YvrjjP/AO8Z9LI7LGG2MeqWL6ljPYW2MPPF9axnsR2wZF74vfGWxHFFSpUqeePnjLqX9Bml6so7vFmntjMWPrxZHbGWLI+eMhbYrrxlsQ2WPrFhLYjssY7vGXVHwoUKImlaxJULV2LI9iyI4IhFULEWI+2j7fuKHMyz3LPcs9y33HHmXEt9yyX5FkvyLJfkSi+5bLuWy7ls+5bPuSjKj4ijKm5TU7opPuUmUmRUqblJ9yk+5SXc5hJ1ZSXcpLuUl3KSHF13KS7lJdyku5SXckn3KOm5bLuUl3LZdy19yMX3LZdy19y19y1/kW8xa+5Y+5a+5a+5KPuKPuWvuWPuWPuWPuRiWvuWvuWvuWvuU47lr7lr7lsu5bLuOL7ii+5bLuUl3KT7lJFsikykykykykqnOc/Y5uxWXY412KvsXPsXPsX+xWsl/R0/PFkd3iyG2MxY+tYshtjLKO7xnsR2WK68ZbEOlY+tCwn0sjssY9UsZdUcdXpYtsGaXT+8V1SxfWsZeXzjPpYtljDbGPU8X1LGewsYY+rGWwsGRxe+MiOKx88XvjLqX9GD5pFyKlSpUT4sqVK+EjT2xnsLbH1rFkdsZYsju8Z7C2WK68ZEOlY+tYz6WR2WMeqWMuuGOp0sWywZpdOMeqWPrXxjLy+cZ9LFtjDpxjvLH1rGewsGQ2x9WM9hYMhj6sZEdsGLBnmLB74y3Qv6EVzyLC0tLC0UeLLS1ljLX3GmQToUZSRRlJEkxVocxznMNyFKsjm7FZdir7FX2G2RbKsufYuLhsuLi8vLiMuLL0XouRcTfAUuBcXFSp6ypUr4S2IdKK4etYz2ZHZYx6pYy64Y6vQxbYM0+nGPVPH1r4xn6fnGfSxbYMh0rGG8sfWsZ7Yshtj68ZiwZDH1YzI7YSI4M8xYPfGe6F/Qh1yyj1PFkMZbCw13TTZo6fLHiRrTjgyOL8aFBoiuLKItRai1EooapEvn/wDrZ91qSUoUqWFhbxLSz3LX3LX3JRdNyMXQpI5znOc5rjm7FZdi59i59iUuDIy5UXl6L0XojJVZei9FyLkSfNEqVKlTVfIxbIr4s0+nGPVLH1r4xnvH5xn0sW2DIdKxju8fXjPbFkNsfXjMWDIY+rGRHBkRYeoWD3xnuhf0IdbyXW8WQ88ZCw+qf/GzS2hiyGMsWR3eM9hbeH1q5YvtIjxivD1YyIdKx9Sw1tWOlC5kNabXOlx2FsQo1VFCiKIiuLLV2LY9i1FiHFVRYj7aLEWe5ONIsUPcs9yx9y1/kOL7kE6blsu5SfcpPuUkJSuZzn/J7HP7HOc15z9is+xWfYrPsSu4cCs+xdPsVl+JWX4kq02KvsXPsXP8S5/iOT7EW6bFz/Euf4suf4lz7EW+PAuf4lz7Fz7Fz7FXdsXS/EufYufYufYk2/Iq+xc/xKy/EufYq+xGtNisuxWX4lZfiVl+JV12Ky7FZfiVl2Ky7Eq9isuxWXYun+JWX4jcuxGvYrLsVl2Ky7FZdh1rsVl2LpfiXS7FX2HXsVfYufYufYufYcvYi2Xexd7F5cV4l5eXovQ5cS9F6L0XIk+KF/Qj1vJdbxZDzxnsR2w+qfKkR9OLIY6pd9R5IhdbzeLI7vGexHZeH1UbtKR9LO7Rj4evGWxDpXjKOqm39zgfTSnKLb78D1Gpryus0lWXmfTar1Iyu3Tp4a2hHVVGfajBN+ZOTlbpR3lv7IjFRSSwj1Sxl1Rx1Olix09sY9UsfX+sZbx+cZ9OL2IdKxh5/OPrxn5Ysh04rqeMhYMhj54yFgyPhTx8yhQoUHuURai1di1EkL+gv5Ml1/rFkPPGexHbD6yvLReZ/wCQ6qkGQdY1wZDGYsGR6njPYjsvDU1YLc+irdOnT4erGWxp9K8fqq104eUnxEkopLY1HT/+GnNQ+mbj/Iz6TR+1pUe74vx15W6cn7H0mm1C+XVI1fqI6bpu+xF1SfjHqli+qOOp0sWDNPbGHVPH/T9Yy3j846nTjLZkelYw8/nH14z8vnGWxDbFdTxl5Yshtj68ZCwZHH1YvfGfkL+h6y4vLi4uE+YuLi4uHIi9y4vRci5EmKRci5FyOBwuRUqipUbIMqVKlSbE8GR6njPYj0rw+1DsJJbeHqxkQ6V4zgpriRhqx9XA9SI6OmnW3D6mLnp0RHhp/o05xpKe+rN7EE1FV38YdcsX1Rx1OliwZpdGMN5Y/wCn6xl1R+cdTbGWzIdKxh54rrxn5fOMtiHSsGR6njLyxZDbH14yFgyOK6sXuLCfkL+h/oUKFChQS5ihQoig4kFuWotRai1EkhRVC1FiLEWItVyLUWIsRYhwIxLCwsLSUS0sfctfctfcoyMXUpIpPuUmc5K6hG+hznMVl2Ky7HG8ul2Ln2Ln2LhyIyoi8vRei5DlzovRei5FyJPgyL5UKME+CRUqVI9UsX1Rx1eliwZpdCxjvLH/AE/WMuqPzjqbYz6WR6VjDzxXW8Z+XzjPpZDpWMep4y3WMiG2PqxkLBkcVvi9xYT8hf0P9MvXlDd4yI7Y+rFkMZ5R6njLYjssfWsZENihRFEWoaVyLV2LI9ixdixDgiMFQ+2ixFhZ7kYcXxLPcsfctl+RbLuOLuXEpLuUn3KTOc1L7TnOfsc/Y/5PxOfsQutXAul2Ln2Ln2Ln2It83DzLvYv9mX+zL/Yu/wCTbyL/AGPuLsz7iL0OXNEvRei9F6JyRei+Jei+PclJUZGaoi+PcviXxHOPchJUL4l6L0XruXK8vj3PuR7l6L49yUlWJfHuXovj3L49yU1QjNUL13L0XouRGSqy9F67l67l6JSVUXovRei9dxyRGSoXovj3PuLuXoqqlyL0XovXclJCki5FyLkORGSLkXIuRUT4lxUqVG+ImVKlSQv6H+uXryhvLGRHZY+pYsh54zyj1PGexDZY+tYyNPpxfXHGRHZYx6pYvqjjqdIsGafQsYer5x/0fxi+qOMyhRFEURJKjEuBRdii7FENIglQoii7FF2KIS5mWrsWrsURauw0qotRai1di1diSVCMVQtXYtXYoiiIriyi7Fq7Fq7FqGuJai1di1Fq7EkiKVC1di1di2PYtQkqlq7Fq7FqLF2HFCii1di1FqJRRGKLI9ixFkS1FqqWIsRYiwcEWFnuWe5Z7jQv6D/kWXrWLI9TxkR2xe6xZDzxllHqeMiGyx9axZp9OL644y2IdKxh1Sxl1Rx1OnFmn0LGHq+cV/I/jH1xx1Nv3jPZi2WDNPbFdTxfVHGexHbxfhDd4vqWMtiO2K3eMhYSIYrf/qmL+hL+SOXrRXGPU8ZENsW+ZYsh54zxZHreMtiHSsfWsWafTi+uOMtmafSsY9csZdccdTpYsGafQsYer5xX8j+MfXHGfl84z6WLZYM0+nGPU8ZdccZ7C28X4afni+pYy2I7Yx3eMhYS2IYrfF74z8hf0J9SKFrLWUZRjXMi1lJFJFJHESdSkikjmOY4irQ5jmOYbkfdTYmysisishtkWysuxc+xc+xc+xNvsKT7FxcXFwnzMuLy9F6JS4EZcC9F6LkXIrzIuLkXFRs0+lFSpUqPrj4VKlSWxDpWMeqWL6446vTizT6VjD1fOK638Y+uOM/L5x1Oli2wZp9OMeqWL61jPYjtjp+ePqxlsLbGO7xluLCRHbFb4+eMxf0JdUcn1LJb4sjthrOkGaWkrU+5GFMGQ88ZCwYuooUKFDU4RZD6mNOaLR/5P0/chZNVRai1FFUsR9tFiLEOJGHAsLF3LPct9xx5kWe5a+5bLuOaUrb+JxpuQrauJSfcpM5znFdVnOc/YrP8Ssuw61XArLsXPsXPsXPsTdUVL/YvL0SmqEJ0ij7iL0XovRCa4/JfHuXx7l8e5chSV8i5dy5dy5dy5Ff+SJcu5VdyqKmo9vkqVK+Go+VifAqV8GyD4YVIvmkVwb51418J7C8K+DNMqV8GPqxlsLGO+L3FhJ8CLKlSpUW5UqV8PPGfkL+hPqjk+pZLqxkQ2w+pfLTuJUUViyHnjMWDF1Yy2IxTiuBPSha+VbH/AOP/AIX8+PqWLNPbwno1nfd5H02o5qVd4ug+A/rl97hF2rzNOcZxqvGkv/I1W4N/iQi46fHc0H9yV3lHgsGLqeL6o4z2xZDpRQoURRGmur5KItXYtXYouwkrmWrsWx7FsexauxRXotXYsj2LIlkScVy/JYiyJZEsROKoWIsRZEsQ4ojFNH20WIsRYiMVxLEWIsRYi3mRYj7a9z7a7s+37kocCwsLCz3HAjAs9z7fuWe5Z7jhzFnuyz3LPcs9yUeAoe59v3Pt+7LPdlvuKJZ7lnuWPuWPuOPuWe5Y/wAi19y19xxfcUfcsfcsfctl3LZdxRZayku5SRSRxOc5znOYdaoX9Ce6+cpbrFi68ZENsNbjr6aH5Ysh54zFgxdfg5fUxr6jSlrN80aeEiHSifSz6D+J/Pi+tYs0+nx0a6f1MtP8uY+sr9l0Jy0owi4+aPpNJ6elx3eH1WpRKEeqRoQUNOKRVeLF1yxl1Rx1OnGWzNPoj8Y6fq+cY9csf9FjLePzjPbF7EOlYw9WPrWOpsLBkNsfX4LxmLBkMXvjIjisfMWEt0L+hqeWUt4/OS68ZENvFmpK36mMnsPV03TmRGSezwZDd46gtsGLqxkQ6SfSz6Fr7bXv4vrWLNLp8GaOlP7s9Se74IaqfZ04zVI46VNTX1dTtwiQ6EVnrQc9ublI7LwZHrli+uGOptjLZkOiPxjp7P5xj1zx/wBF8Yy3j846nTjLYh0rGHq+cf8AT9Y6mLNPbH14zFgyGPqxkRxjj54y6kL+hqlxcXF5cSe3yXFxcXFRS5i4uRci4ciD4FyLkXIkoy3JfTaPY09OMNi5FyLkNog+LLkVKlSYmVKlRi6ivhUqSIdJKWrqNxjw9z6fQWl58fF9axZpdOMuqONkYp0RHooaP01jTcq02wj1SxfXHHV6cZbMh0R+MdPZ/OMeueP+n6xn1Q+cZ7Yy2IdKxh54+vGeLNPpxXXjMWDIY+rGRHGI8PPGXV/R1BIoWlqKEkWlEULSglzFC1FqLUOJBcC1FqLUWIaLUWosRYixEYosRYixFhKIoFiLCwtFDmLCz3LPcs9yUH3Ix4blnuWy7lsu5SXcady4lJdyk+5SZzjvNO6hznOc/Y5+w7rkc3YrLsXS7FZdht02IN27Fz7F3sXexcRlzS4Fxei9F6HJXIvRei9F67mo+Bci5dy5FyJNUZCStRVFUVRU09n8lfCvhHqlj/p+sZdUfnHU2xlsyHSsYefziuvGfl84yIbYrreMxYMhj6sZbEcY4+eL6hf0NQWM/wD7y9eMiG2MsWR3eMxbY+rGRDbF9SxZp7fvF9UcZEOlYx6n40KFOZFCiKIoia4FEWrsWrsWx7EkqEYq1FqLI9iyJYiEVQsiWIsRYiMVVliPtosRYW85Z7lnuWe7LPclHjHiWe5Z/wCzLH+RY/yJxdNyx9y1/kWv8i19ySdNyMXauJbLuWy7lsu5SXcjF9y2Xctl3KS7lJ9yjv3KT7lJ9yk+5SfckpcCk+5SfcpMpqdxqRFSoUmUmc5zCrcc5znP7HP7ErikjnOc5+xzCuOfsc/Y5+xz9jjU5uxz9isuxWX4knLsK7sVl+JWXYufYq+wm+xV9ivsXexd7FeJcXl5cVrIX9DU2FjqbZevFkMZ4sju8Zi2wZ6sZGn04vqWLNLZ/OL6o4y2NPpWMeqWL6446u37xlsyPSvjHT6f3jHeWP8Ap+sZdUcZ4y2ZHZYw2x9eM/L5xlsQ6Viup4z8sWRx88ZCwZHHzwoeoX9DU2I7Y6uwsfXjIhjLFkOp46hHZYM9eMjT6cZdSxZo7P5xl1RxlsafQsYdUsX/ACRx1dv3jPpZDpWOl0/t4w6p/OK/k/WL64Y6nl84z6WR6VgzT2xXW8Z7r5xlsQ6VjHqljPyxZDbH1YyFgyOK3xfV/RnsR2WOp0iePq8a+DIYzEV8WR6sZ7Edlj61jLY0+nGXVHFmls/nGXVH5xlsafSsGQ65Y+uOOrsvnHU6WQ6V8Y6XTjDqn84r+R/GL64Y6nl84z6WR6VgzS6cY/ySxnvH5xn0sh0rBkOqWMt1jI09sfXjIjgyGDFvj6v6OpsR6RNvZlsu5bIpImnQSdCkikikikijuKSKSKSKSGpEUykikykznJKRznOc5znOKtTnOc5zmJVI30Kz7FZ9isuxzdjmvRdLsKbfkVl2LpdhuXYg3TYufYvfYvfYu9iT4ov9i/2PuexeXEJUqfcPuI+4i9Epc0S9H3EXovRKaoQklFH3YLzL13L13LkRkrpF8e5cu5ciqG1fEuLipU1Hw/ZUr46nRL4IdK+MGaXTjDqliv5H8YvrjjPy+cZ9LI7LBml04rreM944z2ZDpWDIdTxlusZENsfXjIWDI4MW+Pq/o6mwv4/0fT+eGpsR2WPqWLIYyF4OUVuyM4y2YzzITbm1hMjssfWjVdIs+m28Wae2Mt14NpCafgz7kYJ17kdfTl4UKElzRKHAoiiGlQguRGrFOUUKC7Fq7DiiKV0iyPYsj2LI9iyI4K5H249j7cT7cRqKou5OCX/9LEfbR9tFhOPKxQVEWe5Z7lnuOHuacOBZ7lj/ACLX+Ra/yIx4viWv8i2X5Fsu5a+4ou98fItl3KS7lJdyku40748Sk+5znOc5K7h8nOc/sf8AJ7H/ACexO+gr6HP2Rz9jn7Dv7GndQ5+xWfYrPsXS7CuufArLsVl+JdL8S5/iNuq4FZdi6X4l0vxLn+JNuj4EW6LgXP8AEuf4su9i72It1fAv9mXezLvZl43sX+zL/kvLiUiMuBefcRei9F3NUvRei9F6JSQpovReu5cu45IjJF67ly7lyKorxKlSpU9X9GezI/x/o0fM1nSJDpQyc1Qh0rH1LCc1FVZ95NGjNSqN0FNzZsh6l8qI1XbFn07k9xmpz6lDQmlNx8PM0v5JF8e/jPYh0rBk9SMZKpqSUqUNFUiXLwZp7Yy3XgoSm6yJcko08GacfuajNWCXHY0K2cfGfVH5wlNRVWL6hSdKGn0Ijx1n7eDaRUh1TE14to9aKpCkn4Tf/JFGp5fJfC62vHwlOMd34anSyOywZp9OOn6vnFdb+PB+L/kjjP0/OOp0sW2DNPpxj1Sxl1RxnsR2WDIbvF7rGRDbwp4+ooUKIoNCSLV2LV2LUNLsJItj2LI9iyPYcF2FFFiLIliLEJcwv6E9mafQjpmakrpKglRGvNqnuShyVNLoji+pYa8LokrnGiR9NGiJKqNLTsNVNxdDQhauJrRqjS4LwnoqR9pQkqHkPqI8E2JKvEW3hPYh0rBiip6lWUT1KLwtcpnkM09sZ7rwbIc+o34SNKb07uUUZ6rq9hKi8ZdUfnDUUpzdPIjpU4s0+hGjvJ+Gq3qSp5GnG3TSNadt1N2KDhZJs46jfY0el/JqczqR6ofBBPUm2UpONPCEP+SRrOkf2PR5XqV4keMUSgp6vEXBGp0sjsh+LNLoWOn6vnFdb8H4/wCkcZ7x+cdTpYtsGafTjHqljLqjjPYW2DIbvGXVHGWxDbH1YyFgxC8WLfH1f0Z7Gl0jimLTivCUFLcmuU0uhYvqWMlwNHzxmR2Q3QUqqp1ang1zlkqH25OlRbeE9iHSsGODu4ENOnhFUfgzS2/eM914asZy6SFYcGhSQzTS4/OMuqPzglbN+5LY0+hGkqXfI9jThb5eH2rtavY1ot20FG2FEQjSIoIf8sfgUUi3mqSdEacaI+o6f2c0qREqJEuuPhqdLFsh+LNLoWOn6/nGP8kvFeHrWMt4/IsJ9LFtgzT6VjHqli+qOOpsLbBkN3i+pYy2I7Y+rGWLELxZ5iw9X9GWxpyoi9F6Ly4lLgQlyovL0Xlw3zIuLy9F6HIg+LLy9F6L0SkKaoSlVF+suXyNOkVxLkV5i9F6L0XolJEJK0vRei9FyKq5F6L0XouQ5I05Khci9FyLkTkuHyXIuRVHKVNJ9XyXIuRcXE3zQ+SpUqVJPgzSfIvCpUqQfPMqVK+D/lj8Y6nl8+KhSTlXw19RQh88BbLBmj/GsdP1fOMeuWP+i+MZbx+cdTpFhLY0+lYw3li+uOOp0i28KFPCG7xfUsZbENsfU8ZYyI4MW+Pq/oy2NNcC1FqLUURKJBcpRFqLUUQ1xRQtRai1DRFFEWotRaiSIrgWotXYtRRFFcWotRai1diUUQStLEWLsWIsXYoqotRYixdixdhxRCKLEWRLI9ixEorgWI+3E+3HsfbiWI04rj8n24n24n24n24koqsfksR9uJ9uJ9tEoIhBWo+2j7aPtosRGCqz7a7n2/c+37n2/dlnOj7fuWe5Z7ln/sTW3HzLX3LH+RY/yLX+Rq6dUq+Qoum5bL8i2fctn3GpdyCdq4lJdyk+5SZSZFS407lJnP7HP7HORuvZznP2OfsVn2Oa9fBz9is/xKz/ABKy7EnKseBWXYrL8S5/iXy/Fkm6bFz/ABLn+LLn2LvYcvYhLl2L/Zl/sXlxCXGRei9F6L0XK5F6L0XovROSoXovj3L49y5dy5EHxZei5dy5dy5DfFFyLkVKknwIvgVKlSot/CpUqSwqS2IbeFSvgt8Knq/os0/PF7Gn04y3WLIbvGRHZYM9eM9jT6cX1LFmn54z8vnFmn6vnGfVD5xlsafSsYdUsf8ARfGM94/OOr0MW2D2NPojjp7P5xj1yx/0/WMuqPzjqbYy2IdKxhvLF9S8KFEURNcBIouxauxauxauxCK4lsexZHsWR7Fkew1xLY9iyPYsiWR7EoIjFUPtxPtxPtxLEWqp9uJ9pH20We44lh9v3Z9t92Wf+zHH3FD3LH3LH+RY/wAi1/kKLruWy7lsvyLZdyku4ur+izT88WaXTjPyxZHd4yI7LBnrWMtjT6cX1LGRDGflizS9XzjPqh84y2Zp9Cxh1Sx/0XxjPePzjq9DFhLY0+hY6ez+cY9c8f8AX9Yy64fOOptjLYh0rGG8vnF9axn0i2wZDzxfUsZbEdsGLqeMhYMjgxY+v+izT88WaXTjqYsjvjIjtj61jI0+nGW6+cWQ88Z+XzizS9fzjPqh84y2NPoWOn1anzj/AKr4xnvD5x1ehiwexp9Cx09n8vGHXPH/AF//AM4y64Y6m2MtmQ6VjD1fOP8AosdTpFtgzT88X1LGWxDbBi6njIWEiGDFvj6v6LNPqkVKlSozS28alSYngxblSpUqSIPgVKlfD1IqVK+EjT2KlSvhLdfOLIeZUqV8J+Xz41KjZp+r5xnvH58a+EtmafQipXx0+rU+cf8AVfGM94/OOt0MWEtmafRH4x0tn8vGHVPH/X9YvrjjqbfvGWxDpWMPV84+tY6nSLBmn5/OL6ljPYhtgxbvGQsJEcGLfH1f0WJc0ijP2L5LX3HFkI7lrLX3LWWslEUWWvuWvuWvuWvuJcS19yx9y19z9jiRjwLH3LH3LH3Lfct4lvuWPuWvuWvuOL7kFwLX3LH3LH3LX3HEtfctfcsfcsfctfcgty19yx9y19xSTlS4nEtfcsfcsfcsfcsfcjHfiWe5Y/yLH3LX3JR4r5LX3LX3LX3LX3JRdNyEXauJY+5bL8i2X5Fr7kIusuJbLuWy7lsu5SXco79yku5SfcpqdysrqVJXVj8lJHP7HOf8nsTupxOY5znOfsO6hC61HP2OfsVn2Kz7EK02Ky7FZfiXS/EufYi3WXAul+JdL8S5/iy7/wBWJv7m3kXexf7Mv9i/2LuaJd7F6L0fcROSaL0XoviXxJSVCLVqL49z7i7l67lyISXEuXcuRciqK86KoqVKmo+An418IeZUqV8H1LCpLYjt4VK+C38KlfCRUqVKjI+FfFb4+r+iyPUxmlxm6kuVqghkPPGYsV1eM3wNGv3BkNsXusZbGhKqeMvLFkPPx1E3HgaemooniyHq+cZNVXyJrxqS2Iummmfdh38bk9mQ6p/OP+n6w0uOpqT/AES6o/OOp04z2ZDpWOl04w3l84r+R/GL644z2Xzj9RK2HuzSXIi1di1dhRXYtXY5YqTZbF+RZHsWR7FkexarlwLI9iyJ9uJ9uJOCoKET7UT7a9z7a9xw92QiWe7LPdln/sz1W3Mt4ln/ALMtf5Fr7lsvyGn3FF03LZ/kUn3OfuUl3EnUpLuc/sc5zjuKTOc5jn7Du7CuJ6jj5ClJ+RzdisuxxrsVl2Ky7FZdir7HqF/Rj1sZB01GRg26vwvj3IySqRldhMW2DYnx8HOKNWasZoR41NbVa4I0Z8OOL3XjKNwlRGtqRij6XZmtqWRqQldGpLVinTw1tRQoQ1YyXjqa1rohOsReogqIn9RGLoKSfhfOc2vKpzackq1F4sXBTN05Nn005t0Zr9B93lS8xxtS7irVup9PKUlxNZuOpwZ9t0q2QbcOJDoROV7pBfsimlxNeV0vt1+SK+3NWt0NPeWP+n6J/Uwg6EZKSqibpFmjGkET6o/Pi9eClTw+prZw7jkkuJHX026V8G0h6sXUUlGCb7ENWE9sNPp8ZSUVVkNaM9iG8/kcox3ZHUjLZ+K/kfxi3TUjhwJ+Xz4Ruvl2J6kYbshrxm6E+fUfZEOlYVJO7Us96sW2H+ix1NhYMh5lfBs0+fVcx9SxkR2xW/g2kRlXwkIYvBiJ886C8GOVGLB9Qv6K/kYz6ZVlJ+GpN1oiEW5E7nVI01SKw1NiOyGcZS8NTqJdSoLpRS6TqTXY0o0iT4TFcyOywe68VNPw+pitzQVImuq0I9JLm1/jw14u9MlCXDhQh0rwtrq8Rl076eEafclcSkqpRPInFLyLLpVZWiE6+DIcbvkeh7mjGjZKNVQhoKLqT9PyfZhvQ040qfY53IlGsaCjbE1P4DT24ISHpRbqaseMEjT9WLfO/wD4kNGdE677kIWRSNXpFsT6ofPgzRiqy4cR8ETdYmunRE7WklChHZDrransjWSVqQ+NqeyRpQ57qYaXT46sfualvYjoqJD1/Jp6bm7pCj/y8PFfyP4x+oVZQFqpRVDTUq3M1Z04LccOW57j2j8+FBwu1eJrfbpyriQ06Q/RPUsjFLdmlPVUqT8/DVlqTn9uH7HGehJWyq3uj6SHGU33x/0Q5KKq/FST2NTYW2DJ61lVHc+nlqN8z8PqJUjTuaULYD6ljPYjsP6qjfD4Ltfd7EdjVlbBmhJ3cX4OUp6tPIpw4GpruHkKVUnQnqxhE09VzrwJ69HbHcrrppt8DyNRyUOBpaWru2KqXFj+qV9tDyPMXhL6iKko+Etxf0V/L+vCEFCvg9NNiSRDqljPYjsMgqeEtNM+2qi2HpVZHTivCSRBcBYPdeMY0lXw1VWhp7eK041r4SJRrTxoMju/B6cZbojCMdl4T8NWXkQ6V46e8vnGe8fnGWxDpWElVohvL5x/0/RFU8/BqvhLqj8+D4ohC2vEnG6NCfCPhOjkooRGMY7Got5ewoRkot9hUWGl0eNOavhD1fPglRvxj/JL4xcazQoRXl4WK64kqol5fJbzV8J6Kl5i0Ion0slpydrj2FpNUfn4PSle2nufZivk0FSP7wZ60SVyoRctPg0zV+oryQ3NGFkDU2FgyxvWl2IxS8KX63x4PqWM9jU1KQot2LRdE/MUNR9RQnBSVGaejGEhihFeQ3RGnp3O6Q0fZrLiSjyNI0dBQ+SarNHkKLm/YSNboYpaEVsQldGpP+RCNedseG5oaLrdLfwnuhf0Xw1C4vL/AGLi4i3cy99i99i5lz7EmKTpsXPsV9i59irK8xV9i59i59i6XYbfYg5disuxWXYul+JWXYdSsuxV9isuxWXYdexGvErLsVl2Ky7FZdiVTm7HN2Kz7HN2OJGtWc/Y5uxzdjmJVOcUJ1qznOc5iF1Wc5zn/Ic47qo5jnOc5x3UIKVDnOc5znFdxOc5zn7HP2Oa/wDRznP2OfscxK6sTn7FZdisuxWX4mpc47H3NVRtUOPc0tNw4tcSr/EufYk3a+BFu1cC59i/2Zd7Mv8AYhLhsXexeXF6IS6vkvRei9F8SvO2Xovj3Lo9y5dxyV6Ll3Ll3Ll3LkTe3yVRVFSpLZkdljDz+cfWvDW15N2ae/c0NFQXHfwnsLxqMj5+MY08JdSx1HSLNHTq75YrqwSSJCwZHwaqS0YdiKUURd+r4ONZ18Kkhf0X/IihQoUKEVzvGRHbHzxZHGWLIeeMhYMju8ZCwZDeWMt1jLYh0rGPnj6/1i+uOM9v3jPpYtljp9Kxh6vnFdTKFEURRHrRRFq7Fq7Fq7E0uHDzLY9iyPYsj2LI9iUFQUIlkT7cSxFi9yEdyz3ZZ7ss92We5bzLiasJ0opPiaf09i3LH+RbL8icZU3LZdyk+5bPuUn7FJkVI5yk/Y5+yOfsOtUc3Y5+xWfYrLsSr2I3U2Ky7F0vxLn2Ln2ONdi72Zd7MuLhyLi9F6L0XITL0XIciWvKTsSNNWlyLkSnys+nnJ1qNi/ovrWUet4yIbY+pYsjjIWDIeeMxYMju8ZiwZp7yxlusZbMh0rGHq+cV/J+sX1xxnt+8Z9LFssGafQsdP1fOK/kl+sfWvjGXl84y2ZHbGHnj6ljMWDIeeL6ljLYhtj6sZCKeFChEoUKFi7FOJQoi1Fq7E0R2/ovrWS68ZENsX1LFkPPGQsGR3eMxYMju8ZiwZDeWMt4/OMtmQ6VjD1fOK/k/WL644z2/eOp0sW2DNPoWMPP5xj/ACSx9a+MZeXzjLZkdljp+fzj6ljPYW2DIeeL3WMiG2PqxkLBkcXvjPYjt/Rn1RyXXjIhti91iyHnjIWDI7vGYsGQ6njqbCKlSvhDqkVwl1R+cZ7Mh0rGHq+cY/yP4xfXHGfp+cdTpYsHsafRHHT8/nGP8k/1j618Yy8vnGfSyOyx0/V84+tYz2FtgzT8/nGW6xkQ2x88ZEcVjLcWE9iG39HU3XyVKlSpUrzlSpcXIbIPgXFyKlRviXIuRci5DkiMi5F6L0XolJCmi9F6L0OSFLiXl6L0XolJCnwLy8vHMjLmZeXl5eTkXexf7F3sXexX2IN83Ahr3vgi59i+X4lz7Eq1jw8y59haldkXS7Fz7Em6bEXKi4FZdir7Fz7Fz7EW+PAul2Ln2Ln2Ln2E39z9Fz7Fz7EtW1cUfcr5D6ol3sXezLvYvJy6fkv9i8vRejUknFlyoj7kS9F8RzVCElbEvj3L13Lo9y5dyDXH5Lo9y5dyq7lURfPIqVK+H+i+MZeXzjLZkdljp+r5x9axnsxbYMhu8ZbrFkNh4eeMheD8GR3xkLCWxD+jqlprpxjVGlSUaliLC3mLRxITUtRxLEOJCPAtRYixFqJItRai1FqHFEUi1dixFiLUOKEkWrsURRDSEuYoWlChPYWxfHCPUyhQp4TynOikfSLi3hLePyPiaHn4y2ZDpWMPP5w1HbFs+ku+5v4/UdKRprlQ/wCSOM/T846nS/ChQoNcCHSjX4af7ILlLV2LV2IJUfyWrsWR7FkexZHsRirpFkex9uPYsj2LEWq/9FiLEWIsJQ2LSz3ZZ/7Msf5MceG4ounUWy/Itl+RSXcpPuQUuPEpPujn9jn9jn9h3XI5zn7HN2Ky7E3KmwnKmxdLsXPsXv8AFjl7EZcXwL/YvL0XolLii9F6L0XockQkqFy7ly7lyLkV4lUVKlRvgRZXBblSpUqNiZUqVGQ/o6nhrfxy+D6X+PxfXHwm6RbPplz18GQxl4Xv7tPFkep4yF4as7Yn09zdWMj1YzFsRgo4Q6njqbFaI+97EdRN0G0kLXhJ0J8dVmkrIVZH6lSlSg5KO7PvKpLePyS1XxjaaSovGezIvlRFp7PxZDz+fG6Pc+ql0xPpYUcn4vn1fB/yLBuh925rh5kNVSbXh9yNaFTVlw4F1kas09VT8huh9+BcnF07EOiPwa3oXuR28dPb94qcVOXHGvP+sZeXz4Sko7kdWMvDUlFJ8SPSsYefzi+tEZKW2E9hbYMhu8ZeRQoURRDSIpE3GPkJJrYsRaiiqK1liLEWIcUKCLEWIsRYi3iWI+2ixFg4iiWFpaOJDGv/AGau3h9VW00E1BEpWqp/5CK8Ysm5SlRM1JTpaaELYE9Wdzp5GlKUo1Zp+eMxvgaXGTkVoKcWMj1YzJ6tkSOq/Mm75mnC1GrqqBo6l0ic7VUUtSZDUnLgiMnWjNfUsiaM21xXg9WTnaLYZHreM9jV6UX8vBGhCnFmvxaQ1pwifTwulJs1/JENOKWw7tTV9kSXMkS3iUun4as7IVNJcpqdL+CMJ6/nReR9PGUdRqtV4s0/P58PqJS4RR9lRjWvESepPidN1Oxpacq3NknRGjHz8P8ARYa2xNqiUTQhSNSVbXQ0oebNZvgiymma0a2kIKJqcYkumlCCpB/BDoj8D5tU1ZNJRW7FHUjLq8NPp/bxjFfdnXv4avF0NOpqJtcDaSxlvH58NWrnQhppeGvHmNPoXhPXUXQv1nxISbQ9ay7zdTS1r1xRDXu1KeRqaq00aepeie5oKi8FOL2fhqukGaOpfHbBkd2OSXn4N0PuQ/IeMiOxW+Zt46roj6fbCRHH1YyI4x8alSv/AGauwtjX5pwiLY1Y3QaPtSdFQapahxkpVRHScnVlD7FZbltEQ88Zmo+U01SJr1ckqkFzqngt8Zmp6SWoraI0dPzfg4XSdSEFGRqad9BadI0NPSWmiK5qmunVMV7Rp9PE1LblTcQxdeM9vC1CVCempH2YmkqOQ4p7lPC3jU1N4/JBU8JRUt/DV4wl8GlCVqRGKWGls/nwnpqR9mT3kRgoiXPLwmqpmnwj4f6LBqo4RTXyLgsNTpKeOq6I9D+BOmmvg0o+ZODbTRGFN/DS6f28XJVfeothxEvCn/J+sZ7x+fCnjry8qGn0RNXUtXDcjpV4n/JtQjG1DSWpJsb4URoadOIo36jbHSKbINzar4TrOVpHSUZFebga6rBn075MGVpcfbnqzrJi2NRy1JWrYelGECHSsZDfCgp04QVX3K6vG9fs0nWPhrO6aRCNImprTrSCFN21kRmpI1de10pUhrT/AB4CdUVRXwuV24sJEcGLdlSv/fqbEdkW812E91iyPnjMkqoWxPTUiMVEqLcqVKlSQkqFsRFTgeoqXIuRVEmqCaoVRbp1qXIbQnzF6L0XIuRqSVC9F6L0fcifciQlxkfcR9xF6LyUuMS4vRei9EpcGRlwRefcLy805b/Jei9F6L0RlzyL0XovRei5XoviXxL49y5dyUlWJfHuXx7ly7lV3NSSpuXIuXcUl3Lr9T2RN8r+B9CIlSvhp9OFSEY3zfvj/p+sZen5xnsy62BGN7qxeMUuPyWR7CLUSVUbSXg9PjVOhZLzYopGs9WjSRoRtgsGU4sjGnhwJRufsPyFgyMK1FDVhskyycuojGiJbEdOkq+Fs4vgqk1qS3FBxhSO5DRpxluS8kLliO7VfsRVFQ1pUVF5kdO1ts09sJEcGz1Y1/7NTYjWhznOc5zElKqKSKSKSKSKS7kU6lJFJFsijJJiiy19yx9yx9yx9xR47lnufb9z7fufb9xwIw4FiLD7ZYi3mLEfbR9tFiHFEYposRYixFqFFXFiLF2LI9ixdjUiqCiqFq7Fq7FqKIh1SKFChQe6KYT6WR6Vjp7fvGPXLGn/ACfooURRdiiGlWJauxauxbHsWrsTiu3mWrsWR7H2Xt5EdKCWxKCtYoKiPtxPtxPtosRCCaPto+2u7Pt+7LPdkI80uPmW+7Lfctf5FH3ON/6KPuUl3KS7nP3JKXA5z/k9j/k9jn7ErqbFJNbCuXkVl+JdL8S5/iJur4F7/Ev9mX+xeXcyLi9F6L0SlGhGSoXIuRcu5chPmZUqVKkypUqVGQxe+LIoaqqEY08NXTv8yOi0+MqiwZEqV8fV4VKlSv8A2amzNPpWMxYx6njIjtgxdWMiO2DPVjIh0rFdeM9hYM0+qWMuqPzjPpZHZY6e37xj1Tx/0/WL6o46my+cZ9LFssdPpxhvP5x/0/WMvT84y2I7LGG8vnF9S8aFESSoRSoWotXYsj2LIiirmWIsRYixEoliLPcs9yz3HH3Ix9yx9yx9yyX5Fsu406lsu5SXcpLuUkNSI1OY5zmOY4nMc5znOO4VTmOfsc3Y5jz8alSv/ZqbGn0rGYsY9TxkR2wZ6sZENsGerGRDbBi68Z7C2wZDqljLqjjPZi2WDNLp/eMOqeP+v6xfXHHU8vnGfSxbLBml0LGG8/nH1v4xl6fnGexDbGG8sZdSxexHZYrqeMxYMhjLFixYsGRxl1eDG/8AunsaXTjqCwYurGRHbBnqWMiG2DPVjIhtgz14z2FtgzT3ljLqj84z2ZHbBml04w6p/OK/lfxi/wCSOM/T84z6WeWDNPpWMd5fOK6/1jLePzjLZkNljHqljLdYMexDpWDF1PGYsGQ88ZCwZHFiwYsGT6vBj/7p7M0enHU2FtgxPnxkR2wZ6vCviyG2Pq8KlfCRDYqVKlT1FSpUqTfATKlxci4g+Mi5FyLkXIcuZF6LkXIuROStYpKiLkXIuQ5I0pchci5FyKog+MvkqiqKlRfyP4KlfF/yxxn6fnGfSxbYM0+lYw3l84rq/WMt4/OM9mQ6VjHqljLqji9iHSvBeK/keM9hYMju8ZCwYsZCwYt8GT3Xgx/90tjTlRF5eXlxOXAUuBcXF/sVONxVlzLn2Ln2G2RbpsVl2Ky7FZnMcanMc5znMO4imUkUkUkUkUdS19y19y2XctfccfcjHgWFnuWe5YW8xYWH2z7aJRSQoKhYj7aPtosRCKqyxFiLI9ixDirkWotXYtRaicVQUVQtRai1DiiEVaWRLI9i1FqIRXN8lkexZEsiWRFFXMsR9uJ9tFiLVeixFhZ7ss9yUOKLPdln/syx/kWP8iadNxQf5FsvyHGX5CUu41LuQTt3KS7lJ9znOf2I3c3yc/sc/Y5uxWXY5r9ir7Fz/Fl3sy72JPiuBd7F5ei9EpKhGaSRfEvj3LkVRGXFlUVRUqS3RUr4y2IbYMXXjPYWK3YsJCxW+MhYrfxYzU8X/wBzNJb/ACULUUKEkR2KFChQ9SxkR2xe+MiGDPPFkNsfXjPYjssGQ3li+pYz2YtsGQ6Vjp+r5xXW8f8ARfGM/T846nS8WQ6VjH1fOK6/1jLeOLXAiuBRFq7FqHFEYqrLIlkSxFiHEsR9v3LPcs9xx9yMeG5a+5bLuUl3KS7lJVKTKTOc5iVaCvOfsVl2Ky7FX2ONdir7Fz7F3sXew2KRcXlxcVLy9FyLkOQpIuRci5FyLlUuRchyQ2Tf9Fml54yIbLH1LGRDbGW6xZDBnnjIhtj68dTZkelYMhu8X1Rx1OkW2D2NL+NYM0vP5xj/ACSx/wBV8Yz3j846vQ8WQ6VjD1f/ACxX8j+MZbx+cZbEelYMj1PGW6xexDpx9eM9hbYrfGQvChQoeZQoUKDQkURai1FqKcSiGkUQ0jURX+gzT3ljI0+lYvqWLIYy3xZDzwY98WQ2x9eOpsyGywZp7yxfXHHU6RYS2NLojgzS2fzjDrlj/r+sZ9UPnHU6cZbM0+iPxjDz+cV/I/jGW8fnGWzIdKxj1Sxl5Ys0+nH14z2I7YrqxnsRx88ZEcGeeOpsL+gyHVLGRpdOMupCwZDzxl418GQ88ZbrwqVKjZEqVK+Hq8KlSpqPgRfBeFSoyD4yKlSpUb54lSpUqaj5RMqV8JPgzTfIivizS2fzjDrniv5P1jLrhjqbYy2ZDoj8Y6fn84rrljLePzjLYj0rFdbxn5Ys09sfXjLYjtiurGZHbHzxkRxe+FTUfAX9GPXIqXFyLkSkaUuBcXIuRcib4ovR9xH3EfcQ5kZbl59w+4Xk5FzLn2Ln2KsbfYi2Vl2KyOY5iVxznOcxzDuIqRSRSRSXctkUdSyXctfcsl3LH3JR9yMOC4n2/c+37n2/ccPchDiz7Z9s+2fbRZzo+2j7aPtn20ThwLD7fufbPtkocNyOnwR9r3Pt+59v3HD3IQqtz7fuWe5Y+5Y/yIx4viWy/Itl+RbLuUn3KO/cpPuUmc5zjvrE5znP+Q5+xNy7HP2Kz/ErL8Sr7Em6bEW7di5/iXexd7F/sQZei9FyLkKSvZci5FUVJPiipXxlsyHSsY9bxn5eNfBkNsfUiuE9iO2PqxkRx9WLI4Me/gxjJ7C2/o0rNlh9s+2j7aHBEIliLEWIsRJItRYi1FqGkRXFlEUKFCQihTwZHfGWLIY+tYz2I7LBkN3j61jPGWzIbLBmnt+8YbyxXW/jGXXDHU2/eMtmR6VjDb94UEuZlEWotRYhxVUWI+2ixFnuSj7ijw3LH3LX3LZdyku4k7ik+5znOc5K4rPsVl2Ky7FZdhyfYi3TYufYv9mXl45cyLkXovReiUuBF8C4uKoqV5ipUqVJbEXwKlSvg98WLF+LGyRH+iv5cWQ88Z4sju8ZC2wZHfGQsJEMGetYz2I7LBmnvLH1rGeM9mQ2WDNPpxhvL5xXW8X/ACQx1Nl84y2ZHZY6e37xXU8ZbxxlsR2WDF1PGYsGQ28KeFB9SKFEURahxRGKLEWIsRYi1VLEWIsLBxFEtLS0tKFvuWvuWvuUY0xJlH3KSKM5iSZzDuHeO4dSGK2/7F/L+sWae8sdQWDI9TxmR2wZHqxmLBmnj6ljPYjtgzT3lj/osZ+WM+lkdlgzS6MdP1/OMf5H8Yv+SOOp5fOM+lkelY6Wz+Xiup4y6o4y2IdKwYut4zFjDF9SxexDbH1Ysjj54sWMvBjGSI4rb/s/1WLNPeWM9iO2DF1YzI7YMj14zFgyHnj6l4VK+EtiOyKlSozT8ypUr4etYz8vnwqVKk9mR2wZp9OOn6/nGP8AJPH/AEWM/L5x1Olkdljp7fvGPXLGXVHGWzIbLFdbxmLGGL3WL2IbYvfFkcXviyOMvBjGMjjHb/sf8iy0+qWM9iOywYurGWxDpWDI9eMhYMh54+pYy2I7LGG7Fh/osZ7L5xnsyO2DNPpx0vX/APLGPXLH/RfGM/T84z2ZDpWDNPb94x65Yy6o4y2I7LBi63jIWMMZboWDIbY+eLI4vfFkcZeDGMYsf//EACgQAAIBAwQCAwEBAQEBAQAAAAABESAxYRAhUXFBoTCRsYFA8MHh8f/aAAgBAQABPyH4b49JafrT6R6FPj3Sz8ab1XapZdUWKhnpVXpUMV9K+WtIIE2E+4hwYjAYyyPJj1SPLIW3Npu7EqAitz8mcjQeBcPgnUmyhzIMw7jozoyV0LYiOtOIUtNlMoyin5M1CT3hAiR0z7OSyx1Z1Z0HssPVh3EuRPkS4Jb4J8ifIzTIHPAhZGgyCBYQVjIMgwGIQdwS5E+CfB1JU2MGmGnaEwRI6SYEpESOggZbkCSRj7tGyTwXdv8ABfLFT9qfUPQp8O6vxptZ+9PsUsudWxUM9Km8elTd6pvFqoZ71UKj1D1vhZipvcIII0TcJsQiHBDgRQKobEOCHBDghwKv6EIhcEOCEQo9EEIhEFolsQQQhrRgggaFcQRqluxLbSCC0s0ggZcIIIILAkQIEBECoMRgMBwhLRi1VIpkeWdxLkMq33M5lM6IxLwvnukOnHRAaCY/pAT3CZAgIkK/kSSiBJa7EySSRsT9ROi0/Sm5CoZe6XG2VDL9Nwb6qGXeqbha6oZ7dPtio9M9JUre+hlyn7VNwVlRYy1Td2p8eqbV3Tay3Qy71T+gqLKRlypKi0totLKGXulfoa/wi4LJhwOF4EtELMlYdrIQJVMJkAM76GwJck+TIZh/li5COZBZdEzC4EnwISdAwjcBmlYnwS4Op1N5Cw0xIDQ3tFAiR0NggQIDG50SSSXD6AQkkbPxpuD7OqLD2qHpyo9A9KlZ3U3aXsVatRYyxTd3+elrLNDPUp/YVFlKy8KlKmsfDMuUOlfw5fBeP2JEK++Y5u7oaGVE38ii050Whgizhl6rNbsij0Ddo0a2FusIhC7CCBAgIESzEYNJkuCOaOVS4Gy4zYK9mN+Rbm+gzmUg7ZsIJ4mLVCSt8Cx0Q0JkRAgQIjUQc6JGz3BMkkk3dA/0E0LO74s9mrVFrpzP1pXxStFhaHp5JJJH37CZJJJaWidJGxwVFsVFpbRZTZeoYgtWXf8ABeP3Iw8KxlI4EIPCGIRTVdKWLQ+MDL1U8OzxR6x7Sm0RUNLlkdMVDH3oPQlsYQq/q0zLlNw9KhiJIgQQGJ3gV9sadHgxagySPYT1QX/5MpGGnqPLsPBtRMG3DIrHchw9JaUpvRmI8mQzCv7mQyGYhyI8/Ik5IckCA6kMilEkjYy+xJOiAkl0QIEolCv6kOSHJDkjyRhMSPJmI8jUUUOTMR5I8jqUZiJEibIuDIZjMQ5ETFzGYyEeRcBJyQ5I8keRMXFxcjyRIiIoiRsbdqSNkiSSSRP4K+C4fuKWGYRO+5GXCW2HOjN5jTeqVq7FajHjCRmpuFvakk3PVnuCosruxaew0LL9N09SjGaEObDK7+jsxG7l3CaSKU5D1qHSmexT6ZY6oQXbsIRDgwDTgRfyMBiMJhIXBhMZjMYureTGY9VgMQ0O4yMzMaZE/Y7COTsOwX0KQqZ2MRjMOnDsRGxjMZgMJZRh02EwjmWxhMBgMBGseI1ywmIkRcJhMZjIjYXEYtQ4ZC0O4jyxovLEHZndk+RMTm7RLSLnHIIxOmo53cC+e8N9gkkkkZGe5IwnexpY6Uy0VqLkZHjpGFJTRaXu6GWhUrqVpYhuEQG/LRM9Cm8WtWLPXRYwrG3IoDEp3jcbmlNj4uAhNXPuwolbvQz2qGN99PqlroTG9Gzf3KGeu+L2/wBokudHrUMs7U+hT7dN4sVp/Bn3lvV65C1tCosLKLTyIFcQzzFQytYGF89rPF50JmeBPEb4EX9GIY3mNv6bNeR0NtkKHQSESItiWCOlAaiInlIkSIyHuECBAkdShMknSzSTTWjciSbrcB12GXabx61D32/MQnF2DCUp6tE8Ro6DnOhSW9eFqz2qGORUeqegSTOt/vQz01P7aGWrpT6h61N7un0afYpunpUM9/R0VUXyzqx6JUW6JLCyiw8yCBDPIQtGN7RUWhfPZooIIIGjc+xBIU2kSJEITYTaQ4MRiMQkSwYjGYBkkgqKoiRWnsdyXJuEuTIZTOPlJLhmUjWbY0LapYhtwK5Bt8ENYU2ExMxkI8jQlR6EhEkk3IwTNttLdLwJkkjZ7BJJIz3GKj0Sx0NCQxl3tq9PSVP6KfHpT6B6VN7uh/GbfPS0jRl3alqe7RmMUFRbFRYWUvKhnkIWjGFRbF89jP1pZf3ptLNNpZQzxpsLab0L4gtF2RBGjQr+iCBiMBGew4mxiMenAjHoWR3azT25HwzMdGjqJq1MgfMHTRZnVkNDOPIk/mDOZDMPkFp+xEiQJQ31IknX9RJJJI+y6Ekk6egelQz9PizinrI24tEkkjZd3JJJJ0Ekk6XBthJJIxvBMkkbG2CZOrBtiSSRjwxKQ0MSU0JkkjtFQxL57C7tS6pafq6bCyhnjTZVXLsVK6laWqGXOqb1KZ49Urx6VDWjjVoT7xIgR4MQoyPBCbeNcMRwR/8Ap6fePkZHkK/gR5CznaT5jIROLzN1Y2mVN5O9hFRorCMqHyIsSGAYBhDXJF/GMYxjGQgqV/kLcKNFE8se8ypv+bQ33prvZAbC3aXJ0LDuven39uCoGtRW4ZVASZUZDiaOs6x4TCI4CGV0tuLR8szTsHYhfO7F3elqhafvTYWKh1Vp+lNyFQ6rcPQoZ+VN6kM/Cl6h61DPcoZ7YqPTLXVFh+6hn5qfRfxRvoPUodK6i21UWKhlr7oY7eqq1Ur3QyyKi0soboQPStYLAkQQRoF87IDyESJEaCyiQIEjbMf3JJJJHD7CSSRvSmi2qvXfxpePUoZd6ptdIZ+QqZ6VDqnsMVHoHqUWH6Ohn4qX71N9N6ha6odixQz3qX6Kqyle7oZ49CpLKXl3QxhastoHqwLSyqsip1nzslCOlnsPI88T5Mxk0UK4td5M5nMuhBE1qSktyAZNAloFjimLQT4OpO1sdDrogMK0DIZhoJkKgQ5IckdCfpQJH3DfQISSNn5CZJJJ6w/1UOqe4Kj0S11S/Z0/mpfvUMu6KHoLXVFjqnsUv0VSosP2oZ/4psLKLTz7oehUWVB92L4XZFSLPndQdQsLX3VWKj+BGJlzEoC7C7MggggXdEIhECPAjjQsRgMZiIgiRLwOUpnJIQl5GnLM53JappIRe5lIxIxHgWNhPSueZg57TINjwJeHrT5RR8mQymYyCG/hiXkjzqfQj/RokkY/Zkkkkj+ml+5UC1YwWqLHTme7T49U/sKizUkkbP8AwTrJZ/SwnSS0fZ9iZJOjKJJJH2G2Jor+jasimsCo9gs+dno0s9Sm0t7U2lq1ZAafWKi0sfdL7oT+J7xa606uDSeUhip2PQRQyWjQ5dCWRiiQtIR6GWsEODEPiEW9FiGMfCKLi701lMzO4ug2bifPT52hvzUdHiGMdJtFojE6DqOiLGymDoMMXlXQtLMRFaHZhOy2CWkckzjOIL3iq7zM0zONi8Q8m5nGWZ5km1YyDLMsyxYlyMsyjMMscFwybBmmdpsw3ei52trOFQYNAMK2pO+tvhHyjJ0zsgoBlmeZ4zkKeCfI7jozqxcBAhqCYmUymUzinuFnzux61LPUqP7VFnVncGLFO0tfdDJJbEjR7by+F756WkaR1TYYvxTe1zHAj+B7sq4O3o/8/wARHiJTRTtpyecIXZ4624LBSWrq/skUqxasZsUVH4afGoEUbWFai90ehQ6Uxfin9BawWstUOrePYlFpYQQRXtF2II0sFIIEDQkEhDghwNOBNguIwGEYRSa2LPnZtbrSSdHUrD9qW3FjrViRdjgJ4BqmUU7H3Qzw7LPiW5omI2nPJN2w7HjTe1TGaw3nArGEWw6TV0w7i73I9TP0NUOfAyIOlwJkW/wGPFEq2jq3uipViosP1oZ7Hz6Xu1T6x6lDqCv6qyouFuh1b9hUW1X/AIptLaLabFcLVloVFws+djcP0S4JcHXSzd4146UC1/RGgpLQpJGYymQ3jfiCUzEeSIqBMPsjyQIDQsdmwSSSMOckkkjbh9CRy5C+ESGTtJJJJLR9SODaIvIaUbI/SaHjmQ0T4/JMkuYS6FX4t9HUffFSrFq9Fr+0M9v58v1VPrHo0M/am71TeSovfGBv7CotdIxVNlFtNlwWrLVK8W/OxL00QIEBqI+pAjwYiIjgRPYwGMwGAS8DibGMwmPQdIQSRO5E7HYnyQeRPF6BM4rkjuZtJkICSSLCQJ46qTE4IBnmYT4Zt2ZGqCPGsZhArlMhmMgu54F/wHBpPkjqOUkkjY/3CZJJIxNsidbDYin36V8WX6Kn0D1aGW9qfSpupvQPQodV9wVFjpGK+rZRbSdKy0WUfoWfOxW9UsnYsUs9mm0t0uym08u6HoVDqF49ahrQggggXZiow4MRiHwFlUYLGLp7DKHaZmQ5Z3G1yJ8zL1hfl8tjb2GMZURiJcgjbCR1aUg3DcvstT+WZJOYJ8yWkO4TSchs8hoDAzExT7Ts1fKRv6KDczGXQOb3gg0+NJkMhACwyGUy6JSH4jWLKYg1uedBnMQxCa3EVliNlMo+YS3zLqllGN2zM5nM+meT3ErjPrFkFJZmMpkMI2G5yjIZjMIi5yDMZjOR5EGHJHkjyREQEUB7FtSF8DPDqlnj1S6lY6s/ZTaftQzwFQ6hcpTqrGWPi1j61zEM/NT7oqE3FlFjEGCNbteNEtKxaQ+4ghEIhCKF2Q4MCMBiRaQqO3gxDEMSOEjwHkxIxjGHxIRYHwjCFxIwhTb8mFGFGEPjE5sOJsYxgD4kPiFWPJiGEYRhQmGxgMIwmMJJ7DVhhGEYA+AkdjG02PRKRscDTYzGQLEG2kxmIxiBj0+4jkkCXJHkdh3EbW7La18zZ+XxrYW6faptLe1DLxUM9Cm10p1Fpap/cKi51rI0Y3rJo9um8K1Fj1L1up/RUMf6U2OlPpHqUWH60OiLRwnVlwtdUvd+KXi1Q7Va5FlFhbo9bujEMdxasuRbWvhaGCZJJI2NihJJI3p5JJJG2LOsjZ9yJ6STof2JJ1cT2pN9NN4YJ1Y2Cpvspak9Y9Khi6K19mrWKix6l6399PoqGP8Aem3oqnrUWMs0M3UL0C1ZdLXVBn60TopGSSXiwPV2qV6GovFmrWl/R62BW1Zd2LRskVC+Bntk+TIZDOZBgrlMxkMg0ZGNDKQYLRXW5KRBw90zwzCYDAcEkvaiJMjSEIS4J8E+B4kbjqR1hMhaUyGQzGQazEOTIQImwOkUKA/uE6A27of6CSSRs/HoiSdInQ24VqLKk9L66hj9Tp/PUrXVFjLFDpjEFasvljVjP01YxvaLR6XC1qh1CxoWtr0p1ZfJHq7BasuRaPRfIz3hEUe/Sy7TaWtWT3BN1wx9ntRbqQQNC7CbEEEIQVT6IEOCPBHggxFkIp2kDV/8D3+jGPiNrsYTDpdwlCn/AER5ZkHcbfIe98Tc9KwygmA5O96E6oXAMqIxNnhFrOiJ0wxs7/DS5ZnmaMghi22Z2CXhnYSlxKDnUs4+cUc6EAzl5eFpsbTZRr/BmEYhmI8ifPxI8kOSHJK50hECBDklCIZsSUSSNNYSSSIGUTokbcPsiSBOhtn3qTos9CJJ0cPsidJGxtwmSSNloYTJJN4bFINvok6EySRsuFukUr4Ge+Khj/aKhl/qmws6s23NBhqBU7qVhYqV/qqm5GbXkl4LDjSx1X9dGxmT2JCL8yHSNtwkPIngIT5WjGuSv8EbeYNsfutr+lCaVC0Z+6n/AMCBiRAqh9Cy7lECHBgHwCHZ5mJGEYRjH1MwjEMTTO0eHrpgMBJ2DCYDEQkgKHT7jvIQknad5mY+Zkw95mZmZmY1iJvLMmgIchSuYl5ZHlkeWR5COWKau7keRDkdx2CNssiCyHYdhzmSq47dFIm/M3nuyXInzMkyTcW4lyMgzTPI25fFBqsEh7mXSZkZENTuJYEYEYn8l8La18D0pUM9sVK91TYWdWN2Ul3YVFpfRY2xZSvdDsM9i3bGytNLXpm+kX+z6Os/20Z5GSD+uU9CKE3AkhTV5L0ZAzjCujwFIiaTdD8glR7bpnZyhWo9CnGNt20/hpfpfxVfFZUXqYy7tS/VT+hZ8LZ/5GqFhaqLDy7oZZFRayyhl7IHWP4YXw39xUPSFQy91TYPRRR2eSWK4I9h0WUhlha6pfnTaWj1TfHdNRVRabv60s2FF6SIMCkhoTyiZpZowuvI30DmBI4fyI0p3jUvp0nX3HrGn6oVHoG2gM9jT+Cn9nxde/grUXD06HVPClYuxWpWaGL8EEa2f0sotPLuhjsFRayzSSRlzGyaK1egsqXxWLsW3TEholeASkSJEaiBDWoioErRZhgihExhh3uZkMxkOUJDIR5I8jUZNC4REiQGG9RCdRpRsQVXDkSr3Nckb0skkkjjezJJJJPbJJ0Yo5qbiTmUE7SW/C1Z+fRaM/fT+ip9DSGTq32NE9Gfkp8PjBK1F7o9Khn70MX5ptXYrUWssUMudU2rssosLXQx2CosLKGXMamqLIqo+KxdiIIkDARFKOxJpR4IDUT9SJgMBgFQJGAxmPQWmhBjMJjGcp0QQFCGkZiPLOzHmcgjyzuO4mYBfAJ1apTGNjGVEYiYCSRyRidUTxEh4EnW5zSY32E03i5JPmT5HVjVvCHDFkO7SYbxoLlMuiW9vKM+mzGUurwXH4MxmFzEOR1/aQEyBJ+clEokknaZJJJ0qSSSRvYTJJJH+o9MnVvTSSSNjepJJJOkTJJJG2ZbJJJHoJJJJH2XY2xJJI5aTpI2MJkkk6TbE6s8hkayUySSS1/hWFiptXQVK/FNlZXxJYWqGK3qhlhb+Mb3an3tI1sZ62sDQhwiEQIDQ4cGAxIxIUrPKMSMYwjEE228FueDHpIvBhGW28sxUfsYzsMrMzI8sjsl2I8ju0XaNvLnaSDIMg8puZJnGdp57E6hoJbiEFx5UN/FPrDEMYxjEPMeRcAwjIjEIt0QEMyI6CMB9RZuSMCMSCjiLEwLwwRxR1R0DxRtbJHUTwE8BIN+Ikp1XmEWgMwzTLHzNAzCfIlzO4l4s2eGdGQ4ZHJsP8QtVP7CoYvzTaWf2nwF8TWFrqkreqbCxT7ovix79Nzo9Ohn5qf0U2elPrHqqb3ahnvr4n2abF3T6x61DsXu6GK/qm6muUh0xl3YVCFtDWlaRrsI0gQQgggaNikQQMP/ABA2ypsVDPGmwtfdDL0KiyoWHpUlZQyymZ7IqbURnt03Oj1aHYb10/pps9KfRPRoZcoHUF2n7jpaF0U+gepSuduhnpfEV6kOnMu7CotpnpWr0W/DvRWr0V/gvj/USSSSXjYRJJI2TtJJ0SWj7PskkkkYbbRJI2xeJJ1vDfUSSSNk/UydJ0uUUknuC0kkY9wTqx6Ve6PTpfhpfqdPoaW+tnpqGfq6H8YL+6ncuin1D0KLT9HQz0F8Seoej8JM9wVFjpGIKlZRbUXRasZX+C6K4OSR0Nk1sjtzOZ9U2hmMunl0G87OFj5TKQPIEsCNS+h4Quh0J4E8TbGgoATZTIgaBYtVMa8TDPMkyCYY9jySXmdx2HRjxZA2O5DhmBnYdgl4Wd2jnMhJbiQnwO8iLTJ8glvCZ4GIZDMXVyQ5IckSBtOgk5IEok9wMv5iSSRhl92SSSMb7dJJJGDJJJJ+/SSST89U9Kiwb3oZ65Osntk0esehrJZqZJ098T0kkbagkZ5Cp20W1V0Wkj0r/Bd0i0Lp61DHUfLvRkjYw+y0tohXtPQi4fjVljPW1gY9BSb9Gi0/UgggaPbILk0WJpkCCait2woZDga8Cv6kOCOBgMBObeBDZHggaIpKBjHAGtgXE1wfAQeNBjMA33NxHNcNPtO8jyxK3HYvp2I8jtOwZzOS7slzHyDOI/Id2jO+CFEDfjHJG5gEc0RzRHJCSnAjCijcykbSI0k8Gg0LBE2omgJe96n8gyhzOIDkGYZA1vRLe2MzSJ8xvzLpXJa0nRk72M2BHj6HRkciY8nEZHJ26TOALmM5nMpzCDczmEYhEuJLdmEYhkHzCQRI86i3cX+HJIbWhZOTzhoGG3PXoY6CdAp6GkbL5IkiWlYbRMkR/K8C7eWCNzPZCm25HbTdG/EZ0ZePUpM94FsmjNbhvfS0ud0M98dht2V4QkL+9NqJC7Jmz48EbXKspkDRtbC/WJpCTdwNGtj2kSonclaLXaJX8WNTdlvei8K5Z0ESQy8aQ+1InKlHpnpD1sLf90Yhl1P67UtPRdN3RUrXVFhYodS9qm+J9WkUfBBA1pEiCCBEkxBBAhEISRgQ4MQ14FHCMYxjGLqwiWJvAwDAOCJFjCYBDjEJo/wvS0DveGQSwiVgUqvIi5h56qfYoZ0MtFJMc1DkciiuH8rRlSdhqRtMwSy7Q3oMFGOV7loZePWotLpULxyiyG6YlCLTc7oZ7IhCQjY2WljHatm52FFMBSEqeYxPIHpBZHri/wBwx+5Nhzm41VuEXIG9yYRwhJIm2wSeTmRmpeYwj2mxFb+tL85SZHtcCSQSboaRg4xgRIS8G3rPTWhaWuks/fT661LR+t0uBaTrrXVFhYqkkkkjEnRcLXWjZOn3aGewLVsfcNtJJJGK8kkkkaxYSSSOWDC1XNUM8xf4LmjeRxKWkXAtDZ00M9ulEiSjTaesRtAT1I8DG0cD2sGGIWEWl6mWC6prkuZ3PBKPnS0udqGe2IWJNHJHA1p8SElq6KaHswLnR6JtASWWB6Q17GjfM9vA2M8nRhsAtdCbGRbUQ/iSLN58sSVWA2qKEvZEj+rT1z1NC0tdPZfQs9BaPU/W9I0Zv1CRPSWKLXQnQFo0L7hKi6Whj0sPfoZ7oh6NFwtUSTu0QxM8RW0T126FqV2hiGeYv8F42l861AiKlpkNKBHTIkNQSyEYD1qQ0RApiJEAu4bjJKpmfTymUj3IwyGcymcc3JlMplMxEuINv5M5lMw+QmbxkMiJ/KJTgacibjmMxDkhyIBHkjyR5IC/5H0YmtRhH9EQIECRvuEk6Sb/AOYo0W0Ztkm8PKA/0DE9LWbBknRn7aGN9CJGLR+8KnloxFwsVFwbWentEfDLxaHqM9mh6VD1vCbCCNGhAhLSDxFbRaWFolQXcJaIYrxf4LgqXZgMBgMQiBUDEYDAPiFf2EvBgMBgE8CpexiMBhMAtIXExoxjAPiFFMCMY+PTR7EZsYdFhGJ2oxmHVLjDye3kxmLSPhJ+zyYTBoMA4bF9GAxGAfEKbWpsWjDY6fad5mY+Z6LzCHIhyGhcp2ZDkT5k+ZPkNXk2GaZRlaZzTTKSGo6mAG3LwMYwDKh8qL0QyojSn0E8W25HBHUTxmGXUCaGQ9i6PeuHytCevoSVdpGaT5jIe4iTcf8AZHZ9EOGNeH9EDIdzE/o7jvMo3OWnnM5lGmQkpS9JgaZ84ndfkymMYhkQosxkIckRUtxUKMw28ToDWE9iSdDbhhOo2XiSSRhXi/wWlvam8WqGe4KiyoW1YrKbhYoZ7Iqf6U3EvjAFRe6PXoZ7NP6KfVio9csdUXuj1qGe7oZ+enw+OSrUXD1qGj2NIIRCERwiBgMSETEQtjEMIwh8I8B5MQwDAMASlUGIYJi0kF7ENsYDAYB5xOdHcZX9mRkeQvbdiTlj0RJwbF46LzJMoyhi8x0v/JH/ADRiCtPLF/gtLe1NtIy7sL4mtp1ggVF4sUMf7RUWFr7pu7CpXVcqj1D1aGJ9tLe3l8X+uWLqi50evQz3dDPyU+FP3VP6IVqLlIdQenTeLVL9asqLxaqBUXLVBGm2lfT5C/wWF/em0/Shly7FSu02luh6CotLdD0ZU39qGfgFSvoXpKovdHq0MZ0zzZ/HusVF7o9Gh06Z7CpVN7jp/VU+sevQy+kfppuFjql+lD06ovFj4kuRZRYWUr1D0r/Cb7aSbYbf2STqPMdmwSSSMPvpB9mbGgNjdEpG2G96A2MaSSSR9j9qBI4Jk0BtZSSSNjGTJ0SN9Q306kjeiSSSNkhkknRvp0t6htlpJI31D/UoY9FM9pUp0v7abfSm/wBHoUMvpH66bhYvhJ6NUXCz8LMvRZRYW0r9D0r/AArQZCdyjeiQB3l5MmkyD5BnJAW9G3YG+eoTUEvBdFx/lQEJhtDcnQEkQPbb+aY3d5b+RcyjFuIN8vOscRflk0M2l+TYGWZpmjQWN5CfMzDL0rroXN0uTpZAdKGWbwWk/cVB4ZNj5Rr5ikrRylMCbhjhaI5iMdJHtCUfB0R0R0G8leCwJRBIToFlddst3R88s7sMgyNMbhOuQny0Xcdg5Oh7Sdxgf0dg8okRytDOZjMPup8C254GTCMIcFyRv8mEZDIPmGtzwZiPJHkhyImbSJJ0Nje1AbGBMknQ+4fYTqNj7ydRs8OxUJaxtidEjYwTJJGxlf4nsZ3RjCWaP2oZYWqh0EDMd3c3ZbSvRLSUtHhhHcpu7CosP1E09HFXFnb8lq7FSfcJXOkpaRuRKvpJEbd0LZcCdshMkpLcVkOmGeNFFzHoqKnS9/DwTr6bPRoYnu6HSTEpEIeyCCBo2dAg2IRC4NgXAhm4PiD4xwQ+EJqfZMSycTAMAYtu0bEYzCItsQlsPJ9mf7GT7Cf/AKCd93c/7PTTBwrlwPZ3ZIM7XyO5FuP/AAQ+KRw/RhEvuYRHIRiRgdZ0GzwieKOg2xtCtBUZ0SnoHkmaZhL/AMM9DYOg86W5gckXG8X5PEtRaWqFoQZL6zYD0hzDuPe3FDPa1jXHRNjwp3dlpmqRS5gehiX3uJypJo+SfJi0ikSx8zUFvbT9hmxImh2HPkWCWbeG2otIXJcPbwPTNhW9nJOKGNu5jbrkbeImq8tyV3bSPWAi37QRcdSFFXDkJBbMSnkJHluaGOwSfLfmPAt2mSPBkzvQU0vcRdtuk/pI2gt9eRCCW4FyJ+BnngSCffVlrt6z5hDZq5azgyjc0Z6LVki5PDFrMrn5tGhSEid6y8kRSnkdvYUehQw1a2REhFR+NN0sVFg3tqgTYr8FoFRay1qyR94xBLE26rKC0tNilkLC1eHN60ggt/4TPWLWSFrAg4EYh5I9SegNCJ2z2FsjfBsZpDk/4DWV8i7abeRsizxRme0IbgctLwM2flpMLsQSdH5x4H40ocbIFaW+BikGEbG5RbSeBInscA2KyTckick/DIaSCET1psidyv5FkQ8bjSJLBTg1zBuuZY5ieSUWB2tnmF/CeyLOlJ63EJJ5ZtfahkWKQ9FTuZ5FJfBsfs2IqHQdo0dxkxvwKlXKHIlMPdD7WjuekbDj/wDo0Q8MROxsRTdIJLbVlnt6tVLZJHEzJcTrZmwpPCEloz0QtGQfcBRbnA0/k8GyvCKQPWkqw0RNN9kMqQRs14NyYfZNsI759tHXZi4gRIMe4N+1DJf8DxAE07aId0l0sE6SWj4KXf0P28JjUJcRS8jU1zRge9SE/aSfwTatjoFxeMssbIXewUA2DexjyBLG9+Df0EOuoutHbRvjuSCqIQVJZJkJLSbFsUtico2L/hMuB7o2h5GycCXZEQRJJJeLPRaxk9N5ZAsHgFySZQSSHvAhxybEkSSNjfYJjJDkSfeG1lkaTIQnGt9PHs/nMWkOCwjS0EW/0RsxuzYEj1JJIknQlRe6Iufg21lPGgSToyE2MeLNIsUcrYk4yL8xsQ6cSKkpcohM4pOWWEpC5/EY4QAiIWrLH912uvlb6X6c45ejPSUNC5NoZbl0buY2YSF1Er/i2jmdg+TuegeTyDBjy0ejvkKY7iTWVL8hLWszeCXhodJDlfA1Cd/JdLENUH4fK4t20bbtiradUXCK4gTWUh7MejYoGOwPjUt5EGDa3MkXgmeS2k1S2lHhFxsbg9+QxWNkPYSR2ESNgKMyfQtSKBmoywbBctp+S0Fv+BjfQT4OjJ8ifA34LbINAxaRrViI0SegPiJQ2pyZghCdEetQaa2EB6sBiddipYQl8CZTpCSbjY8ISElJdCdWLdkizsiXBHRD6ieLcjE/kjAjEXexcjE/gjE/kWaxB2IwIxOqOiFnCLnVHRHQdQr0CeCJ4iQngeC8k0DediwjHw3ItvJnGWPJnYS3dkZpLSzyDku7ydxDhkeGdhu7We7X8wl4UIXPrJhF2+GYxjGEZEL8/AzGZEeSHI/1DL+RJJI2OUkkjZ5sEn9BBKtxkvjbIkehhV4eRJD2EM3yxPRpkkkkowM+gQiSRjb9INiwLRCBiIVCpIZA2EB8IlHwKxvaysKCBei3/AxPoEI8ECA0PqyCCCBC0QQQNEbRIgginjS5CII1fppGtpZpGiaWCCNLdEaoexT7IqLh6tDL+9DF40vcdNroKj0D1qHSmIpGCCBpcCJrwiPBgMSMCGlZ8MxIwjCMI/iA3XQwzD0CLQiEtjEPJ9izfZm+wjlegbS5j2krDPfAjY380IBUJx/owh8o2LomPcjAfAIB0F2WlOqWzosmw5JmGWZInLuJBMJcM6swMWLOwWgMk6GYVDJoVyxMBchlImJ+BplF7FtT+J6JUM9Km0s0uktPOhl1RdTsLPhZlhZS9ihns0+oehQx5dJcpe66bXSn1z1lRZTWfpoZ6ogWv7vi3rFnrR6M/el01hYtYE2P2qi0jS4WSCCBrVsQRoTYYhSINBCHBDgjwYQ0QScGIwGAISsWP8DPZpZf6FRaWafYptP2ofwGKiwsVXKi0spe98WegP8AXQy+gZdp/sptdKfTLXVFjPXoZb30+iqf0UvvTesel8SdNfLVFhf3qyosdDI9EiVG0dC502hU1r/AzZ2CoZ+NNlV7VL7F1B6W2JJJ1ySSSSwtRJNAySSNn6DbUBsf7NEkkjiTJJJG+o9AnWR9wknRs9MTrI/vJJJ0/LVrFRe6PQoZZ3/FX7ab6b0D0tWTsPSP003S1RYXVSVFj0ZJ0Yyha2lmj0bL6bBZRdLH+G9CUjyRIjNjoiRIcmQXAkQMhHkiKh2LkMhmMxEFJszGQyD5NBA0MmolpyFEDyFQIZIEciDwjIZIZIcMhkmVicXEuQn5EuRPkKtn5CWJo+WLkGWM5EIdLc1LZbA2loueZY4bxPsMkyzPMknHAyTNFTMgUcphm2RYlz03cLBk1jPYQ4Z2HYJNcCVNwZNPMTW/gWU7xqFiD4Qst/kYhhGIZkI+khyQ5Ickk/dJJJJ0k6yesN9RJIxlwSTq/QSTRn2dEk6vZJJJGe0IknS10hjK0WlhbqWhgtWXUrhZ/gYmy7LTJHfoRLRQIREogiRbSWI+1NEmULg0sZiOASntpsJhHxnEIVjCMZhRCsKl0JeCHBHghwIgqj0b8TJCIQ0tYgQGhdtEhIgZ3HREEEaYkI8Ce5BB6w30CIIGhfcRqvh0PLLOVL1g+S/wjL0HSnp1hEaJJQQ4IcEOBUtvAifWRZF2iFwlGEPhDmx5GMYBgD4xZdopiitpoe4zP7IcsR5O5Hl6KWgDpbx5IZaX/ktO+L9H91okFBdRwR0RPATpuR0JyTN0BnIYtxc7CHDOzQk7CAzmUykR7nlDGMIXMPkGpyEOSJEVITGiSRuR4YXwhAfZjbf4bV2KxD+osaPTSdYEz6LS190MvXZ4NktvgRm1Fq0mH5N7NF3rSdbDcvRblqz0qG9CEjFv2eOSDLj029kNCSbShDtojR45PFAnwh9jmTew8TrLaH+oUmNwoLIOtE5wkY7u3Z1IiUSTg8LYiEeixaoVtjZNPCnIrqe2m44Fhu0GrG2FNyfAhG3YXmlEmbyPUG59j6LOjLvalRtJlUMSeVK7SQSHcK/GiUaJwerQ6k6XSIpeVRfLXWsaE+/SCCEJv2EhHgxGI4w4rCkpzC4B8ZAEtwYzHp8Mi6/3HcJNF2GZkOWKEkOWd2d2bF3Qkn5VrsVjkE8Cmt4JlaByA3xoE2nMm/eWMpeEH4f2p8BCngUJqm412ZYXqGWMQjketHxK2koMkvt4EPYnHMIfBvcIsS3ZFrhOw8oo3uJsLD1NWM3sIwaKG8N5RLxptBKTJok143cRtk8isyvAhbQVj2x2dkJJInPJuF2xkW927m175CJNwR3ZNG3v030hO4n22UxtvEE2lkSN1N/slXwi81xn5uiUeJ3F+eE8xmZRsMskZCvccibklPAg2EkSE0z3qDcrwlA6WPIIEs9L3/G9DGnpKCsSUINmyP8ALcSgidUIt4DWY30Q5vyj0dI6UimJEG+hTolLsR4waGOVXbE0aluyEzQ0+Cz0xotkhCyULdwb1sil75BSinRCS2T+A6bQrUWDxIljFENGS3Qr30n2oehUrKGXMkb0P5ifZ0J9kLCIcg8inkEtCOSr6V7Bux2MSRov71IGIks6Xk2xpS8jsXxUlu8DcHeCNeYdtLNrcHlrMRDGSDch5BTAibsoFaJ9yW4sWi90LVlwSTS2HFYiQXGUJHLELIsISIhCVNoCHnSGhZyJJKEJA5YTYsKdtWe/0Q7jcvltEPqQkkiBCAx+l0ISGRirhIFRe7Q0ZBAjK2RHcJJwYpe7HYQ0XjSxn/BmhkPVwtCG5INN4rao2rckaTbWJ7nBsFweo2K2v0fu3Z5rGbhMIjzW5xLexDiG0sCUIeLcJXJ8iLVD+DJFpKRhWyJ7CQiH+ZIx95JKUVFg/buxiHEMNrwgxEjFoSKQtAtikWGTpCoobFuA3waN24Ejsxs4wZP4g+sSST8l8b6iP8iSdPbFpOlg+4kkkkYgkbEQ3liLZDDUTEbYZWTEhklBAaCaCUyGQyEgRcm1cSthSLkOULm58GUyGYyIsLFHczmcyD5Bc2TsO07iBJteRYmJncYmeOdhK2nYjwyHDI8Ma8MhXYd2h36apOtRymUaneIMhk1GubyYBgGMYx/TIXKYQ34CT+chF8NK8IhCIEBsfb2ySSRhyBvokkkT/wC8kkkkl9Ii/kQQ8DBESUaMYc0H4EESUG7MCYnYhQSSacYmGykEMPyNQd4pKSSLGkcB6ZsFj+iyi0kMPYUcnnv4IiRKUCZlzwN+0SINJBwEDJbg3pPJ5nhCbr+RakH+QDmi5tWiyi3oJ7iSRskfyLpt4oUFtz8C5DKZTKMUgZzOZDOcoYV6MkwM8hMS5HZoReRDQ7iPJDkZJaUvGE1wYzGYR8ZIbeDDQokHhERsYxjGBD4kKv6CTghwQIC/eIQiCEL9Av0EEEIaF39iEQuCFwNIVfSQiEQuCFwQhsIcGBGMYkW15MIxjEMYRS2WGNpHO0RQkLV8Du14MJ2DznaSFyZ39n/6BD/6abzITKfMztJHl1O4f0RwDLm/JHJaHQdQ08oRKCpjTsgyhSDyIPImXYQ4Y5BHTzmcebchtzOZjGHyCQjyRIkBrdioBtjz7JJJGy0LTbS0Q9yaEWNIHg0Jc42okknS+o2Nk7idDDD+alBGvh2WUOqWlihNBUrVJWiospDPwqrFS9moFR6h6VDL/ahn5qVS++6fQ0+ietq9LH9oeirVnlTupL561DoSCBThELghwYCY2I3YwrXB8RaBjo2QhczI8iPITczZuG8jJoYsNvQNs5AEMc0RgfyRgNSRGB1R0R0RsW054ob4Bsp4G95I2MMv5F2rW/0soZ6VNpYpK0VKxS8RUWlml+VDLxa6+JPYFSvUpb/6UM9pUq6n+2mzrp9A9AnR6GlgtXoq1YqZfSXeizQz2Bi1YU9ZLx62k6PXPW3+lgxaWDbvum5CtUQLSC4soQ8tGMeg2NoNk/JdLNNhYqX502lupKlYpeAqLCzSX5Fqy8WuqiT+EvWLHVFh+7ofxgr/AEun8tPoCs6osFonpC1Zc0P4I9alM9wYtGN94qF7rQMVLPWwsQxaru1DL12WDoeVN5ZSvejG9DbP8J6RZ0nRl0fZ0STo2gTJ1sG2EkkjDe0T0SSOMJJJGzwE9SRthtlAYTWlEhyNDcC4RHkhyZBpyJ/oZDMZx8wpxvyLlMxmMxeBeHgzmYyEC4qEszmQyD5hRsxmI8keRlMIckOSSRvpZJJJI+/WSSSSOFjrSdLHWjROjLvxA9I9ChnuaedGewLVl7rSPUz0BUOLUMWr2BaSM8SzRi0Xuh6LaV7RjG/xQvdE4s6I6sjG22OpLglyJvwJ7sGIwahRLUEgwDfEajk66IEFYEW5nM5mMw4m9K0jIEtxPk7jsHkxbJF+TuQ5Y+RjQRGs4R8ZAYMJh0GEgMC4zGMRjJHYitjGYzGcMjtjBoMY+MmbNEwGIxFneDCSHadw4nDHzMjy9B2HkXcQpBkGQJO25BuojPCYhoGMYBHJaG7CJCxE8AnpFOTAz9AkXYedbM7iHDO7QaZEhGbSLnHzCEeYzEdDfeJNE6XOhtpJJI2hJOk6FqGSSN6JiRklpYTq2XKHofbWR6jehjw7JHofy2iI2iPBgIkRUCqJAgQGIBIgggTbSgggaLPYiCCBBNn2RpGh2i+HsVgqLx6S+FnoVTrXVFhvdQxpoGeqqX71N1PAFbWCw9ehl4rVl2l7WsEIVIRHYxIwjCcAsMwGLXFSuxZiHI7jtGxcMabkZ9Bm5u5kRkRGB1RwhoWRIsKKypyBcsySXI7DbsYGdXqwFvI6lmFNEa5mM2g+TQZB8hyBPIpxv5E9hsbH8tp+tNrPSoY6Sw/ahntCp+dLwFRZTs8BUj1Kfu0M9qm8WuqL3VVWd9DPVVP6fjYK1FjN/XQz9gtWeq+LrnRv6PiX2BUXi1Qz/wAVFogggaLolpBAuwuxBAgNBJBIQ4I8EeBcCosYjAYB8BDwMBwh8RwhCVhbBsb+a029lNrpzG++m0tfdDLHYqf7UnhOxU/2oZ4CpXpfDT0CovFi6oudHpUvZ0M/DSvi73usoVHpUgxdu+n1Xxd6x6FDq1/am1lihn/j4gZcqLKGIqi0spMSNjY3pNsSP5rKtaNtoZ7tK0/YkkkbL0Jk6JHH3EkkjZ75NA2h9qA2TtJoG5FfyJ1G06OiPI9IR5oHuI2FqSfVH1OiSRh/uEkkkj+skkkkbeJJJ0f7GSSTp+6FbWT1jboJJGNt2U+ovia/1THTWfqTRa6Vk7OqbxaoZdFRZSOrYW0MYSNjYxuBtv8AAxoKJDkzGYRD3EL+yPJm0swiTIieoCWiNiPBDhnRnRjHEIUFtQsWhSXtosBPEniSNC2asFIERwzOZ9M+Q2O9Jx7Y3Dbw7DsOw2bhN0hyyHLIcseYaQnYZ2Q5ZmYpf0JYuyHIjyyHLEz3WFPeZDkdp2mWeQXO8nzM0yhzNma5Ygs9BhGVEc0PqLuomdj+R4oXJIngIu+yROFlA3bbEhrtjMJ8zuHkI09ncg51LISGfCMhkMxDkR/chyQJJH+of6ySdGxhkkkkb2JJ0SNsxzJJI2N6SSSRtw+wknRiCotLKHoVFpbrIxaHoYcbcPs/wMQUSFFhUPswGAwGHRLgMBiMBwhQYiHBAgRE21IFE3CRBA0XISI1tLH3Q9BaRpcPWosp7HS2rsVHrHpUrnahnsUMTewp9h02OgqPSF+mhoVS7EIhEIgIt+B8RhMZhLZ8mEeUSPLIcjZe4fDcjJ15Z5DcwCOaP5OiLW3kwKG7yIqGboOjIcMRNvpZzOZxDaGJjuQ5IcmYhopedaA1ICSyJkkjehySSRsfdDY2NpPsxtqVb42XuhU/2oelUWU56bVO/Qy+lYWvulAqi8etRYexQx09i7FQ0dR6VL9nQ6aZ6qp/ZT6AVD/UelQy72p9FU+1TerwLWCxd6IIIE20oIEEBEEDEYh8BAsMKxhMJgGFrrUeSHOntHdk+SfJLkbzcnqCzHIOVpnyGUa5Em41y0My09ksptfG9AqfuUMsLRUgtXotU71DLiyn5d0MZKi8WOqLT2BaulZ+wqPUH+onWwtdum6hZ6Kn0HTZ10+uehQ6lemqfZpudUyzQLRkj7LsTahlr7oY4p6svFil2U2llLC+BY9E0Kyra+Nj26BU/aoZeLHVK/0LSRlg+0kkksH3EkkjehtlpJOn9iSSRsbBPUkvDfVQH2G37i1DelJJJI4J0BvqLHWsjbD7SSSRsffRnX8lDG/pdP56fTPSoZd7Co9JU+7T6VKYv0CWj0TZdllDPLuh6ZC0ZeqLIqLS2mwLV6G3erHVFtSx8tVDPx03D0Ba2F/oXw0sLnVWxUWUjsPRWjLx6Wi0Z7FDxSu2lIevpFgWtha/otWfsp/PT+qn8tPpnpqiw/UKj0FT7tNzo9al6mr0tXZZQzyoeqLW2qdO0tpsC1ei5i0Y/ipWn//EACkQAAIBAwMEAQUBAQEAAAAAAAABERAhMSBRYUFxkaGBsdHh8PEwwUD/2gAIAQEAAT8Q0JUVVK18UVXvPqNPtBvH0Mtb8RPRgYe/VHn5vQyzuCxoxZbWYzA9bQowFRjMx6AVcDEoggYlwTxohUQ2EBT7Q4Q9icMexFkdRTslteGbMjWrAq7YFN8VhtObTjVgtCwZ3ZycAS9hLrSGVCVkKeka1aRD1i34+oTpkomJGSmH70fqRYpkaodkjgZ3hE80SLsybrdBYDSsxTPUkEY5jnYnC2gnCTOJnGzjZHZlrRy0FFLj9yoO8PbKfgijfLGy+wKgc9+LL8DMaXTGYkillciK9l0ufRnmlyMJxpcE1FYzG5ZkhNxR3DknJJbxjEhiWRHZi2GR6oW7Raj5zkH2uQCRb5zk3UgZJ13UW4JdxqOiJBNiChu4SEyFjQ6p6FRUu7FaiSS9MhKNwia394JoTL32hOjo8MtRPdpeCWIctDPSaXsMvnqxmI3iETTHTjPQPUaHR1V0HpIiq2FjRme4E0NDdhJv46LEX/OtCCyEIhUaRFJ3CSCBAhbCATA4qDhE5ZYGGMcI4Rxhx4GIKx4kcY4RxDgo62JNjgOAabCpfJCoENiFJSTL1b3ZAgQEF3aEhAhDQiCtEQiFCpPYuMIgQFUCIEgk2IDQRLuiYwcBwI40KYDauEcQb+khwpGEmapuJnEyHljxqWNxSVKkFkPmk8m2XtaY1pyJJTzOk6rQno9EahRhsS9UI0joNrIo6nqOUf0W0J3Wl8ZoNE5qERS+AXFECAmCxfMQxMkka4sbuJq2N5kNbRiWnJI2SWjxQmTTAt7JJJI2PcPECa4DBQqOk9FRDHtpRnWabE5Fv71v8ZMCfxPrpwitFneRb2NHrFmhatpVj9nSrs7RY0ekXOWjBjW9BmXZMNGcw6lVWL5DDRlMdYMpYVVbHt1gwoopCEQLC+Rf7M9YWjux9dBnwyCS5MUoWFgkJiiBHWiEPjuECSlTQ03Fp3ZO+ehJ1j3YgMljuCKpyiuxF6jQ2Q3BQmVdhNYIMknkUSY3C2hDF1D3RB1kt53CV0PI3qxDZ1KGK4uhyC3znHvCmISC3BbpzCYdDRRdN/GeCUFWGuKZKJJGDxarMhL4QtC7hb6DaWs7PRiLGgngXx/rp9uLRk7oxdtChk6Hptl9Jh2haPS0/CiLQstBhWTKYtD20kz2BbLRm0xLGIq4iRoMTOLSy/zKrLO2NPyCWfZLdsdmV2NicLf9wWrl7SjkZXLO/VjUj4qzYkt4qPUFb7IlVkC7ArEIQ1Ys7wZuMEkQIQ0jMRm+SEQqDBOHqJYOBHGcaIeEXKh7Sm4KBRhzFNtKYOimuYD2VzGh5e6BAsXRZQPpUdLortdBEgJ2EgpDzOWPrMKcTuYDYuxHZ0dxjV0y/ohb6Ezqh7w4snylCUgREj3pw4sSkCBY+R4oQJRIw4Uk0Yl7dfrpUa0Z+6MFos7bGlvGln3dDMj0kv2BDrkEIrQ9j0kKpdDrFECA8uPChIShiwQAwmMY3l08pjGJkmYxYq4UC0bIGGhYa1oVFRCGYXB0eRADO9kmOdlEC+44mJKFQ7I+wfBLz2RciIMIdUTxVbJL0nAWFENjR31eyTR4djUmcrNmP32dWxvIParY5J3yBDYw9idexcm5vBhN7XgwTAee2OrQqT+BV8AaEhJQImIrdggaVhCsyMJiKUhEMklchwaaOm4xxdSBljl5qGIkeGOUNKCnWNhKVkEJJeiJXpHUtUoydsUWMzmHIppy9U4gO8MD3iZ9I3FQLiHEH2zhhbI4BwDjErCS0+pBVhxhbhyGd9GIKnocxHcjuJEs+sjuR3IbljKJlJ5DkOY5kRGSo8DjHGHshJrombZDlB7Q4Rv0ZdscY4hwjhDz05hiUhyHMLcFJri6y0JXQPbjAzZORMBbI4g4xNJIuBwjjHGHSQSym5znQ9kha6iXciIpgiKBDehBCfYS1GETQv8AAqKiqgXP3jKizEycOQQSr9TDDtMjCGtbQ3Qc6fZQxdAGMa4GsohnMw8IluxvyJ0bosrWxLLyLF4XDbo6sW1WxoYbyKrYxYR61JP9SwviMBvDVMk9U9JSB4ES11sbcklNsZEybQiewym4Ftt3mtQKie/RbIcm4hALC9lWjAZfMtK0CVhJEDRY9ZmR+EQOCwiGIZy2jjHEIeBHIwotocM4JxRSAhtnFGeHpHlFg9ATkhyvJwPyQb+RfNgbbnBzeR/QP7BGifIfTXzFueRz+RyeQ9wSKuE/fyJO/k7h3/IpaCooxPaYozDAG7JRIege1HkscUeyOGcEUXC7FsTjnCpFncMDqShwh7YaOkceI8mBjKi2tCwIJSVJNrwcIsg1YjvH6GMRQDzblj2eYTtkimnrEl8h009Gs2US8DGrFIt8QnT5G06PI/6i4aRrE5ExCEKip6hErYEokIjKSKg2gpJm07dBsa1xqh7O6HsFXNK0hjIRgSnG0ZxUu8Jqh7phRjMWL51V0Y+sKBJJdgeTxHlGw6Uiih6YlYgQlbowkiuckti2HmzTYwuURC+EBsQES7kNiZKD3QnImijRiemEquWnmIVbe8JrsixSTLQ0jRYEdIPY5Z0qx7FwESSMM0+cBlUTR72kkjMHZBaQWKMkeGbI9MZI2M90dSQ1vkVGSQdkfxjog8Dz36GoxrZhoaDh0ZC/5DQShiNuAVCRA1SSxBAxb8DDUkKiFRMVUlgWlJF06C+IIbGzI5AgCeDusQrfNNzJ7h+IfZvqNVlhrekxUJLcisi3TnE3qO9RFwmtM1O5ynKjlGmuKTpvqFuHJQamd9RMESBKIB/KJCUShtDKQy+AVMRAgtLa6Et7bmR7MdfEK9WeueoqyWIoY44Ta5HNPEhUdEl206SyR7MxthUnOGZ+5d4riN4gtCLuKEKlo08QtHIi6G7Fn7t9GGljMXSSX7lxYpenuj0wqs9iOiHgv7QWkFVo9U9QMaEixDSnahBIgvJKMbHfwnpkECiWYvlMTAmMeO6J2pNGcwkjpmL/AJDGVD2G7VDWFVWFWegY/wCK1LLCygSECBARBDgBpsLVe1HG8CIkkkh7QmdhZ8Y4BwB7QRUwPpag4AzQMFnOjFt0OZ04GWOJ9xo+rI7yXRiIshLLaScW5NilxwsYtgMo2Ie9E1yIQcoW8N5xBXcbNGwcg6UMXIML9dBVLeEICfhBN6CHlETJO+FuESIy3pkML4rwYmmAsZLshVDH6LYawmJioCr4VfUaD93vVmOTLrqkfjCq0WLRHQPUCq7I6reOiRgX9tVinvsWj1T1lGIMas0QMtAqNDR6pZ2BUQtR5IQgSGPI4DpBaWt0YMsfdR0ew3cGpQxiGsqszzAWpCFoVPWESXdFoxPP08pfomOxj0YCa+J6cxe/fQx0u7pYD2exCIQ0MVJhE3AkIEIVAqggJNifoh7Qe3FrQmFME6ijcDGncbFS7hD6hk5o+iUuMNtSrIg6GQBrahwV0FWxdsSMlT3dDS0GAyemRUVfxCjThojEBTLmhaZxYN3SLZj25tAqJX5Bb6OREnVDiyhCvZCJATJHu8aAaixEYUNqBo74dfGEyaPY9rVkYil7EkkknnmWCUSNKG8dtUQomQyCqMBoPLZ6MSkSI2hkyT8IlIjXcSxbVsxOkTTA0FBKFNiBaYkR00S1+tQRFwJZMsBBAdhaTqESSSiAsVquxCE6oVM5JIfOk1xPYFoz6UZnMejAXpenMOm0b6GLpzAXRMznqaMS4C0W9g9LTT8kSrRH4z1BBCILQqfE0IQiBIpdz9BMC2ES9BxyP2zMdsogcY4A9iRA9trpeGSdGfsY390hx5SBy8BI+6QDKj6TjOU7jfBKGnB2siHqfwPqcrRW49S7j4H018G6vgYQmILHUoUWEh/8DY8ND63xnIx5VVVdUYRWiqfUfQBdQrH/ACOOMW07wbaeBbfwcbwcXwIvg7D9gtsfrRxfBu+pB+wlRZD9KN9/FK994ILMI3J8HK8HJJuXHlQWOZRoesiu4ZAnVxb0W+G7DIZF0TYbVnVXGdwukwUafjF7EcRJjbSiMbrKkEK68hAcYhz7Eazlq7jrJdhJi4/kkWT/AFoYzIx1okQtOYSFlOslgt7wtGQVL5NX62jAWDvpyGbu0M9sa2jEaVdtDHgPSaMWNfW6ekNPZFXEb8wS1WW90en0YlvbC0I/P+lCrhbj1WkS79b6V3Ek0wj0DIpdoWhSF6QSqtmXK+Xpe2tDO4k9NrHrKsGJc/npJJlikDRawhQQMwL+6LSS2QqOnh0KgdSxNCuJBbEpOhxKpYK0QGg0ES/wqohVVMBKT3F0hyHIcg0siip2FuHILcIifiJ3v1ERrBEal4I+BEKICIJ8DEJJo1w6l30NjeELBNWsx14ySSRukdfEJq1qAiSaesP4RUZiMmOh7HB64nRj8qFVlqd/paUL4zt00yX/ALX/AMXNiy/YVVjp9gJ1bpS+NozdtVNOgNC+dVUsfujBoeEW9zpJzohn1jGKjJxQIdV6aR4cxUgQaBpbEFijwJTdtEHAqMxTGrFuGD/BKiFVC2Ir2EjqyO7EvqyG4hWQ93ywLeDCqucaUuoPpiDJRuYzjICNiOJ2o4UOTRJESNPIunIQIeoe+HzQTV1xr6zmEPWKXUOuWS1ZENxDZnAxbQlP1g5KqQ8jFwzXocYWwE7qNNxHUEhHcSETxrIhIIjpXn5lqow/mEvbEkkjDLwEkkjY6+T9BtEj+q0Yk1f+zFVntfTodErQ8okxUYfxD+Fo9YvdoelWx7XLS3si1LRmLG7tJAqsZR7mIVWhjDvC0GoUxEMYklYSrEsLfcpSpiWTIlVsyDBVYx4NSohCFVGNIqwYj2e2nMLb5kEEUzCpdoaQ6PdW8QNkqWxRFc6QQInYU+8QIEBqK+QUGDiOIeyIeAvBsTdBxzgjEs8IumNJZEjEKYklaWN9WLuU1MJLZYJxZzbc5xAIgLF6DjEWGOAMuVFdu6GLBr6x9WgCizJobMawYUgmdGLdY11DTZNCPwRN6R7QnMoZPg24WyEm5ARbC/gECJEtjQn6XEokIjsEfJ9BKJo2bvGgYk8CMZUdMXaJ/Aia+sWr4JJo1h0Oatjfl0mjGs7B7IlEjZmHXmySBCgshAkkYeUDWUTQ11AIqNjqHYe1DDCiiNEkmLGy2LRJI6gcmFSRJI2P5h7IlEjY0AwapJohCoqYnlo9OB64T0Ndqi0XE6kdiRKe0w0ZNOMg7iJkhVwGlXbTY4v7YggVyzItD1QthsOBIiqw7gSWcUMkaPTZGEQnQ3T1umFRdZMoe46PeEICG2GcY4hGxH1ws0N2UGQl4WjrlYwkd0zovYcVvIRCYTdsMZC1YfRLkkaBFfYSoI27fIlqy+KdfFJyxPULqR9JuQBE/YzNdw8Ez6PcfQ8x9yji+R1zh3j3H5GIt8j3vknt7hnx5dRVTdhpNbPQ2tiF+mLcaRvFuC2sb6Lylar2y2K2oPMRBEqdul+wDKwjWQsiiOGH8IzwQ6dXJG37gt2ikuwirORySGThcTVmOWNIt5eRtph8j5Rc+P3Fu/I9yLqMQSfCSBdz+gMZQ5kebIVSGY1gqTbaZoHLu4k/YE/4Rt+Ic8g2+UCRaH4ExCd1Y9wasMSokWsRbcTMKQyjuYP8VRaZ0uVCSSdAVSRsxZMtLmPRozAdAytD3XZKfAtD3HttGAyrWWmNISl1eiGEEF8QqsuBpoGZ8lPi4l2bpIwEsC0emPNDEnuUtKLINWzk/qh474joC7hg1bpW6Gh3rSKRuNWTY5mkhA/kecYviFkqTR7yGMmnvRIJRSw3hEjtKrGLLVy/roMv730aGP3/AK6VkzUSgSo8tcCKGj2QlVFC37mhLEIVwiBF4RKtBY7QgpEECWLkbJCVEhpGRWEQiFTILM9AaGrRIgghUEQ7EKGkKpCofcSnAQ2FwItOoRxDjEPAXgHErDh0CLpIrRDWf4yKiq9mMk9ymKhIw1yCpJKHUiKRp0kmgN4wxmBZVdtJDtsifWfSjpiy3RMDMkhCRVeghVbMY9QaDN1UQMqkR3auknHYFVjeAsqJiOB2AnIiSIZTpNCBrsnlnGGG6V7hjG2WcxgvrTPwjoXVfcbsYBdDbdCKPdVGNMWB4Vu6QlqtHpnpKjHmher5CrgO2x7fpoZLgukvqKrq0Cp5SPYrJaPYaqLbvaHpmBrpuhhoeOwNOjxPXQlVjuewYqjpnMYqMZOAVWN7GGrMhCWLQeSS1UPaMas94xalVCEKuDHRFcJKD3AnayFwHxhjZQ2iERBAaTHgLdLGSbqchFUxRN4RKeKccnI0zBMiDlHEOEcqJa5dLC2RzC3EbgQ3d0CGg1EpERB4RURogeLFycEyhvE2bm5ECcIewrPhiCoMNfSpJI/dnsJ1Etl4HLhKYmpt4mhsbF5Zc+yclgpvR2DC1AYT07IYQmi/Kual3RNIQ0X8TjVaJofWqhiy9vP1aVnb/TQ8C/TuKr1Bu/oxYpNLe8PSaMDDv0dHg9Pp9MYaPXPU0YDrxiq6OtqN09YxiozAvbsKrGsu5agq5DF6MRAw0k1lVnsGHUqQIVFXA8wJNkcRwHEbQSSxW0jhUnGMp2DFvAW2OCcM44ssHAxxRnQHDgTRHU4zhZzMg6sVUyx+V8mw2d8azMx70eyb6hRLhs6xb6gXFDqx9I3sDikXVDthgWTaIsJHREJjLYrhbQppG4ipEWivic0Y5AgW8OAS6bJOaAtmcY4JLIOGHVNrCUOSHKJJsW4R3GpcexEiREwLT3uFwJCBA9EI+JECVRVIX5gTpI2Mvg/QmkjEue3/AEImjYyImSTS5V+0ixWRo7ot7UkkkY9roZncdPrhYrI0AtoJJHszJ7VkYwnsiRujwWEkkkxY6+ITQnRswS5MQmN1HhMkTJHsQmJ2JJHomsEJjZmGLUmKi0Kp7HMWjAXyAWjEVJYWhLy7s0gSGe6LQtxjWih7LujHTazslohGbwIRKkCoGlFwxIRGg02EyQsDyuOrOMcA4psAkuEORMyhwKZwl0LBDSayhwdHyNGPJS4RPtEROg2x9FY+gS/lGr8B43U0IIoLnkXVJLNxlppxtIoXgxuQn3BvpV/Jaw8jzWfkXuCjI0O7nPpSblArOXwF1RavtC3+IaP7JiAio+Rpl4TKeAT/ALY+r4RoJOzv0JWV4D3n4FuPwczwQsPoFUbNIsU/iCEWTCjFyRMWwOKcElLCBt3bbGrKluYnHHthaVclyBXQ4onXjA4AZSRoraHDEzAM5hcW2rIQsEJDPQcc4ZFxGA0SbQtmcAjWA34UZSskZClJs4nBHsiCldhAUSCG1OINPQN6xLqnGFsTh0ByxMiiVgtqbiHCJpwIQh6RbMW1G9WCDNsWyOMcIbDMCArkSA0Ezf1MInqMhUVVVhxWjEWfkKsmJ9ELQviPWIEqMt0zIY6Ql+5GGnPvpaGemNPa0YEXOGKrPUMfv9RIVGfUiqz3xF9oYgglq1KJGOkrdvoJWCZIih20esRI4GYCIsQ+YOBqRQGlArsJ9SKEWw0hYQSHEjiQ9hC7GliKPA/lHE8H8YSgTBjrA/iH8Q/jCCt4hqbR3H84/kH8gh/8i/EskMfYH+IIf/I/mCgSwwvwVCf4wg/8BSFcEhq7IX4A/iCePEbCMpaWC/GH8Ak+wMqKwyKG60zij/ADGSiw2p/AoEwI4UaVATvsHGHtR7IdQXJDuotoccj6RBoQewjd0DWLhSEGmUCgD5vI2fkc/kJKpfkiq4/siVfdHB/9xc51+pgFpVCVFVDGWdli0m/KE9DWH9IhVW89erY3TFoyaYwMXcxWh7MaQKrPSPSFXEv8DFozdj2mKrEu6Bma9wyfaGMJDwmeWDF2JOj+WLQ0Hi7LTp3MxepO50PcDYiR0UxXdGZ7QWjFBVYyRPWaMgzc3u0kv9qNUNlu5YiqMkOpxI7ajobGkCqxrPItESs7Q2SxOleaqz3TEKjGvMM0RjQicQqGQyMYtloN5THSSRUVC0JE0YruAmMkRGIkXmymI3EXQtDxKKogKmOcjY0oxEkJIEB1DoUKJQ2QQ+S0JJJGUMVHwJRKJGxvAXjiiSRrEC90xiaNmLEWMS/qJio2eyETRs9gR0ZLEHwEkBDPZiq2x34CzsLR6w8u3VEFmnmk6JjxRTFXIKqzzQWj0j1Gj1jM3b0n7GKRRLMu+QcWi/RaCtoWGKo2MPIKwalBz9OlMSHge4KrY3nFQhMkZ6FeKCTR7dUksYcVcKRgIKiqwmLUwjadwnrOjQ4qNHk7y6h3tBEjZG5UOFIkrJwhb6IOqH05EESob2j2UKW2iFJAyrE6GGkwLhWGiwhddyDkRKWR1JZWOePekWWGtZDId3Rb1EOZO4TDq0+guW8KmQ1sxuwhebcQuCciJuqFtriQb3+ot4SkRo0dVCSBGiVPIUl0IDCYPfDzWdoy+VlgTRJKPIr6jqHYmrwwy+MkYkMU3HcOiHghODE71XmLQ9iLQ4em0ekWL76MD3FpOfyCCqsOV3ZUYpYY98VVp40djEExyeAbJMDEzuRMmjY/lMFU2MUUgkJQ2iEDGrBiCCLLGuFE9tMVyIQlRCpNMBUnlFGg8EF3QlSCEKh1CJEEDSLWGl1HRw6xDfreRAlCRCGkIpIS/cJIgQoKWAuHaiOw3dBKWBqwOM4w9kcYy3kcIRivowyHi4kJTTiiCwHFhsHK8nGyP8hU4km7nIhVgieJvkSnMF0fU6EOcLYfwQPozYQUkDwJISKbDqmGwDj6x9QHsymVMk9DvkalZG+5b6n3NxGWdNnCF13FS7k6JJCrq41ITVfZGPti2vAgCUo2EfSSvY76+DnEdgzKiWZZD2xB0E3SSDC0x9VBy28gtgNmFGb2JxfkD+4cc4R0sC6KC2hwB7QTau4FUz0RzHEOYYuLAjILeI7kdzcCPlQk3I7kdxoxRXDFuENxoNdxRJd7pTzEH1MRDfzILqQ3I7jDKeQ6SEo0YyB0J+ISkogkWhCu9RO5EZlQ8nAkJIjphiUT0yG4+UVB0XgLgjUPa3ZiImhaa14MTTzWGHwWjEe3pZRq+JzlSCNgoJC0YDr5dDp+lowoqJEMVNuwilmzRZqa4kHbaeVKmJg7tiVIGhbH1QlI6IREnZF/dl28CayEtvCQ1obTi78iYbK2el0v+rGRRrFYTfRDtNaHR9TFRosGH2pUgSxg8/QJIshRRVPv9QkgRCCGxea6hcErDOJHCHsPBsgmZrjP4x/AP4A1Y8A9YWLBsz4K1T2wmlLeQnygtmcenTQs1QhsK6TeTpk/Ik5K5G2eNzhfk4vIS/yJS7xuOJzc/Wzn8xv+6Ir/AKkauocEzmfMf50/tj/NicluzY4jflP7QlY8g+h5S5H33HEvqG/5x/nz+iQP+45uC7DLUe8cEHD8o4/dIDotxKcryH9cT/nP3sgyhSX7RIKZOfcMhJXGeDMT9KlxGy2xMlCoUI2MnESryNDywyLVmEtF/wAx/FFSpHT4OF4pyXkH0hJIVnR1sGF6BGioWEFpVCrGjAy9kMVowMniYqqMKUtGQegx7CmPR4D+IYaGuPaQtKXr20YEuIq2LDxvGMIdrXtGR0VqCBnMhfuhmB7DExVxYzadwlQye5fsZa0d/IXED+5JuDL8FbSMWwg7zLxdTEfQrvca4U3iWKjWGleyolRn6zYWBoloTbLvq/7mLsQKntBPA0pi5Joz0tFlyNEz1otDw89bQ0dhkl2tGA88Wix/JFoaxcBLNGJ1t29CQQn2UCEDJeaE8WhYFzJUgQVMUsJEEHpEY1aQolJCrgJYggSxcoWy1KhakMsdxGsSSNjHrBrE0kdQKwKrZlLTuyRmDFOpKaGcsnUSH2B1bHuLdKknG8Ikkkax7yiKMzDld3pH6N01R4Le/oNmQdScxDNNCWJiBScwo2rNNXQtc6ghjGNDlK9ssheG9zFxc+9AYZKKm+RiDDITCGPa/SBYGXCRa/6XMFVHvBYWyEkkjFnK2iozK/dtDG9DMayytHsfUYO2j13pjEz0DLvZTabuxMWjFjT3noewrbsYCoZCE7DFoyCtEq4D0yoy4lhaMMMx57xEhyFB0ox0Jhi1IJaooyCbsoroI0mTWBcPoM2wqBIQhD4UIOpzHKPtcTVJuMYtwNCY9xAafO5No0Ybk4hsocchOwRmYtgcI4RuSMIyLociOVD3EJjIuTkI3IjDQkBkkRq9tMlruviFFvKIoxGLLFpiSiQSDsG8wSEBsRMyzZw6tluOzfKwlUq1jkJGxlB7YbpTGse6ENCRBsfu9PtRvAqIasT9r8MnQGn9+NDPr/rodDVWRmuV9TBo9tprEZTocBM9N47ExaPWYsfLV14qs9QYtD3jeR0RJhT4Cq9xhHgYzAfyFoTp0OgwqzBMVqX+BjZf2BCHCjhVFZwSGOlEXCOJHGOEh4E8AttHGOMPbCrWH2bSyN/QcEZOEiLcbUwN1EZlE7MetnCyLce8xp6sSWWSU3g5lMSpkveItlgQTkikT3QhkGImGzbU2JS+wZmpXmXJd0LVl8VDuYNphNTJ3nAF/fTF1kHnO5NwhJQaByxlNp6y4sZkllHVn/NP5Y2/EMqROIhESl+A2HgfqQ+TwJ+3cxb5gMcM4QmJ5f8A2Eoz9BwxbUxxkIohZRu6BoeBsg9sZgvynIhM5FuDUZJ82Y5kcxHcajuJsm+olEtR027BJWYR19BYVSJ5IOvgUSTSePkI1LRcopKjQvXYEJECBARFwNFNEYceOwhKQIDUkTuouAlogWWWfMQkgIgax8FoiRGHuLFUNjVGfcXGQkPB0BUV2lHh/uy2Rf2BIgSGhRHtoeBoRchVYksLHydJo8DQ0+UYaEszH0NUl8KIIIMT3AsaGQu+YSq0KvlErEEDRgXmJCSIGj3QlRBAiXaYsyiCCIqBfwKlxHAhwYRiqyxbIm6T+MfxhUaTF5ZPWTGA00tmGJ1coW4iN/QJyxcQbr6bwxu6vJxvyLbfkaN/Ik3MMoG/r5H9E6XvP64otpfMn90h+c/YyYuLzP8AQnsnXJITFwnnWQhaUKEr7Bfv4hI6/AnfO4sVlYfvR+9D/nEvsjjYbiLp8C2Xge28D/ACl9XXAlPMux/KH+LIMg60a4iSzfA/xNPclk/BJSFtMRQOU8gSAYuqA+meIvpjdBJoiXIKH+uR1eYn8weF/MddkT+Uf1h/lhqyvkYW2dhbDyfsYk5fyc/yQFw+RNL3oiihkteRvUs/knPwkzMrV/EJPwn8Ue34EGUmYf6qjLGPWQqstV8DFCriPCdwsaMw8v3aHgy7kPZaHsxvBoZGZ66rMD3ghUZkPYeh4HqCGjEu70VWPY3YWj3WlMRp49BlpFo/T7i0W99pgy79O+k8/vW0MU9n3afb/QWhZVxFo9wek03u9L1ItGNuglbR6h6gkNEC2FRpUiizsRbISGhotMuCRBCLB0oREKiEQgWwgJDQgQhyJSJEWJSISJdiIgWFRh/itTL3JuwKKSPBf80estGIpXYYsaMlcdXuD2WjMN4VoY0OP4GjAd/ExE0YzjSndiZNMBoO1WPY8gFXAbzBUQz3WoqZOz0GPZ03j9++l4709LR0sQ8/tX0mUGyfTQ8DNo2T66GY36Rp7iQLQ8d2ej0YFztMv7MWifwhY0eieoLR91aSyPFVZnMYqMwJ9NDAYwaMHp4mUTQwmP8A4PVF/EEpESkR0/gFfEJSJEsEDSEBoRY6bEQ1QYawQQyyIU4i5Dx2xUJQ2MpDxDQLQoLBBMgNjg/sxNEqh0S1iaGpMmQRyEokYQgJkkjZ7odIiZNGse7oN06mSTTC3+qTogCaf1LaMRf1b6VvKn00PB6z6j0P+3YWhUmyWh4N6vRYx1d9FhUCrMS0eyFjtasaw3kQtBkLFaPWMNWYl3wMBDG7DmDRkMH30YUGOhCZj/4PXIK6B+ksOCUpeSkZY7mMsXQR9Jwy/k3mh5c2Txi7lHCIl2QLg+kGxG4g+k0MQ3WSMocDsjW9EbEJFygiu4TAwTtEPSPqFneUQJJNRap6nvSj6ipNIQyxdpETq7D3g4wRebuyIt+kXKG6nUGNcW/4SXUkr+0Khz4C5LjuyF+PF+BE20eA32+giqWmtiXn0J+r8MVJo2rmmPPgFKakbhDKTgJ+EGliOBok4MJ5qItqPa+ScQhIJ/SLZC3EPeQlrTU/9BpSkORHMiO4+IM7wECFCIOuf2IEKHELs/oSQIDQR8T6jQgQGh+rwJ6A9yJkkknqD+ISSSXOLh3EkkodQR+BRJIxcVISTRvMGnsqShoOpDecTGlDYwLBJAaEzEUgmSqGsJ+IaxJI2QUdzAJk0zDWJJJGtQMiVQ1i0zHTH+TPTGiWzv0NlptAmkiUxosOD7cgjQyRFHBCKKBkkJHgQhcCH2qX3vBKEO6EsWMuDtlBIgQWHEW7gQNIYSw1nhit400Mc2EJISLcIm3cQIjXYRsIkRIYCdy59oI7CEhs3XCV2PYZts0KpNJM4RBwJ1CPCHtBbA4xiLIj0uIBon6mGAiMFViJZpCapZs6BbYhYjCljTkT8oJGDzvI4yuEoYjUctF2NsZscnkc/kJePONtshrNjlssdmQY8pH8oqMMitKT+oPoFIGYuuYShMqEv5+KWyLKZOFzuDjeB9FPAkL/AJC6GklBm34q/K6o33wRG5G7N0NbQ10IRsgQQhQQxsRP8w3fKTteSfSV8iDA1LGrCv5Fs/I1fmPA/ceBucWI/wAy/l5F1QlB1tlDQPrrN4l1V01KJErLEYmQlxmyZD+KOL/iJOTpCR9on+Ib/iIdfGMeVp9UKC/gJiQ/CcXgTqSlGw9JKH2P1If8jOV+CBlilJMQIr7KltxaSjqFEkrZiMnwDbqJEkH9glx5DgkbAmHItxC2gl3Q0jJFox/ytpYk9ggFuyF3IbdQ2iRNta7QlZYi0swMmzddGA/nFirPASI83xjLZCWt0RI2kd2XNZJEt0J3ZHjclAe1INAjBkv+VcKhmH7DTzxI+MSK6o9curmNCFBUuJydMhbRIhqpsIbRmLe9FRiUNnKMipIGCLRl2Cwh5GZvuE4lEJHVslnNuXijGhY6DQ7DbASwurGzd20MgQEvNWb6UmS03bJkyaeGhmn/AKQPWvAgy0hNNWGaSTeE2Ny+sgyNaSGzU7o8k8pDJ/v3G4F4p3pa/wBJbiEYGpQ8dyejGFejpMxvL9VEGMBm2bMvC0MaV7UGaobHnRLQ8BRoeGcHptGQXzOrFR9JWw0jBCGQQJ4SLsCENBpDCT3RKNCAnYilx1FQNdkR2Go4o6CGpHZHAjiQylOwoMI4xwPBsXg2KGEpU/iC/CHBGiAeuQWR4xfgq0yRUDrxHIdm/I0YbyIRDD/wJ5As9oj80Gz5p9WI2JByQOTK5JnwDoeKcsKqUkm4GL0IxMC1svqxAstHjixBksnA3Nb0hcLWHIklBiw+yMPJQzKvgTIMXZbYmzRsEShcqKPX0Ux4ZismBuE9kKKErVhJLS6IQ9uzHyUtJGLPeiJqaKU5NuEkccERYvVumPCp0y2ITAzCkqPDIy0IITBlbA5py2xM0jnVvqNCkTxtJBENFbSW2+TCAXZCx/fJwX6NRIzUzTkz2Gt0JYXszeHbl4A1tjqHge5FiOzKBDJiEnVnOajQkdmDGEkIaXs5+q2MqnzbCubdOfNGjDGsNfRmNC+aiGI8D2qbbTo8Fm4jSqkybQhI7LRmPbdWNjeVDgJGMMs+dk+j1j11Eoi6HEqsP5BgiSRCPCUxFlBrD+NCRESJcQPuHsIiVjgi2xoTTEPkFgcyJaoxWp61X0zB3YkhDOgdDOCBbfpgSIJJVWYE6SO48iCQ3oyRjHA15b2ghrfQUnBMcDq0do8Cp6g3D1CeRoBG0IbG8I09oRJIksiOimIq8HLhRozMNLwVJGsON7CmKSGVlbtGFZchxTRuYorJIkkYdOUJkUFwdq9vYhPyI2Q6Uogc3MhCePLNoheaXcP0Y7p4EwF0/wAsctsu7JGF3bQvnHJNSlyyw6lA4LRLOheqV2WFNJpLoOIUQTF0Oe1LlD0lDWosk6fzfWrRiLDN30MNLXW4DxTiHKj2pS0bGhIMvgLeytHpE5noMku4i4jkaoTKDk9DQ89dGIzE3IiYmJUaFFBhQhzOv2Z64kQ5GOwUCTbVEqGXcWqOllFkiSVh1Yjx3dJZDH/VVWewIZJkQZlC6bZNQcVwxS7ZFmTuCeN4mTZi5hpJCLMiC0ie4QlCe5PuNo6Cy+BNnlEhl4cXFxgbVmJnAXUCwpjVRXnW0SQmMXBOKOJ2jiMkm5ErpOAcEe3JawXzRXnFOGcMgYFgJgLb0Zik5mQ+rIXVllHYWwFsTjD2ROZxN+BGWyFsjkFO8E3XcKy1FyO6IIRuZivwC3DkEDSBE5paG08jCeVICRgButFsG2pC3Ytu4mJAJoee0xIr2f1ogSh0WT3KSRsewqmmksGz9VuMSSNoUkESqbUMuOw3iJJJG8AhsRJJiNtIu7YSCSVGJ8c6JGQw+BFw5CRGIpFirDeQaxiJs6Cr4KEkGhBELIJQakii9941iotEuElS4KmJInkgRE0JYYMRf7p4B5zXWLYC2ZwDiEnCRj5xBbM4RCwE7GRBwOAcEexF1gdxi1iPZnFHtx1sYasUJAccjOFIhCE9FxzZx7YUeFHpEOCcYe3EcILLWTE9YiThTgD2xDdpJaOKn+BQVuNJw+qVRNZoLSi60NpQ4qDTKygJ6iDgfkvZeR7L8nXVluStOC39wug/ISfukL/oPTt2aL8+0X58fT8p+QDSPmj+mRYp2kjdLSKbCKk1nLwRB649i1I2XQ/Qh9BfAtn4E3bTBAqTEf2tEWeP1pLe4krK6KNgTqQYcroBS3CY/wDYXW8g+j5i9qLlYj6H8i6vsOxl8m+/kc2Fot35GuElPqSCe07hZEy6dANw3+FHl9NjVbaXRDssZHb3jIc+0JaXNhBnyjh8Dn8GW8vBMI0k7nM/FOqeq45bFvDZC29I4w4rKLMQk3g4Pkm+4f1Bv+8TGcNigxGzp8i2hyIZtMCSJ6EN6IiGoEI0KjuGm4qb+ol0EpE8AJSCrJ0PHfICp2B5Nbao/wAs570VXSNOjlA0HwWjMNb7UYxlw9bRgz60VHRfARfz1dWsKq2Zh3xYqz1FSVHsx5fdFRjwOFBUZ7YhomA08aaHjSDoLDRcL1VYE8rVObr9hRPDotH131EqtIeF7t9CCCCEJDd19RLCCEQIkzhkBQQQhAqx4MIgcSHBhGFLDFtIewjij/BCrYRj7B/MH+AP4BG/4Ei3mTZ8R/KP4Q14KKS7E4mY9iMycS4HrTB+hi/sZzPLE7peQ4Eid+TEj7oix5R/mRR3N+rI/wD3JvuCRjzid/YTgxkGuj4kTfYRGS6y8Iab6B+lG2g47H84VCGYf5IWiDOWhRNc3Yw92LQeC4rRiJDN1VjFuLe1psgbTH8zE6sQamPfiqz15gtGI88bIVWeg07Hch5fo4Dl22mDfOFVjWd0FoaBeu0Wd9ptS3ReBP5/p0MSb4n+oqsxd/oaUlf0uYtHqiwvjRhppmDyFpvojrgZiqvQUDRb2qZKkCWdJhVjeQSyIoYtTMIqQYmUVWqFy/yWrMNCdinSRseGGXkJ0LOyMVSaYDWeBMbJGZh5GSSRbDcI5dEkjZcx7D+tWMh47alMkkxZMuBVWsPekJ1xG8wVcBG/3YGE6t5xZo2A5NsjxoY12SPelJ4FFot+H6npIkkkfyiFnRxP22+hoRd+rbQyU9o/XS36nQWh4X9riwtDR3xO/mE6MdLM9yIdXhp6rRgNfv6TFhVnrUSrgzIE6vBb3zFVi3FioWnkqQYHUY/7swIUsw3IkBhbYhkfWRI7kdxpGRXYQRC9MZyNdxMMjv8AQSkCBAX8Wj9JuWS5CXchuRI7iJkarlUaCTxYRSkdxqJbDwjSDoM3r+imqUCwxlypiXciRooTmUkSA13FruBfxxBCNB7m6x40Gye4+oqiRS5gTJJRJ5n6hHxDdSNmzUmkkkdQS/vXJJGx7GZv9IkkkbETXF+6tjcDz3/oEySRsj+zkTsTX2VOkmpkaatnuKzSN/g9bRgWPuVkwHXnMB0Y3hPQE6tZlqhPQ9kxVbMlNVwPcFjQdnMdT1LRiNcyHKGtFsov4GNC3R1IXA34PKFSB1o7Cjd1i67i3hCyJi4blZjmmScnbSbJmXGVcxbge9ErrGlZESb5LdmEjrOePfibXEQOg3Yc55ySHLD7rYHRlzR7oe7EbnJd8PoucsaUtx6PKSLq12CiJOIJSk3uSQZMiVlAQ+zRprWQhK7YYdkHPGYt2IKbuzLZdBIKDIMLIcIXVKYyP+Sh4fgRwvgn6I9zbTwcfwPp+EVkeNwZZU3CLEKQnPYmlZL5BvUSlTHchoHMf3sW/wAotmZDrZxIFtfJtL5OH5IF4/I7q8c+7Ytz5L2Xk3G8j6pJNU5vQ0IGqLpegob+gNt4qS6wmQ58ZP8AEWZ8I1ifSKWcwtxJ18JFZ+ULb8BJ/YKaVnO2wlwm34N1vAqApEsthfuEIIOIClt5hM+4KyiKvawz/YOP5E3Cmyi7YWYTug4QtkcAv52E5ugjEaFvItfKJCBETAtDOqGtE/bPHkSA0J0KNKMQLJeyWkhIQodFaERINS0XoiEQICKOK/3YlmJHKkL4hXMzJYiLQ30MAihiqe+LQyHpUgaMWfRFTg5DXtGEW4jDQlmW94QaHkNIcMWxwQ50erGrHrdLMNkyolOaZpwiNXVcejHTSEJEGLJzx5QTHmNIbUDiCNoOQSzsN2GsiTZsn74djCSSx2kWxIwnTZJLqxT4Bl/YfSrHFZfL6ioyOt4Iwc7E5GlMLd/UJqApio0O2L14iKol/e5C0INe3/JBBAlhS7P2xDR1pimQqEEJfQVWWUCREN0RwIeyEvTDbeVOWMR02kMuX4B1f8BJf8BhX8Algo+CxBanAzmdCxIVUhpuBbcZ+goruRdXlkNBqbp3Yy07ezn9wKeSJpgfSwXXkiK/744bE6uBm4c0t3Is6D+Qh7/whr/EWRJbYdSVLaCLogfgRFklj/kLsjLGv7A0gmdTCUZqWlxZUnQ19xE3HkEvyC6TTyRJCQ/4ttwLL6+Rx5eR9RvIq0XC3PlDWS2KjJiNqBrL/wACiQvdIW5EN5hkIPRwhol2NQoErRIJk8FWWsP4EIlDYgu0MTlCSJHELTGWLbaJm6EJ8wJykNihquFMWKWmwVZMdRzbZgsO3ck+IREK+hsS2tqHrZRKEnWrCQpQN0xpGy7LiU6z6GPuwyBuW7iK7XVpWQ/CzVhkmZPGiCCdQi3WxIjrgP6WNkg6JXbJAyKRFm00rlDfLvBs6tRfFh1C93Evm1mM3yh8JI2EMg4rmmH1R6siEPAsV2OElFcd4Wmt5ENozjcOaF+lWING9MhKv0bdzGWyixwy46VuBkp+0ZMCE/dDjCIQmJcyapLc4giERJSxEVWOFhIlh7TTdjkl2Se5HeQOLCynZ6P6veraiCXmmYfU86XoWJoQ7zkyiKHUexp0tdE1kpG5CaxI0NSJontIiaF0E3meanoRUG0Iuw3K6JQuSz6Pu+rIKPYO40Jiod1JMnC7/RHHCoxj9kWnestD3HuRTcCFPMJSSmsshBwIIGj0hycDSI0SEyGt9kXNGkMgmu5iEtQmjNBikcMrQiEIoOvXLiBomJUNBIDBUWl/5HslodshS91nyx2Q+zoSyx9S2mlsYCdsk/5i9WLcNPaEgxX/AEjEhT2GkgIbVHSbItUJBFu+iNnLGIruItekw7vbVwpFiIBmQaHQwnqVcISDX4lKZA10CORYZCIhwWGVQMqK2kocDALpJMSUpabPhDWAuZ+zp7C7xJNymI9TkgVvqIEaaCS0hLEQhJDE2EKJhokazFs7DC2OJB6pWHIwy/JugtJi6rxiNRMQOQtNDI800j4E88kXUrzu53Fjw0NxiSTuX84pNi/qTd4QiR2X6UYxmPcSlsRC6Q7QehiCDOF1RCJB0SFni/4olmZpgspszAkksQ8Th8jzYkqC1/LbK4njnUSc0W+7C46aZYSeXz7gRbjIKJHVf+7etmhZn3E+ZlgknbfQiexSOQ6FIk4GO0PPKKUSRjKWklNiG2pEpHKwgY893G10Q2ZO34JNrG5dcQOEJwjqOEKoolnruQmqY3HkiKUmXgPA9hqlklPiJm0uWMRbCXuGMY7EzvycESSkWJtKdHRpROJVH6qGiJqFssnYNNm1iYGt34+CUFddkSRVZILU7E/MqEMsj+3C0ifDuMKxrJjs8wMQ5NJ9xyoYRbibMk3o4bWwxI7BOo7DF5c2esDbokZkS3N7Dfadwh+QTZlEkskc83F4oz3Q28oRJIgJGmggGPIMV/4MCwCpy3Q83dyRDM7csjIIi92mMooYYuJ/CLlbobo1kmUO5GJOCQjbDkrpvJkVLdiCEIpaMZIdQi2waERIr4hZHlD+nMOwdbWBHYhmlJEoQzQXctjhEfAYvoMeEiRtygiTQLhYY4gdTIzGCG0kNKdg6SQlTftjwHsMPKGgEpmLUUOwae1GRKJJGXzhIImElVkkJpCaFvet+x4qiUOoE7bwIZGaYWxIuU4Up+CbEPlfQknBniEwTqT921AwTJCWjD0lryPbsfo4Q/QsVbIavG3lsW5vwkLKc/8AASEQiSaYJK3+okkT39Ek7Dwe2+hZC5O8xNPW1YRYFcqeEMZQZZEkNuy3YkZxJG9gkmtsQakQkZ+rSmSZEk5ueyHTCgK7iCZozuOgxsuAVtUiyxfUVJVjMjzTHKErOcXgqwjbN3Qelfce0j1qUiMSVLlpX182JMQXRCr5mYUYz0B7in4CYvcqG5sKbUS6BKtCUKWxyUi5osC2yZLY5N0E5peAUlCsPeTzDHwaZANnfXdhAcNsXwijImWQlCQ7hD2Qu9pORl9GrJi1a7HlB+u20Go92FsQI9gw/wCK0JEUwHpaWQ0ZYcaALekGzibZXiEbgxO6jkj3Ay3yJoTWRyxZ5HIGusc6VuSDrHZhh7gaa4QQfJzTdBMyyHuCddLIVxuxyTnjquWVzc36mWN4pjdC6VhaqEzxZIeo4vkY1tyetRbiFxknoTCDQzxwLXuyFsCNoVJ/ixEaCYUthbn6GOvmEWEgbCKiL3go1pZGHUFvJvp8g31eQWWCbIF+WF+aOL5OGM1pKaPApcY7n7WWPuN9/IiJNKjuKEjUNr/IqgZeV7iph5qToVEkFDk/4RP8AzHrEFbm75Lc+A/ln8we14i053meBp/BkClt+GWpl+BuX2iy8yX4kcKZ0GKw6bQIx4yMRn94mVvMS/eLWlzeDj+T+kcM4wvN1EIlWQhuhhImIgUvnqMWhtXHXSxSNrI6dhdUmOWx2DtqR46okEtDt6O8SVlA0jqikZAhgRFLLCtnaELyL5BlAkGhGBC7I2mQIdQxE4kZLuWFdSYItMRITQzplMTdX2IKWQWhtYi0WVlMCBITMMvHCLSx6VpIbmE7HCOFHCiI7CvgCXYiNRrsKSbgRN0ESJETGBqu+IIEBqIkmIoa5IRCGg0oIfIhU0qIDQthFJQqIGhSigQQILQq+YVBhqxFN3ElIQSGkWhV8X6CVhIgaL+xEIRFPVYmiYlyNtFB7+77EiKNDWd/oCRBFP0G4mixvMj8EgggVFz95+pBCIQqgtFdX0REhsQ2RshCNQggeAtr4P4R/KIZC7j+MfwUP8eiP7Qjalyhm38Dd9mkcYZMLgYnm4Q94uzZsvMS8+Ya1K8wbd1jLJw8w5ffJLrDLgkDbXFlI2h7EXwN8shbrwW/sJCZLsRMRtsR9dB/gxN9AbAvMSZuPpHqPIxLx5CIf9CaAmbCa9D+R/0EH5j3vkYU2VhJTGu5EkTSK64t6OWQEdvUP8IJOfCLf4yaI8AtK/gH14fDJXXwJu/hm7fgWTyLcHQKuSDjhPihDuGRaibQZM10SOu7qYRVdT0rTaPlWliRRFViX6Sz3hVZmL/kKuBi7owqzFjeZCq1SxaHsL5ULFGYGYxaMRpOtB45ytDx3h67RgfMeh6VYn6HTTYz9ZFofyz9ttozdmenppCuzqnmEo1YzwCqsy7JOj2AzfZVLNGXd0M9BkVZlPSq0YhMZd2kEDVhfKJYaIEIVfAJIKymIsSU1wJKC4iNYEiO4poIjAukERgvrIRLUdRbY4w9kNLlT7wKKgZSsJsoN+VI8I+BEhMjSCGyasf+OJn8hE0gW2pGUfQOkLRnGuCrix4fyYLRgP5VRNGzOX9irMBza1GMdeaMFZMWPBkxUZ6gT0Rme4mZuujAWE6LDz2X1Fo9n6BaHX6+RaINO7o9Fo9Z6SxFjQDEhu+heCEQqscoOqLT74fwKM6jY1+/oeD03qPorRm0y8HvmGj1i1CUSOhhnxUKiWMZgPImYUCVWiKLFEUYmY2sf+RpZewmSSNYaO8Kk0yjVyNjkTJJJLgeO4SiUSNahCQa1mlMe32ElRhocbxohQ2PYYUlDoHhOwsiCIDNtnhQgjEakfItBUIHkw6SVspTEx2EzeZCiREECkJJGFpYVGJMjpXGmSTRobwesSiSS/ui1RkkbGHd3Rsu4FDxRUZ+xyhVbPU6fZHrKMW4wkegYy+YLQsj6KHXMQ0Z4G8w9qs9IZwLGO0Uuj6AwyE6mEeDITpZxVZmGLQkg0gtLGv8WWbJDdI4hzIg6iGsiVOnqE5ZHv03AJy4tkcpwDjD30LPlDZKTh0DTXRLLGSwE2inMMgLj3BAW+NKzJhm4k7nK6HOPMSPWHgW14HGzowE1hiEzMJax4EmFREjx4FtTZUsSkfQJGLf2z+eNKzMa+6nwi1HsTwTDigjwbKJIaTbN3MBb054sZpdQpeFBz6cnPEKNAPIzl5F1iRbDZl591UdmLqg7J9ySFphWNK8yhG+kf8AIJvwiZj1iE6BH4EjUw/A1qX4Di8Br/Albl7BySw6EvX4OV0aT1K4YBEJFlBN6KU2nAS0qkv7R/YP7g/yRn6h2eBbfycbyJmEofWKFJ5I0sMMk+0QJJoaUcjxAhUkW93UkbsP5wrKJJG8R4lUkdQOkeBChrDoTqEQokfxDKNCdxMa1CwTHGy9jGTQw8Dmw1G0MYO49kSSSP4jFqZP+SbsxLC4h5koSmdxcxZGpK6zQx2yyMnzuJKtIih/tYmOE4CASiXUjocIiM0MPrgTdAkdJwSFiI9BH2n8gaukWBAhYg9bQ2I4RwvA9sTigVs9Bh0aYsjhRwoi4ET7aEmyOA4BOyETt1RaELkTsRIpMjyy0IR2A0FcOwgJDW7iSyybOpBMe4R8IgyFFoW0awUyJDXdVruQ2Z5RJEHFG32CbQVDp0aQlcVL7EkQhhARdHCIjscLwcIey8CtlkNGFdRYDEqSvdjj1Nj/AAAhjxD8a4/Dgl+0fwq8J2ZGoEtrEuVOOJKsiON+WI2LOXzJwPyy6nPmQ/dDSml5xFpPKq7Ldl/JL8xHjykDJd8lmPuQSEjq8Ic9rQ4bL4oYm4Im3lvch6nwc9Cnq8wl+pdxtMO+T+8cbyRfmMSxtuIpe1A1XdJ70DC/5DrmTHNfwLreIi6eBJv4ERAkFM6BO+pLgQg8BvQRstjIGBBuSdYCT0HKjkROJIC5B9UNH1HHrQJuhEK5Dcabj5CkhUK5HchvQn4iZRVkknStLLOwIQ7C9mVlPAaNpyREvnhhzvZiaRmHnvBUdDR2BgJ2AK9GJYxBaDyM9JEkcO6yFdfauLZkjIaEobMosbcb8bjYkK4E8YVHQeGY5zhJSKaSifmdggMkS2xuPcyV5KV9B8qSJbfRITE7uEwulVk3EyInhhXdCxszlJnTMlhNxIv54gwhLtwI57A6tCHUd6jhDk3bJpjELtL4rIk3LUjpSh2DN9WvHIkgXQeQkFZUxlJCvpBuixIydYx5tPUOEmoRPw0smdpfPCG6ESlsMrhFLY3LVa6tDnkTg8E7v7IdNN0ewSOzWq7r/L0MRfMmOyE00miyy6Mkrj6Qjwt3FRjPUUbXQiYbW5ZjHly8IdOLbV0upTloYwHiRH7UZ6ZH4xCIQ0FUCBJIjsNR7QjEGErI4Q9gPb+CA7CUwEltG24SIyU2tjbxNYjviUC6VbtRJOBwiyDCWFtPyN3R+T9zGhWYfdORNXXyc/mf2SH7gsssfSctfJ/SGv5hQJEitlCJGHH/ABKrPUGN7oltdJtJrcxMTMKySxT1gg7qyEhcYiziRSGwCbcqWzehsNbRszDBsE8dXCJo0IjE7GFjd0LQuUOeJaEhEm1JmcaMQu0No3i2ER1xYfR2MRxje7DyIPIZMOgAh4qIOxkGSocjM5gQNHYC0MxWYrSpFaaiy0IHmjMLazfLEiwroP2UZEjadPwHGmIJ4Uz4V1FHoRCNPeUVrSdFsWkkQQpUWEr2lLCLBExkA62dEt+5O6i3KqDtkJsSlEW3X0GFaKU0yXAiS4RfW93Syem3J3D9/GPj+szAbsklV0XeQXRWpNoU2Tztke9xAmJzZMVZoaWX0JhnhvyS50PyJ3VF2Pz4ldHTjqiL8vofoNhn05L9WTQjHBIymqhNseFq0J7sSJ3gRJIwQq3CUtGVGuRBc0n4SMbWJlNXUUhTglApxcqPGJHosTxoxMuttxZbOVA1tYaZMgB7K3YxzikvYmk2G7dRdYxnLIaVZYeyTW4hPAhKWM0YJ3hk3UefCDJTvZfQtiwzVXDQk3kTHxJJZbOgf8jVTlTomixhbWdkXZJxduw6klITTMRbrcS0EwzEyRshDLAVcBIYVZizCIaIFsNHeFSuhl/okiTthiRZbYWoWEZREH6Ri7JG00iVWY7xsiyKH3g6WhGXCSLVBUbGxLoZ2wveu46H1bDkxsXoGgmq2jBlxylHLL6dgXGSw8BMxboPC+YbdipBm6qabFg0tjW+rEa0WkthHlLbbvsQaQvS2H8RgKJhsYosEsnKw+6SoiQyTZi6oT3fcExQpRBXIEKSVhLeEZaNkoFlwQq7dnLZIhWZQO4hIhIaryh5G/RBSWcv1ZJJiLQ1bBrDJOxOhLXuxPoICSGpMkIutCwUmyaMqJTE7HaZEGEhskaTyhJVv9QRqVMUJEQFYSR35s9C9hPoNS5c35EOZJKfJKLH0TAlNKNl0glf2NwhfeNWLNvCs8iJIRNGegOgqMrrDJEDUuCctxYeyXiXu6a4W4zvnKb6saRmS+iDxsGxBra6OwtzPXyxdiNgdhrEj6JCpSrSyFycwuBCElCQ0N5RCA52Vy6SFkantIR2uhrEA9y1raEPnMJIShBnyNhqeliciMVoS839DbwG2JEkucZhKHsNJpZgX14dxUV0IVm7yI6ildHSDIyss1eHAgl7GKRuQtaSbti9NTW6FQxT0rWbixNOVVmDGUIQ6OQ9yhhl/wCmxJ7ZN2xIrXaghGDHCHUpjshNUSh02FJfIkI7kRoQ0wdbAhNa7CIohUEL3FyI7jUe4LbCVVOxCoShWRjZloWcpiSOegiso4I9kcQcuLAwllgdlGBxvPU2M2UResC2I9mS9Ixm2SGxVFGyN8ro0ndiX04aQKWI8B4EvA4vA42KeTWmKSyF1AW14H8gXakkLN4vQX4Uhz4D+Ifhoqzd2HB4EG/g4PAcHVfAheQ0O+dFsScBgfV5UKl62hP0Eog4ZzsJ5SKwISLPkGkSRziZso/zAnleYemmmiTfdisaZQQ61LlGRUqyORD3kJiRV53/AOugIQ0a2VPwhNKhBhElSOo9eJkkjYwxrqLTy0iS5H+8urEJFCRKIwL1bECwENCW3k3JCMpCSYhMNjMEi60KNw49FQwzlSQmuBN+GPdKVTrJJJ9R0N2LtLCDWEkkmYkB7pDu2Op3Jya0tgrEjIzasKt1mNJlG8YTQVvCGXgDKMFhmQ6S2tcLttI8OpjYSFR0Wkx2K0mmyaMzGAhsQqUJsulf+t9UZ2paLDTuyRGxERwiVXgeKoYiKKFu0eMIanc4o9mIbWjAuESKc92PeiqzJVAndQgm5TXURM2NhtnN5HOIeoQ6sgleIEw4mcBwCruBws1XrgiWFHlNAtucY4A9sMhKIbHCpCQD/DCqJ5MKyGzHCOFD2EKhhXCEjiIHEhCs9Qr4Qk2IbHAL2Fyx/c4jiHEIWKR8SOJE3QRrAkton5kWyP5R/IH+OIE0uxJ9g/jH8ofV8A20ix5YoQ2ERHI2bbc3v0ElWyFWLrkl3xH/AGjjx5Eu3sNCt7COyUvDgbOmEAbMLFq/6DYMO4muu1NH4L4RCs38Cc6tfX8lu3khw2SeUMw/xJATtg/ljSYKvuDcP+pFULdHIm8jUbiKiwuS/l5oDYsBMI5kx5x/wBP+EkX/ABFNpO0iXmfByPxXNJpXYjew4om9NIcWIpfUWFtjkOQ5BDz6BUK5HcSkBDDQl5kRLWMkLKKNZNIsZB8nVxEpCaM+TJFqvxGht3WyYiUlWYxZZIDq90V/7NGJ4hV8IqEDRauwJYQiEQhbHpoSIQ0QLcJ4KwWhPjAlWkLZ0So0LZiilGhoz9meoKkC2OnTAxl7jz2kKjMSzlQVWWakpI7DRiK1N1+rpXu5+jQ8Dpx2/wChVY/7nQVWO1y/VFo96er0Gz2/qFoT/Z00MBep9RMkbGz1mn1WQ+JoSwomkZYg02EJsbi2B7YeyOOJPSYGp0xSnth7Y2kaQ0hUfGcT8nK/JHtTlDCVjsx/mTa84kLUxvTCL06DrF0GH/GXRMUVvUW1OIQdLJq6ITiwiEjqIJ9UdLC6Iiir/qGklCKYSH0fMJfeNm8jZlUSjwgdlfRvqY1pK+NMZj7DB2q6XUfAmrZmPX0YseNAdDIprgK1Wxuw13YfxirgNBp0dFxeq0/bQsKrLtPXo4PWaMBnLvD50YDfodNDwL+ncWjF5+jQ6XWj2Q3iUJ0K0N3qfqNoK13f00MBU+x+tG4Jp6UWhW4dwjl40YED4GdG0IXzi6NFhFp3RYoSQGO0P4EIYkkS3sMY4laQSIoxo7w8oNtMTTpgXt0SoxagllWi0ZINaC8L2LFNg0ctK1MdfCNPdehje489ikjZgWu96pHQ9MmuInYMKscaAklEjWLyjDY2Nj3FnbExMkwOsWJowwN4wmSSYmXyqEkjdjxgnYTJJHiMN42h7jFpDp9h9NDLkThfqJk0ZY99K7GtF4r+2JuKiXdiKPF/qLQ6PeYaHp/roLT7PcEl29K3sqMqToZbVQczyzgdwOxC2HtcCdSMPdatGMnRjND4RiEkVmIwEc9xAs0ZenceUqzFj+bQmEJu6G7VWyf9EnuBimiRhwV8apIiCBFxUSNoe7/GgGojp/adKMRbWRtKqmIipHVhLuJBIKaFsrwxLuclJuhWYypYQtocMe1IrtFbyhpAtqccW1NjLmiTSMOI0SBwx2CVhZThYcE4Yusguza4EYROX9RbE45wCFgLNnMl4FtRbU4QzLy7tUcY4BHdEdxbv4NIRI0Lg3JaAZbzA6+MNECR/EyFvEEkkjZ776DUSMMueBI6ugIkkbPaaSwM2Q6JMRYbyGtVxPOH8BeiVMRgYDHSBu6G8RjUsoeEhxDoJ7GKiXowLO5R2YhrDQ0YKSMwZYE2HHoNeE7DGAx/6N5wqLw5HMD2GdrO1jFEmMycE95zB4wfXRtZMQiHrOWc8fQYbgyiiUiZlz2HYmzjL0uQiUCNqoN21EdZLqoGdHYLmnIs8x0R5RnmYySaFuROCegy4peDeBLEJxBMZB8XG2uZaQucW2/IkqwVVgx0iBOC25xB7cSQRJtkDGkcM4Iq1INWeESZU45xyO7RiQ8E4hxzbzhiBwhdL3GwuAxDBKIzyE/Ik49iPD8hK/uzOw190jVvOR/MP+sga3Nx7EOPIOeUinwi3wSICDgm7wdA3ggfaOK27CdkTNnxH8mktIgiS7mW94LClgkfcOrXyWr+xOFksqS65JpzQyT6Y1wZEio+iNLh+A/UhN38ChO7QqmiEIL2AxhRtYiKb6nFOAcqGr6iJJwN0Q3pcDR3R4+hBCwWM90ItRtMYa58obxDIUHRaOg3oqob2Q9gg4rOHQZIxj8lqTRoOjITSag1yVg1Vz/gtGfsOSXSFtjgEfRD2EJPYesrBwHAcQpLBFfOIIbCQaCBF/IiQIFtlhlIkBoKgUJCEQEL+6JYhEDRaiDTuxIggxIxcMWkDVhPCLP71hIVMWJDN2haHtaTR2j12jN2H0BiyRxdaUWnYF/gxj+ILQyOeFE+THRqSSYibdjrNIvyMYCIoeez+tYGqTBCID2kKthYY7KmKd/MOKQcRhT2HFH0jwDX0fkXTe4h29i/PtH/AFk1gV2vqBqLtCDBRPIfRL2BsdgqVrQsDmDzSggkON5PIn+Z1b+Tdi3nEgSkM3TJSM0JDUv+Ql/AQ2fgjsxs3Ep3DFss5H4OYb8C1WIJI44iPeNgEh7nFNsGOg2IcKktIRATSYehaFSBmcZSnMS0esPOmXhe7FVmUyd2kxMUTR0w89GI356HRj3jqPdirixet6DPSPVirgxp7YVcBvmYWjD7HotDx3RO7s9GA2lGToWTPD9TQ6AqsVte8fUxaLe0xpO66TyuKRiamsbP8t6HpBls+4eToYMb0iHR0LDRH4HSotTA6AlVoS4XwEBqQQqGQggSiEQGolFMCBwIe0ILBYCBhD2Bwh7YUayOnCfpOCcYWWBHgOAbEbUbAIjXUiwqjdH/AJMyFiC0OviGbk0ORAWjOhqhsxLWh7ITo2NYa4TXCgz2q2LZlr9wqxhi9bomjPWPTCFRrMs7giSRrDeRmFJGN5EesrI3laQaxDQGA3l0GSaPZ/roY7gX6SFirFUpE/UGstDw3mRXaaSFzNfkTgTkQ9L2xtEZ7wSNGvQkfFR0Y0dmLGi/tMedBgPE9NGQeUEOi2oFRDMw1uhbGYw0JePKiJG0WIdpx2aPmvoWGRK/xgiqSxYvkVZHv7HkWSSSOoGgzWRJJI4agiMWhvILhESA1LRDLuJNHtIVBVGggLn3ElEKagaKQajUm7JnfQJdyG413QloVn6oW4JdzgCIyJineRQYEN0Q3Q03Epr/ANBeToJNyBHcidPULjbUxEm5EiWCCV9YSkdyO40ge9uY1EGEBVRJIjk8IVRI0x3+uNYSTRd3ZaHlITQg5NOUIUIkbLQJoxj2N/oR0JJp7IeexowI/CqOjDw+yKwkkbPSHhe7JJJGGnIwmPRGQSSMxGDCrZc5i0YCZTqzONaLFGx7ERdVxE3Gi3GxkkiH/lixEzZHOMS2o9iMxJggLfUQhE5B7Yb2EiJkT6kiyR7jckmXom5Y19RshAIsmSNVyIvOYSdQ92Rza5RFT1lwuIY0CSM7ojahcZOXRjRc4YjsnUlx+bNhiNZi3hyRZ5GMQYCfU0ypS6kXkShNCC/rUbcBG6hyyfqP7FM6/tJbLdgygf3S5/3P74o1tSYm7Ef0xRQoLIc+UlLEMoTE/Q0k7hNKyFyihpMc9ixXjTEFp+0NtCI4ge5C64pGzL72uEEl3jRtOOW/yRAwKAj7gl5TyYJ9hp6/Iq2yUpcizU9iDdo7NZO1/wAyOvNY85eAmqb+BbonoIuWNCFtzhnFOMJtnDHGOQjuQFrvCCR3EKJLR4dCoMMXOyJSNXxTLbuxKRpWRP4YqECIh9sQu2JWISPZj3jEkjZlMZJI6G4DVmxewwTo2LQ16hqjjyYG6z/o9mIR3QtxnIxNyQYkUTsPLaw4q5ZqwEGrLIwlCG6ok9JxyFZBlEHEOMRdEPaFhgW17ECFKIFM0ECIqBUu4KhECCBaMSIIQtqaEIQaPUPSVik08LSEqQYH14hUYrat1MVovVyFhXAVUsXN0lFp5e/g0Mex+kCq0dF+rErCFlHIUu1IRBCEbH7PycAtg4kPZR28GwkzxHs6NfpnEe8GvyMB5D+yXZstgefcIhdi23OeLr7R+GLtcSseAj6w1ymFw6pAoP8Aob6eT9jOb5EUyelJ3P4JJfaP3ok+yPQIJbDVEz4IOrwMiaUWl2I47khbIXXUTsKOLJBSm0GwENxLuPcFyEQFAjuNBqMSIREdK9mRWEGHXVZ0eIZTLRsbsMeU/wA8RrHeIKq2M12KxRmBYk+UYoRFMw9gRA0YC5Hns6MTBFXAsTuhpSox4MgwlXAafK9B0F3YaFuEc3AVcD0WKrwP4ZjokezDS/dBVwYv7t9GA88cf8SmPKO4VWPH6d9KB+zF/aaGpeREoelDY+l+mxp7WjBjrxGNGkNCzsBBKQ2EggIn8hIcA1GhYQpbymJnQe0OIbGIvCCK2g2dJN0iNAshIBP6CSQ4Y5ghJ3Yl5MT/AJjmj3JD1kLIXRY5xF1lgww43ERLRSPGNoGEEPEVeqGA3BizTAzM0ZJ6KI/yxGSfnSQhmKVVrH1UNKdqJGzE9ZUIZgJZs9NaEseqLQZJO5gq8GLMCRai2ILvjVY4euFVoDaCaw3Pael9DpN5ZEvZBISSNcSufo9DIvvKyYVI6MSX7AqukVVjQzmWp2WroaP2rkiJG7aPMYnl/TSvnHo6Z/Cq2MDxItCK4mNy0YnwU005GIWdgvpRRiAiK5i9BUY1YjAxq0Wo6xDSEpyQ7B6FEuLEyaOjT/nYMX5IYklUuTGhfAVJGtQN4wmSSYDwJhMaDGUnbwhUGWlhEPFEd6h1YR8RKIDDShoBCJETApGkSUNR0w8QEgkolYTPIRRDcTBPjehwgm+ITQ0GJ+8H8YQmSGzF/KxLUsCn3BNEjZkT0EkkjEhSZJI2OROxJJJcndxp7PRiNGgjxqP7MQ6v5Ani0YnixYqbJO0MGjAx72naU60E8BauhkKR0Ze+meC0MaSMPYnQ9xOw4r2R3OlGLoWWHd+5JOhP/BHQZ6z0sT2Ah0eD1D1mkegMEdR0zHoC0HvBYpsPBiz1lR5pkMu4R1FS9oVPU6D1GesGYjwYVN1HS/Qx5EIznoNVnprQzHtfVQv8gU6OmKrpC0e1qZCMh+zzoPSl0tDr77S2B6QWB0M9QYBjOlOHfV1jorZnqqjMYug65DB3EPpR02KH0pkjA9swOlfFdxYqYnVTsOh5P//Z;" vertex="1" parent="1">
                    <mxGeometry width="1600" height="625" as="geometry"/>
                </mxCell>
            </root>
        </mxGraphModel>
    </diagram>
</mxfile>